<mxfile host="app.diagrams.net" agent="Mozilla/5.0 (Windows NT 10.0; Win64; x64) AppleWebKit/537.36 (KHTML, like Gecko) Chrome/135.0.0.0 Safari/537.36" version="26.2.15">
  <diagram name="Trang-1" id="jhrCYGfxsNiboa-1Fgr0">
    <mxGraphModel dx="2782" dy="1798" grid="0" gridSize="10" guides="1" tooltips="1" connect="1" arrows="1" fold="1" page="1" pageScale="1" pageWidth="827" pageHeight="1169" math="0" shadow="0">
      <root>
        <mxCell id="0" />
        <mxCell id="1" parent="0" />
        <mxCell id="EuXT_0k7Hs9fIDMIP2ZN-1" value="" style="shape=image;verticalLabelPosition=bottom;labelBackgroundColor=default;verticalAlign=top;aspect=fixed;imageAspect=0;image=data:image/png,iVBORw0KGgoAAAANSUhEUgAABNUAAAMRCAIAAABEahdpAAAgAElEQVR4AezdB1SUV94/8JzsbnbfN/vPJmajbhJjNCYmJiaaWGJvqIAFsGAHG4giYgEbIEV6r4L0DoNSpffe21Bn6G1gGHodpvKPzr7EEAsg4Ax858zJeeZ57nPv737uDMdvninvDOMGAQhAAAIQgAAEIAABCEAAAhCYeoF3pn4IjAABCEAAAhCAAAQgAAEIQAACEBh+pw83CEAAAhCAAAQgAAEIQAACEIDA5AkMDg5yudw/B+53vsANAhCAAAQgAAEIQAACEIAABCAwSQLz5s3bt29fe3v78J9ueP/tn0iwAwIQgAAEIAABCEAAAhCAAAQmKpCWlqaoqIj8OVE/nAcBCEAAAhCAAAQgAAEIQAACYxNA/hybE1pBAAIQgAAEIAABCEAAAhCAwJsJIH++mR/OhgAEIAABCEAAAhCAAAQgAIGxCSB/js0JrSAAAQhAAAIQgAAEIAABCEDgzQSQP9/MD2dDAAIQgAAEIAABCEAAAhCAwNgEkD/H5oRWEIAABCAAAQhAAAIQgAAEIPBmAsifb+aHsyEAAQhAAAIQgAAEIAABCEBgbALIn2NzQisIQAACEIAABCAAAQhAAAIQeDMB5M8388PZEIAABCAAAQhAAAIQgAAEIDA2AeTPsTmhFQQgAAEIQAACEIAABCAAAQi8mQDy55v54WwIQAACEIAABCAAAQhAAAIQGJsA8ufYnNAKAhCAAAQgAAEIQAACEIAABN5MAPnzzfxwNgQgAAEIQAACEIAABCAAAQiMTQD5c2xOaAUBCEAAAhCAAAQgAAEIQAACbyaA/PlmfjgbAhCAAAQgAAEIQAACEIAABMYmgPw5Nie0ggAEIAABCEAAAhCAAAQgAIE3E0D+fDM/nA0BCEAAAhCYAgEWizU4OMhkMqegb3QJAQhAAAIQeGsCyJ9vjR4DQwACEIDAuAQGBwerq6s7OzuHh4fZbHZDQ0N9fT2dTqdQKC/MaT09PV1dXUwms62trbu7m8PhdHd3V1dXd3d3s1is9vb2gYEBOp3e0dExODjI5XKfL4bL5XZ0dPT19Y3a/3ybsW8PDQ01NjZW/d+tpqamp6dnaGiIQqFUVVXRaDQOh0Oj0aqqqurq6uh0el9fX3Z2tqenZ2JiYkVFxdDQ0NjHQksIQAACEIAAPwsgf/Lz6qA2CEAAAhD4XeC38HnlyhVfX18ul/tbtlRUVFRQUGhqavL09OSF0t+bDg+3tbU5ODj4+/s3NTU5ODiEhYU1NjY6OjrKy8tnZ2f39vbGxsZWV1cXFxc7Ozvn5+ezWKznT2ez2Z6ensnJyaP2P99m7NtVVVXKysrS0tLq6upaWlqKiopeXl6FhYUqKipiYmJ2dnZ9fX12dnZiYmKysrLZ2dmPHj2SkZE5fvy4lJSUpKRkTU3N2MdCSwhAAAIQgAA/CyB/8vPqoDYIQAACEPhdoLW1VVFR8ezZs83NzVQqdcWKFTIyMo2Nja6urq2trVVVVXFxcTExMTk5Ob29vQQCYdmyZfLy8vHx8QoKChoaGoaGhnv27NHS0qJQKD09PVFRUVlZWaamprt27TI2Nm5ubs7Pz495dsvPz+/r61NVVb137154eHhMTEx2djaLxWpra4uNjY2JiUlMTOzp6ens7OS1j42NzcjIaGtr+73WP27l5eWtXbt206ZN4eHhSUlJZ86cERcXd3Jy2rJlyzvvvCMnJ0ej0S5evPjOO+8sWrTI2dn50KFDGzduNDc3NzExOXz4cFVV1R/7wyMIQAACEICAoAogfwrqyqFuCEAAArNNgMVi2dvbf/PNN8HBwWFhYStXriwoKCASiTIyMqWlpXZ2dhcvXrxx48bx48cDAgL09PTee++9gwcPEgiEs2fPbtmy5ZtvvpGUlORlOSqVampq6uXldfHiRV5M9fPzO3z4sKKiopKS0vXr18vLy+/evSspKXnv3r1NmzaJiYk1NTXp6ekdOnRIU1Pz8OHDxcXF2dnZq1at0tTUlJOTExERCQsLe9mK8PLn6tWrnZ2dfX19jxw5IiUl5e3tzcuf+/fv9/PzExUVfffddxctWuTr6ysvL//VV19JS0sbGxsbGhq2tra+rGfshwAEIAABCAiWAPKnYK0XqoUABCAwewU4HE5SUtLGjRttbGzOnDnz448/9vX1ZWRk7NixIykp6caNG/v37z9z5syCBQukpaWdnZ3ff/99VVXVvLw8cXHxb7755tdff92yZUtsbOzw8HBjY6OysnJwcPCDBw+EhYXd3NyuX78+Z84cf3//vLw8Nzc3Mpl8584dY2NjMpn8008/zZs3LyMjY8GCBT///LOSktLy5ctjY2Pj4+P//e9/V1ZW2trafvzxx1ZWVry1aWtre/jwoa2tbVJSEm8PL38uW7ZMUlJywYIF+/fvj4mJyczM3LJly5w5c3755Zdfn93mzp27ePHixMTEzMxMNTW1y5cvb9q06fvvvy8uLp6Uj6HO3qcOZg4BCEAAAnwjgPzJN0uBQiAAAQhA4HUCPT09N2/eFBUV/fHHH7W1tZlMZkZGxvbt22NiYq5cuXLy5ElDQ0NNTU2vZ7d//vOfBgYGJBLp5MmTcnJyQUFBx44d27dvX25uLi9/RkZGenp6SkhIhISESElJ/e1vf0tNTWWxWD09PQMDAyoqKl5eXkNDQ+vXr58zZ05ycvKcOXNERESMjIx0dHTKysri4+PnzZvHYrEePXr00UcfmZmZ8covLi5evHjxwoULVVRUeHt4+XPPnj3h4eG7d+/euXNnZmZmQUHBb3l448aNhw4d+vDDDxUVFbdv37548WI/P78HDx48fvy4oqLC09Pz22+/jYiIeOEXLPE6x38hAAEIQAACAiSA/ClAi4VSIQABCMx2ASaTqa+v/7//+7+ffPIJiUQaHh7mXf9MT0+/c+fOhQsXEhMT9fT0vL29vby83n//fU1NTSKRqKCgYGVl1dXVZWdn98EHH1haWjY0NCgrK/Py5+bNm01NTW1sbBYvXuzm5hYXF+fo6NjY2KiiouLt7c1gMDZs2DBnzpzs7OyVK1dev349Njb2zp071dXVCQkJL8yf7e3tHh4ebm5uGRkZvAXj5U9xcfGurq7MzExhYeGzZ88SCIRt27YdOXJESUnpo48+srGxOXbs2OLFi21tbYWEhDZt2mRiYnL//v0vv/wyISGBzWbP9rXH/CEAAQhAYEYIIH/OiGXEJCAAAQjMDgEOh1NUVCQhISEqKtrU1DQ8PJyTkyMhIUEmkxMSEo4dO7Z3794TJ04kJSXV1NTIysru3bvXxcXl1q1bDg4O3d3dVVVVZ8+eFRUVDQwMVFdXj4uLS05OPnz48O7du0NDQwkEgrS09KlTp7y8vNra2nR0dPz9/RkMhoiIyFdffUWhUNzd3Y8ePSokJKSiokKj0VJTU5cuXcpms4ODg3m58WWLUFhYuHPnzpMnT3Z3dzOZzHv37v3666/Gxsb79++XkZHR0NBYvHixo6OjrKzszz//HBMTExoaKi0tvXr16kWLFqmoqPz5231fNhD2QwACEIAABPhcAPmTzxcI5UEAAhCAwB8E2Gx2UVFRfn4+71cxu7q6srKyeL/kWVBQEBUVRSQSWSwWl8utqamJi4sjkUilpaV1dXW8t7BWVFRERkZWV1eXl5fTaLSenh7e195SKBQ6nZ6ampqUlNTZ2clms8lkMoVC4XA4GRkZMTExLBart7c3IyMjLCyMQqFwudz29vbY2Fgul9vS0hIdHV1bW/uHQp970N3dnZaWlpuby6uBRCLFx8eTyWTeu3BJJFJ0dHRdXV1hYWFCQkJXV9fQ0BBvZ1hYGI1Ge64nbEIAAhCAAAQEWwD5U7DXD9VDAAIQgAAEIAABCEAAAhAQFAHkT0FZKdQJAQhAAAIQgAAEIAABCEBAsAWQPwV7/VA9BCAAAQhAAAIQgAAEIAABQRFA/hSUlUKdEIAABCAAAQhAAAIQgAAEBFsA+VOw1w/VQwACEIAABCAAAQhAAAIQEBQB5E9BWSnUCQEIQAACEIAABCAAAQhAQLAFkD8Fe/1QPQQgAAEIQAACEIAABCAAAUERQP4UlJVCnRCAAAQgAAEIQAACEIAABARbAPlTsNcP1UMAAhCAAAQgAAEIQAACEBAUAeRPQVkp1AkBCEAAAhCAAAQgAAEIQECwBZA/BXv9UD0EIAABCEAAAhCAAAQgAAFBEUD+FJSVQp0QgAAEpkOgrZtO6+VMyp3awy6o7Kin9k5H3RgDAhCAAAQgAAFBEED+FIRVQo0QgAAEpkugprm3spVV2cp+8zupmfk4uT6nvHW6asc4EIAABCAAAQjwuwDyJ7+vEOqDAAQgMJ0C1ZSeCiqrgsp+83s5hUlIrMsuo05n/RgLAhCAAAQgAAF+FkD+5OfVQW0QgAAEplsA+XO6xTEeBCAAAQhAYDYJIH/OptXGXCEAAQi8TgD583VCOA4BCEAAAhCAwMQFkD8nboczIQABCMw8AeTPmbemmBEEIAABCECAfwSQP/lnLVAJBCAAgbcvgPz59tcAFUAAAhCAAARmrgDy58xdW8wMAhCAwPgFkD/Hb4YzIAABCEAAAhAYqwDy51il0A4CEIDAbBCoovSUNzPKm5lvfi9pHPKNr8koaWGxObjPNgEulzsbXi+YIwQgAAEIjFcA+XO8YmgPAQhAYCYLlNR2WAeWmD8ufvO72aMiLdccI588+5AS3GeVgGt4WUtH/0x+nWBuEIAABCAwUQHkz4nK4TwIQAACM1Ggsqk7q6I3g4w7BCYukEXuqaF0z8TXB+YEAQhAAAJvKoD8+aaCOB8CEIDATBKYxM9/VlDZuM9SgRYW8udM+rOAuUAAAhCYRAHkz0nERFcQgAAEBF5gjPmT3MIaSVbkFhapmUluZj7b+fv+kQa8DXIL6//aPM2lTx/y7v89cXRY5R0d1clYHz4ridTMfFpYC7PiuWrH2sMUh+f/ov1fYaMe8kmREy8D+VPg/xJgAhCAAASmSgD5c6pk0S8EIAABQRR4bf4kt7BySG2BMTk5JBov16UWNrgQIr2DEh9HZGSXt44KLeQWVjmFQW5hphc1eQXGx2VVVFDZxNreR+HpAVFZ8dmV3sGJcdmV5RTG8ycW1/WFxOenFNQ/H3Sfb/Dq7cySZgevUAevUEfvMJ+QpLSiJlIz89WnVFDZZY10Ym0PqfkPlbz2rNc2ILewiLW9WeWtZU10XuOypqGwJKKjd+ij8IyCqq5ccvvjiAwHr9A0YuNre5vmBuWUoaK6/rHo/aEw5E9BfPGjZghAAALTIoD8OS3MGAQCEICAgAi8Nn+WUxjBcXlCImJqOhbFdf3llCE9c8clS5cJCYsJCYt5BsaTW1glDQOFNT1ljXRyCyu7vPVxRHpKYb2lve+Xi75WUtUrruu3sPddu36rnOJtfQunlavWqelYFNX2kpqZxJoeYm0vuYWVlFcjIXnKwMI5v7KTWNPLyzakZmZRbR+xtpf0LKyWNdJLGgbLKQzeWM/nH3vPkL/+7W8ffvTx3Pn/Wbrsx+t3ddKITU8TZhO9sLq7tHGQ17i8aYhY01NU28dLyA6eTzQNbFIKn4be0sanLYtq+3jRq6RhgJeQyykM3kZpI53czCys7n4WsIeeNX5a2LPpD5Y0DJbUDxBre8spQ9nlrZYOBA1967SipzVUUNl5FR3HT8v95a9/Xbdxe0hcnqNX6PIVq959913zh9680wuru4vr+59euX2WisktzKLa3qLaPl4aL2saKqzp4Q3N67C0kU6s6SlpGCxtGORdNy6u7x9ZgrKmodKGwadtanvLGullTU8b88IwuZlZXN9PrOktaxqqoLLLKYzSRnpZI72otu9ZV0y/sDQNA5v4nKrx/Y8A5E8Beb2jTAhAAALTL4D8Of3mGBECEIAA/wq8Nn9WUNmZJS0i+w8vX7k6o6Q5Ob9O8uQ5yZPnjW08zspd84/MzCprdfWLVNe38gpKyCW327oG7BGT1DF5qG38cOGir+Wvq5raeq5ctU728s2UwgZCaMrBo9LmD73zq7piMsn3je20jGxTChsScqokJE+p6ViY2Hpo6FlllVFJzYzYTLKRtZu+uVNYIpFY0+sTnGTv+eRJfIGGvrVPSFJJ/cBIBLX3DJn/6edS5xVU7pseP31ReN9Br6CE4rp+3ycpd7VMPALieGktJL5A19TB2MYtOr0ss7Tl1w3bPvjXhzomD7NKW3xDktR0LQytXJ9dg2U6eofGZVWUUxjRaeXR6eXkFpZnQHxsBvmGim5hdXdAVJbKfVN9C+eI5OIccpujT5ijV6iD5xMdk4ehCYUPPYJ++mXtylXrnHzCeTFvJH+u+nUTITRVTddi7vxP33vvPbOHXrnkdhdChJqOuaWDb3pxE7mZ6RuSFJ9daWrrpW/hlFHSXFTb6xeedt/ITklFNzG3uoLKLqrrc38cq2lg4+QT5uQTnkNqSy+mWDn5aRo+8A5KzCW3hcTlO/mEewUl6JjYewUm+Edmahvb+YQkE2t7k/Jqbd0CdU0dCE9Simp7YzMrPPzjfJ8kG9u4O/mGpxKbTp6Vf++9v1+/q5NLbh/hff0G8if/vsRRGQQgAIG3LID8+ZYXAMNDAAIQ4CuBseTPwpoeLSPb1es2hycX+4Qkf7Zg4YUrtw2tXA4eO/3QI1jXzOH4abnjp+WERMTM7X0UbtxbuGjJUSnZG3d1Fn65ZPmKVYu++mbdpu3BcXkVVLaHf+z2XXt1zRw8A+OPSsmeu3Rj8/bdmgY2kSklEpKndoqI/xYXv/r6W6nzCtnlrRKSUgePnpY6ryBxROpxePrRUzI//bzm4tW7R07J7BQR9w1JHslF9p4hX3/7vdlD79DEwut37ksckfJ9kuwVlLD/4HHhfYdOnLn4wNU/LIl4+ca9o1Kyx0/L6ZrZE8JSV/yy9r33/i526ITbo2gFJTUpGYXN24X1LZyKans3bBEyf+hdXN+vb+GkZ+5EojD2Hzh+4vSl735YEZdVefy03L4Dx0TFJCVPnnf3j9m4deeGzUIyCjfXbdp+RVld/prKJ3Pn/+fTBUoqukW1T6/l8vLne3//+1dff3tXy+TiNZVFX33z4YcfmTxw9/CPPX/pxpFTMhu27DS19Siq6zsmdeHUucsq981++PGXO5rGnoHxR07JKCjdW/TV0r3iR0jNDM/A+G079+yVOLrvwNE167c8Ck+/dE1FSERMQUlddP9hA0sXJRXdtRu2njx7aY+Y5IbNQtdua0lISu0SFbdx8b9+R1vy5Hmpc5eF9x509A41tfUUEhY7eVb+qPSFLUIi2iYP9x049te//nXN+i3R6aQR3tdvIH/y1asaxUAAAhDgJwHkT35aDdQCAQhA4G0LjCV/kltYkamlq9ZuPHvxmpmd19oNWwnPriuu27TttobR5h0iIvsO2bkHCu89eENFx8Hzifjhk4ZWrnpmDgsXfT3n40++Xvr9ytXr7NwDi+v77dyDlixddvOe/okzl+Z/+rlvaLJPSFJAVFZsJklC8tT5S0qpxMaFi776x//8T0Ju9aeffaFy39Tcznvthq3WTo82bxOe/+nn3sGJBpbOn8ydr6ptnlbUGJ1enpRfZ+seOOfjT4SE9+/aI/HLmg2q2uYRKSWXrqls373P/KG3yL5DazZs0TZ5uEtUYvceidvqhvaeIXFZles2bvvXh3OMrN3Ck4utnPz0LZ1Xrl53+PjZrFLqZ198qWlgQ6ztvaVueEvdsJzCWLV2o7qulbt/bHoxRV3fSkPfevN24c+/WGRg4fz5F4t++PGXoNhcBaV7h46dMbBw/mXNhlVrNzp6hybkVEenP72CeuTU+bnz/7Pq101bhUQ3bBFa+t0Pn8ydb2rrERKXb+lI0DZ5+MvaDdfu3M+v7NwiJHL3vmlMBmnlqnWiYocJoSk6JvbOvhGbd4i8+5e/FFR1bdgstH7Tdv/ITAnJUx/N+be955Ovl35//PRF98cxh46flTp/WVrmypKly4ys3fTMHZd+t9zU1vPyDbUFCxdfunZ334FjZ+WuW9j7bhMSvammr65n9fPqdVqGD/TMHb9c/LWsws2DR0///e9/v6NpkllKTcipik4vf3Yt+nUfpkX+fNsvZIwPAQhAgG8FkD/5dmlQGAQgAIG3IDCW/FlBZacWNggJi82d958Vq349eFQ6r6L9rpbJuk3brt3WWrZ8xZeLlogdOrFt5x5tk4dhiUTFmxqE0FQrR8KXi76WOnc5JC5/p6jE5m27g2JybV0DePlzp6j4/E8/i0wtLakfiM+ujEotlTh80sDSuayJ/uWiJe+++25CTvU//9+/Nm7dtVfi6KZtu518wjdvE1701TflFIa5vc9Hcz6+fOOehoGNxBGp63e1zR96L/566T09S7krt5avWH3fyDYoJufwiXPf/7hS7PDJNes2r9u03dDaVe7K7Q1bhFav2yy876BfaMrm7cKfzJ3/OCLjoUewyP5DYodOLvrqGwlJqcxS6mcLvlTVNsur6FC8qcHLn2vWbfntymcFlf0kPn/1us279x784svF//l0gZ650+dfLFr166ayRrqemcOh42dcCJG7RCWERMQ9A+KUVPUOHJFW1Tbfe+Dodz/8dPqC4rIfVixfsUpU7PDnXywysnbVN3favmvv0VMywnsP3FI35OVP/6jM9OLmjdt27RE/Ymzjvk1oz04R8au3NP/xj3/kktvmzvuPyP7DxXX9UucVPv74k4ceIfP/89myH1aIHTopvPeg4k0NKRmF5StWBUZnO/uGb9khEpFaqqB8b8HCxRev3tm+a++PP68RFZNct2m7npmjup7Vhi1CHgGxtq4BXy7++tK1u8ekL/zjH//jERCXSmyUVbh18NhpSwdCUV3fay6BIn++hdcuhoQABCAgGALIn4KxTqgSAhCAwPQIjDF/llMY3sGJcz7+ZO78TzUNbfIrO3n5U0XbbKeI+PrNQia2HkY27sFxeVGppecv3TC19dIzc1z47PuHyC0sTUObFb+sVde1NLJy5eVPWYWbcz7+xMDSxczOW+zQSddHUWKHTjyfP5ML6r9d9uMZuWuG1q6GVq7hycWj8ucdTeO8io70YkoOqc3OI2jZ8hVuj6MT82rOXbyxcetOIxu3q7c090ocMbPzum9k6xWU6Psk5dJVFQ1968PHz371zbc2Lv5bd+75aM7HGvrWZ+Wu7t57wMDCecMWob0SRzOKm+d/+rnY4ZNWTo92iorfumdQTmGsWb8lKb+O3MLyDkpcuWqdoZXrtp17XpY/d4qIrVm3xf1xTGYpNb2YkpRfd1RKdvmKVfLXVb79/kcJSSlVbbOvvv5O18xBZN+hJd98d1vD6KiUzG1NY17+DIzOzihp3rR99x7xI1dvaS5Y+NUVZfW7WiZ///v/FNX1nTwn/+vGrW6PonfvOfDRnH87+YT/smbD+k07zB96m9h6uBKiTstcGcmf23fvjcuu5OVPxZsakifOHTgifd/YTtfMISQ+/8/589R5hf99/30NfetccntWWWt6MeX57z16aQpF/pyelytGgQAEICCAAsifArhoKBkCEIDAlAmMMX9WUNlJebV7JY7KyCuTW1hFtb02Lo9lFW4GRmc/Ck/ff/D45u3CO3bvf+Din1xQL39dVfbyTR0T+4NHT1vY+/I+AHnhyi0ZeWVLB9+jUrJWjgRibc95eaXN24U3bxeWVbgZk0G6rW7o6hdVTmEcOn52yw4RYm2vup7V5u3CW3YI7xGTJISmXLp2V/LEOVIz0yswQVRM8oGr/0gc8o/MOHHmUkh8/m9BMTy5WEHpnsp9U0sH373iRzdvFxYSEXMhRMRmks5evM4bUVlNP6Ww4eptra1CosekL5jaevKmsHm78KlzlzNLW/ZKPD1x1x6JfQePWToSSM0MmctKmaXUCio7Kq2U18nm7cLih0+6ECIPHJH+7TOc5ZQhZ9+Iu1qmQTE5l2+o7di9746GEfHZ5z+JNT3qulZS5xWMrF2Pn76ormflHZwoJaPgQoi8o2ksJCzG69DA0rmwulv+ump0BjmvouPStbtKqrqmtp47RcRHRnxWQNnm7cIbt+769PMvPprzb7/wNEevsKcNdoiIiB3WNnl438hW6rxCTAYpMCZbQVk9rbjJ2Mbj4NHTDl6hD1z8xQ+f5PVm6Uh46BEsd+VOSHyBX1jqoeNnDa1cDK3dRMUld+89GJOBz39O2asOHUMAAhCYTQLIn7NptTFXCEAAAq8TGHv+HAl72HiLAuRmZmxmhYW9j61r4B7xo99+/1NEcvFbrOe/Q+P65+teaDgOAQhAYNYKIH/O2qXHxCEAAQi8QAD58+2Ht2e/ETrGMkjNTP+IjEPHzqxZv+XIKRkDS+fx/VDKeMYaY0lPmyF/vuC1hV0QgAAEIPBUAPkTzwMIQAACEPhdAPlzHClrisLbOLslt7BiM8naJg+DYnJIza/7Ztpxdj5BDeTP319S2IIABCAAgT8IIH/+gQMPIAABCMxyAf7Jn6UNgwk5VZGppcX1/RNMQRPKWqRmZnY5LTK1NL2YUt40VEFllzbSiTU9I/fSxsEKKru4ro+3Z1zlkZqZxfX9ZU30kRmVNw2VNg6SW1gje0ZtkJqZCTlVEcnFOeT255uVNQ0Ra3pGGpc10Z/vdmT/29lA/pzlf0cwfQhAAAIvF0D+fLkNjkAAAhCYfQJ8kj8zSpodvJ4ck76wS1TC2vlxdjnttTmqtGEwMbcmr6LjtS1f0aC0kR4QlXVXy2TXHgkFpXuE0NTCmp6QhAJTO09jazfePTgur6yJ7uQT9vShjZuVk19gdHYO6cUVljYOxmaSQ+LyCqq6cspp3kGJVk6PnHzD04soJAojvZjiGRj/0CM4Jr38hekxMbfaKzD+mNSF7bv3qelahiYUllOeRuIKKtsnONHExp23XVDV5fskOSqt7BVTm9ZDyJ+z708HZgwBCEBgjALIn2OEQjMIQNsBds4AACAASURBVAACs0KAT/KnnXvQjt37hYSf3pf9sOKWuuEL4xOpmVnaMECiMCqo7IySZnU9K//ITF5LEoVR1jT0/AVDEoXBu55Z/vQQ/flDI51nlbWKHTqxdsPWrUKiv6xZv23nnicJhXfvm377/U/HpGVPnZM/dU7+oUdwcX2/8L6Du/ceOHVO/sBR6U1bd9m4PB7pZGSD3MJKKay/dPXuXomjTxIK3P1jRfYflpa5Irz3gLKaflgiUV3PUmT/oa1CoifPyf/5e4NIzcxb9wz2Hji2e++BHbv3iYpJHpWSjckgpRdRvIIS1m/a8cWXiyuo7Fxyu5bRg+279hpauY4M/ZY3kD9nxV8LTBICEIDARASQPyeihnMgAAEIzFQBPsmfhpYuv27YJqd4x9E77MSZi9IyCoU1PbZugSmFDWVNQ/6RmUl5tX7haYbWrlqGtkbWbn5haa6PonaKPP1xzlRiY2giUd/CSdfUwcHrSVRaKSE0xczOS9/CWdfMwfiBu76Fk46pvaN3WHZ566icllbU9PPq9Ru2CN3Ts1JW1Tty6nx4ctFlJbVP5s6PSClOKaxPKazPr+wsbxpatXajpqFNSkG9vUfw/77/zwtXbo3qqoLKLmkYcHsULXbwxDahPX5haVZOj46ckknOr5M6d3npsuW37hnsEpU4cPT0xat3l3zznb6506geIlJKtu3co6ymH5tZkVJY7xeWqqB873FkhqGVi8QRqX99+NE777xTQWWHxOUvW75y9brN93QtR/Xw1h4if87UPxCYFwQgAIE3FkD+fGNCdAABCEBgBgnwSf58FJG+btP299//547d+6/dvh+dUZ6YW/Pp5wvVdC38ozJ3iojbOD/esXv/vPmfnb90Q+7KbfOH3qa2nitXrTstq+jhHyd54tyW7cLHT8vtET9yR8Po8Ilz3y77UfLEuU3bd3/97Q/ikqe+//GX1es2PY7IGJXQ8is7z1+6MWfOvxctWXrizEVjG/es0pbLSvc++uhjZTV9NV0LNV2LwJiccgrj5zXrDx6VVtOxOH/x+r/nzrujaTyqK1IzMyAq68yFq5euqcjIKxNCU62c/DZu23VPz3LTtl2fLfjy8nVV8UMnb6sbmdp6/bhyjaaBzage7ulYzJv/qb1HCKmZaWTtpqptdkfT2DsowcrRz94zZNGSb3j5Mym/Vl3P6pa6IfLnDHohYioQgAAEZqwA8ueMXVpMDAIQgMAEBPgkf5KaGR7+sdfu3D9z4eoH//pQQlIql9wmfvik2METSqq63//4s4d/rILSvc8+X3j9jvaNuzrOhIiUwnr566oeAXHeQYkLFi7eKSIuc1lZSERcQemeuOSpHbv3RaaWqutZHT5xPiaddPj42e9//NknJJkX+TwD4pRV9a7f0U7Kq03Kr1PVNpO/rrpm/eavvvnWLyxVXkntXx/OuaBw64qy+hVldd8nyeUUxspffl2wcPHyFau37RTV0LcOTSx0IUReu31f08CG9wsoSXm1J89c2rh1l5KK7oEj0laOfsFxeeKHT34yd/4HH3z4+RdP8+eBI08TrKUDYeWqX/+cP9V0zOfO//ShR3A5hbFrz4Gvvvn2H//4H9nLykV1fRVU9rLlK3n589k3JA2q3DdF/pzAEx6nQAACEIDANAsgf04zOIaDAAQgwNcCfJI/H4WnWTn6JebVxGSQv1667L33/k5uYbr6Rf28ZoOQiJjsZeXM0paYjPKrt7QuXVP5efX685eUnn7S8tpdZ99wz4D4r77+7uBR6et3dZTV9K0c/Z7Pn7IKN7PKWo+cOP/DT6tG8qcLIeLyDbWLV+8+SSjQMrT1DkpMyqtVuW/62YKFLn5R8jeevv82Or08vZiSXkzJJbeX1A/8smbDpat3XR9FBcfmPX2rbf2AvWeInOLtO5rGOaS2Cir7cXj6rxu2rVy1bssOkSVLl52WVQxLLLR08L1xV2fDZqGvl35/4672ThHxY9IXbqjofr30e21ju1HXP58kFG7eLnztjlZcdqWNi/8VZY2P5nwsq3AT+ZOvX0IoDgIQgAAEXimA/PlKHhyEAAQgMMsE+CR/2rj4C+89KHH41P6Dx5ctX/Hrpu0VVPaThIJVazcuXLTEwt63qLZXXc9K/pqKrpnjlh0iSqq6aUVNF67cuqmm7+gdumWH8Fm5a5oGNlduati6BUqdVzhwRDo2k6xv4Xz9rnY2qe38pRubtwuPvP+2qLYvh0TLKaelEhufft/PngP7JI4JiYj9uHK1b2jKTXWDxUuWnjonf0bu2hm5a1qGD1IK6neKiNu5B44kRnILi1jTm11Oy6vo4P0IZ3pxs51boMkDj9saRmKHTuiZO3oFxR8/LSd26MSmrbsuXb3rFRh/Ru7aL2s2/rJmw/pNO1wJkSO98TZIzczrd7R37z0oISkldujE/oMnflyxWk3HvKR+oILK3rhl59x5n/JaljbStU0e6v3pE6SjOpy+h/j85yz7u4HpQgACEBi7APLn2K3QEgIQgMDMF+CT/Jla2GDywGOfxNG1G7aqapsTQlMrqOyUwvrDx89uFRIJSywsbaR7BsQrq+qdOHNR/rpqREpJfmWnsY37FWX1gOgse49gxVuap2UVtU3swpOKHL1DH7g8ziHRgmNzvYMSiur6nAkRRtZuKQX1oyJZScOAu3+s/HXVDVuEjklfMLX1zCqj+jxJvqtlekvdgHe3dPDNLG0xtfOKTC0ddfqfH5JbWJmlLd7BCWnExoySZg196607RK/e0krIrSbW9gZGZ1++oXbklIylIyGrjPrsi3mHypr+eyc1M6PTyp18wg+fOLd+847f3m/s4B0am1XBy7eGVi631A14I5IojMDo7KCY3D8X8Hb2IH/O/D8VmCEEIACBCQogf04QDqdBAAIQmJECfJI/K6hsYm1vREpJQFQW7+OURbW9mgY26zfvuKdrUVLfX0Flk5qZ6UUU/8jMxLyapw8pjMySlqi0ssLq7tLGwYTc6tDEwtyKdlIzo7C6u6Cqq5zCKK7vJ9b2kpuZhTXdeRUdZU3//S3N50NaOYWRSmwMjMmOzaoofjYQsbYvu7w16//uT7//ljKUV9lR0vD0OuRr7+UUBrG2lzdWLrk9JC4vjdjEO6usiZ5SUB+bSS6s7s4saXbxi7Sw9x25hyURy5ropGZmTAYpMDo7raiJlzx55+ZVdGQ99/29xXX9xXVPWfjijvw5I/86YFIQgAAEJkMA+XMyFNEHBCAAgZkiwD/5c1SOyqvoUFC6d/2OdkwGedShmfEwMbdax9T+2u37I3evoIQxRly+E0D+nCl/EDAPCEAAApMugPw56aToEAIQgIAAC/Bt/iynMNKITTkkWjmFwXdxazKuOpY2DGaVUdOIjSP3gupucgtLICeL/CnAfwNQOgQgAIGpFUD+nFpf9A4BCEBAsAT4Nn8KZAybjFwqkBNH/hSslz2qhQAEIDCNAsif04iNoSAAAQjwvQDyp0DmPX4LusiffP9KR4EQgAAE3pYA8ufbkse4EIAABPhRoIrSU9RAL6rnizuxbjCH1E6sG+CTenhl5Ff3FNT08VVJfFhMDaWbH5/fqAkCEIAABN62APLn214BjA8BCECAnwSqmrp94qo8oyveyt0jqsI2IP/+w2gVixAtu6jbJv57D51+QEh/K8W8bNBrGjbaNoEvO/oW93tEVzg+Kda0jVSzCrXwyXCPJL+tYnzjqppoffz0vEYtEIAABCDALwLIn/yyEqgDAhCAAD8IDA6xmtr6GmnTek/NKfENiPD0e/IkOiUoIvHGnfvHpC9eu625XVhCdO/+gpLqaa7nFcNlFZIPSp68dlOttIryimZv5VADtSctt3TrbvFjpy+5+QSn5ZR4PQr19HsSEBpXWFbb0No7bVU1tfUNMdn88HxGDRCAAAQgwG8CyJ/8tiKoBwIQgMCsE0hKStLT01NXV3d3d6+vry8oKAgPD6+qqpKWliYQCAwGg39EfH19FyxYsGTJEiKRyD9VjVTS2dl57949AoHg4uISFxenqamprq5uaWmZlZWVm5tbWVnJ5XJHGmMDAhCAAAQgMP0CyJ/Tb44RIQABCEDgDwI9PT0UCqWhoaGtrY1Go7m4uMTHx2dnZxsYGPBVZGpsbDQzM1u7du3+/fttbW0HBgb+MA0+eMDhcMhkspKSkpWVVUJCQuOzW3Nzc2NjY3x8fEFBAYfD4YMyUQIEIAABCMxeAeTP2bv2mDkEIAABPhTo7u6Oiopqbm62sLDw8PAYHBzknyITEhJUVVXDwsIyMzMlJSVbW1v5p7aRSnp6eszNzbOysqqrq5lMJoPB4HK5bDa7v7+fTqePNMMGBCAAAQhA4K0IIH++FXYMCgEIQAACowXq6+sfP37c1dU1NDRUWlrq7u5eWVnJP9frmpqaNDQ0cnJyGAwGk8mMjo5WVlYePQc+eMzhcIhEoqysLJvN7uvrCw0NDQsL46v3MPMBEkqAAAQgAIG3JoD8+dboMTAEIAABCIwIpKamamlp5eTkMJnM4eFhPz8/S0tLvrr4WVpaevr06aGhIVtb2/j4+MHBwTVr1ozUz1cbPT09Hh4eZDKZxWJRKJSmpib+ifF8BYViIAABCEBg+gWQP6ffHCNCAAIQgMDvAsxnN95HQHnhs6Kiws3NrampiX++LKevr+/ChQtVVVW/vZdVVVXV39+fy+UWFRWJi4v/PhO+2eJdApWTkxsBrKqqMjAwqK+v55saUQgEIAABCMxSAeTPWbrwmDYEIAABfhDo7+93c3MLCwt7/qOJWVlZJiYm/f39/FAhr4b6+vqTJ0/yrsd2dHTwauvv79+wYUNnZyf/1DlSSVdXV1BQUHl5OW8Pg8FISUkxMjLiJfyRZtiAAAQgAAEITLMA8uc0g2M4CEAAAhD4XaCgoCAsLIxGo41cqRseHqbT6Z2dnXz1ltGoqKiWlhZekVVVVbxvHuJyuXV1deHh4b/Ph2+2OBxObm6uo6PjSEUMBqOrq4vFYtXX19fW1o7sxwYEIAABCEBgOgWQP6dTG2NBAAIQgMBTATqdnpWVRaPRGAzG0NDQ8+GTP4GevzyroaERGBjIq5PL5T5/iK+KZzKZf76GPDQ0FBcXFxkZyVelohgIQAACEJg9Asifs2etMVMIQAAC/CIwMDAQExNDoVD4paDx1OHo6JiUlDSeM/irLS/zDwwMVFZWtre381dxqAYCEIAABGa6APLnTF9hzA8CEIAAPwmkpqaWlpZyuVwWi8VX77AdOxKFQunq6hp7e/5sOTAwEB8f7+rq2tjYyJ8VoioIQAACEJiRAsifM3JZMSkIQAAC/Cjg7++vr69fV1fHj8WNuSbus9uYm/NpQy6X29nZWVVV1dfXx6cloiwIQAACEJiJAsifM3FVMScIQAACfCnQ1dXV3t7OZrP5srqxFmVgYBAWFjbW1vzdjsvlNjY2hoaGFhcX83elqA4CEIAABGaIAPLnDFlITAMCEIAA3wr09fW5u7sbGBhQqVS+LXLshd28edPX13fs7fm8JZfLra6u1tbWHvlSJT4vGOVBAAIQgIBACyB/CvTyoXgIQAAC/C7A4XCqq6tjY2NpNBq/1zrr6+vs7Ozt7RXQz+XO+tUDAAQgAAHBEED+FIx1QpUQgAAEBE6AxWLV1dXxfipT4Ip/RcEjv//5ijaCeIjD4dja2rq7u3d2dgpi/agZAhCAAAQEQgD5UyCWCUVCAAIQEDyBsrIyc3Pz9PR0wSv9lRXfvn3bz8/vlU0E9SCTyayqqurs7ORwOGw2m/9/l1VQoVE3BCAAgVksgPw5ixcfU4cABCAwBQJsNntgYIBOpxcWFhKJxCkY4S13GRMTU1JS8paLmOLhKysrExMTaTQaIugUS6N7CEAAArNOAPlz1i05JgwBCEBgSgVIJBKBQOjt7Z3SUd5i5xwOZ8ansvr6+pycnM7OzsHBQRaL9Ra1MTQEIAABCMwwAeTPGbagmA4EIACBtyPA4XCGhoZYLFZHRweZTBb0H1l5BeJM/fznC6fs7OwcHx/PZDJfeBQ7IQABCEAAAuMVQP4crxjaQwACEIDAaAEOh9PU1BQZGVldXT362Ix7rKOjExISMuOm9eIJUalUJSWlwsLCFx/GXghAAAIQgMA4BZA/xwmG5hCAAAQg8CeB7u5uNzc3b2/vwcHBPx2caTsMDAzCwsJm2qxePp/BwUE2m02n01tbW/Fe3Jc74QgEIAABCIxJAPlzTExoBAEIQAACLxRgs9nNzc0NDQ0vPDojd86Gz3+OWjgul1tSUqKtrd3Y2DjjP/s6au54CAEIQAACkyuA/Dm5nugNAhCAwOwSaGtrs7a29vDwmD3TJhKJsypvj6wsg8Ho6+trf3bDhdARFmxAAAIQgMC4BJA/x8WFxhCAAAQg8FSAzWb39/dzOJyWlpbk5ORZhaKurh4QEDCrpvz8ZCsqKh49elRfX48Loc+zYBsCEIAABMYogPw5Rig0gwAEIACB/wpwuVwqlRoSEjIwMDALUZKSkkgk0iycOG/KdDo9IiKiuroa+XPWPgcwcQhAAAJvIoD8+SZ6OBcCEIDArBNgMpkDAwNFRUVRUVF0On3WzX94uL29va+vbxZOHFOGAAQgAAEIvLkA8uebG6IHCEAAArNCgMvldnR0EIlEKpXa1dU1a38T8uHDhwkJCbNiyYeH6XT6G37Uk8vlstlsDoczIsZ9dht5iA0IQAACEJhVAsifs2q5MVkIQAACExdgs9nZ2dm+vr6z87LnCNzNmzd9fX1HHs7UDRqNlpubm5CQQKPRhoeHuVxuZ2dnTk5ObW1tZ2cn77dYuFxuUVER59mtoaGhrq6OF1a5XG5vb29ZWRmbzWaxWGQyOT09vbKyks1mDw8PM5nM2tra3Nzc9vb2maqHeUEAAhCAwMsEkD9fJoP9EIAABCAwWmBoaKi/v3/03ln22MnJKSkpaaZOmsvltre3p6am2tnZXbp0ycbGhkqlVlVVJSQk+Pn5Xbp0ydvbOz4+3tvbu6Ojg8ViiYqKtre3FxcXP3jwwMbGJj4+vre3Nz4+Pjg4WENDIzk5uays7MmTJ4qKirq6uqGhobm5uXQ6PTAwUF5e3tXVNS0tjUKhPH91dKbCYl4QgAAEIMATQP7EMwECEIAABCAAgf8K9Pf3u7q6rl+/Xltbu62tjbf38uXLy5cvd3Bw6O3tHR4eTkhIsLe3p9FoTCbz559/Li4ulpGRcXR0zM/P19DQqK6uXrhwoZOTU3V19YULF/T19XlfmJybm7tu3TohISHep2c7OjrMzMzWrVunq6vb09ODBYAABCAAgVkigPw5SxYa04QABCAAAQi8XqC7u5tAIBgZGTk7OxMIBBKJxGKxrK2ttbW17e3to6Kiurq6EhISfrs6OpI/q6urzczM7t+/7+Tk5Orq2tTUNHfu3ODgYH9/fzU1NRMTk66ursjISFdXV0dHRzMzs7a2tvb29tjYWAcHB01NTXt7e16sfX1xaAEBCEAAAoIvgPwp+GuIGUAAAhB4pQCbze5+dhv5IhkOh9Pe3s57/+TIr2g8vzGyzfvgH+/tkVwud3BwsLW1deRnV1gsFo1G6+zs5H2u75VV8O9BFovV1dXV3d09MouhoSEajdbX1/f8+0JHTEZ9fc7IQw6H09XV1dbWNtIPk8ns6urq6ekZ2cO/Cn+sjEajBQUFWVtb29jYVFdXDz/71l97e3sLC4vc3NzU1FQDAwMikdjY2Lhy5cq6ujreO3KvXLmydu1aIpG4dOlSfX19XV3dK1euWFlZRUdHGxsb29jYkMnk4eFhBoNRUlLi6Ojo7u7e1NT0x5HxCAIQgAAEZrgA8ucMX2BMDwIQmM0CbDa7paWloKDAz88vLCysra2tr6+vrq6usrLSycnJy8urrq6ORqPx0lFVVRWDwairq2tpaaFSqW1tbVwul0KhNDQ0tLe319bWslisoqIiU1PTmJiYmpqa3t7e1tZWW1tbT09PEonU0NAwkksFxXxwcLChoaGwsNDHxycsLKynp6e3t7e2tjYtLc3Kyio1NZU3Td43uFZXVw8MDDQ1NdFotIaGhq6uLjabXVVV1dDQQKPRqFRqX19fUFDQgwcPioqKamtr+/v7m5ubg4KCAgICfnuHKoVCEbhvDGYymSkpKfX19SML2tzcXFNTQ6FQ7t27p6GhoaenJyoq2tjY6O3tbWhoaGBgcPHixbq6Omtra4NnN0tLy5SUlJycnIaGhpEAz2Qyef/bYqRbbEAAAhCAwOwRQP6cPWuNmUIAArNOgEQi6enpaWtrEwiE7Ozsrq6u6OhoPT09V1fXwMDA5OTkqKgoAoHA+zyekpJSa2vrb5ewIiIiEhMT4+LimEymlpaWi4tLSUmJsbFxcXFxfX29v7+/nZ2drq5uYGBga2trZGRkcHCws7OzpqZmaGioAL2RcnBwMCYmRk1NzcbGJigoKDc3t7+/PzAw0NDQ0NHR0d/fv7y83MTEJCcnh81m9/X1KSsr5+fn6+nppaSkeHt7Z2Zm9vb2Hj9+3M/PLy0tzcXFpaKiIjs7+/Hjx3Z2dvr6+lFRUZ2dnRkZGf7+/kZGRhoaGnl5eQJ3IfRlr5msrKzg4OCgoKCYmBgWi9XQ0MB7mJ2dPTQ0xIviISEh+fn5M2bKL6PAfghAAAIQGJcA8ue4uNAYAhCAgCAJBAUFKSgoaGpqxsXF9fb20ul0V1dXTU1NW1vbsrIyJpP5+PFjPT29zs7O4eHhDRs21NXVSUtL29raOjs7R0dH02i0HTt2qKmpEQgEZWVlBQUFDofT2Njo4eGhq6trbGzc29vLZrNLS0vNzc0VFRUNDAzq6uoEBYhKpVpYWMjJyRkbGxcWFjIYDDabbWZmZmBg4OHhUV9fz2azZWRkwsPDWSxWZ2fnpk2bUlNTFRQUHBwcLC0t8/PzOzo6PvjgA2tra2dn54sXL3p5ebFYLBKJZGtrq6+vb2try+Fw+vv7k5OT79+/Lysr6+7uPst/ukZQnhuoEwIQgAAEpk4A+XPqbNEzBCAAgbcs0NzcnJWVZWNjY2RklJiY2NnZSaFQgoKC9PX1CQRCUlKSm5vb8/mzvr4+ICBAV1dXRUXF1NQ0Pj5+06ZNcnJyqqqqly9fFhYWrq2tdXd3NzMz8/HxKSsra29vDwsL8/T01NXVDQkJqampEaC34A4NDdXV1UVFRRkYGNjb22dlZfX391dWVvr4+FhYWPj6+paWlp45cyY0NHQkf9bW1np5eWlra/OumjY2Nr7//vtqamp37tyRlJQ0MjLKyMjw8fExNjYODAxsaGjo6OhISkqytLQ0MzNLTU1tbGychRcDmUxmdXV1R0fHW34xYHgIQAACEOAPAeRP/lgHVAEBCEBgagRYLFZHR0d2dnZMTAyNRuNyuX19fVQqNT8//9GjR35+fteuXXN/dluyZEl9ff3169dNTExcXV1v3rwZGxsrKip65coVAoGgpqZmbW1dVFQUHBzc0tLS3d3N4XBaWloePHiQkZHx/JcSTc08pqpXOp1Oo9GSkpJ43+zK4XC6u7ubm5ujo6PT0tKsra21tLSCg4MtLS3Xrl1bVFRkaGjo5uZmZWV17Nix2tra+fPnGxsbe3p6qqmpBQcHh4aGZmVltbS09Pb28j49GxkZmZ2d3d7eLnAf/pwscTqdnp2d3dDQ0N/fP/IR0MnqHP1AAAIQgIDACSB/CtySoWAIQAAC4xbgcDgsFuv5f/1zOBwmk0mhULy8vOzs7IyNjVVUVLq6uiwsLMzNzf38/IKDg/v7+z08PLS0tEJCQszNzYeGhnj9jAzP5XJ5b1sd2SOgG2w2e5QP+9mtu7vbycnJw8Pj/v37FhYW9fX1Dg4OPLGAgIDe3l4DAwNTU9PgZ7eBgQEWizXqK3NH7RFQnzcsm81m0+n03NxcHx+fN+wKp0MAAhCAgKALIH8K+gqifghAAAIQgAC/C7DZ7MrKSn9//+HhYc6zG79XjPogAAEIQGBqBJA/p8YVvUIAAhCAAAQg8CKBhoaGnJyc/v7+Fx3EPghAAAIQmOECyJ8zfIExPQhAAAIvFOjv729qamIwGC88ip0QmDqBuro6T0/PzMzMqRsCPUMAAhCAAN8KIH/y7dKgMAhAAAJTJcBms9PS0nx8fPCtpBMgrq6uptFoEzgRp/AE6HR6bW1tdXV1VVVVbW3trP1mJjwfIAABCMxOAeTP2bnumDUEIDCrBVgsVmJiYlFR0dDQ0KyGmNDkzc3No6KiJnQqTvpdoLu7OywsLCQkpLu7+/e92IIABCAAgZkugPw501cY84MABCDwnEBaWlpVVRWXy+3p6WGxWM8dweZYBQICAnJzc8faGu1eIsBisSgUSkVFhQD9ZuxLpoLdEIAABCAwDgHkz3FgoSkEIAABQRdITU2tqqoS9Fm83fr7+vpw3XhSloDL5fJ+9ob3u7KDg4OT0i06gQAEIAABfhZA/uTn1UFtEIAABCZHgEQiJSYmdnd3z4yf65wclIn2UlFRQaVSJ3o2znuBQHV1dWxsLD6N/AIa7IIABCAw4wSQP2fckmJCEIAABP4oUFFRYWlpmZiYSKfT/3gEjyYiYGJiEhERMZEzcc7LBRgMRn9/f1ZWFolEenkrHIEABCAAAYEXQP4U+CXEBCAAAQi8TIBOpw8MDHR2dtbU1ODnFl+mNN79WlpaQUFB4z0L7V8rwOFwKioqHB0dc3NzORzOa9ujAQQgAAEICKIA8qcgrhpqhgAEIPB6ge7u7qioqMjIyPb29te3RosxCzQ0NOCdomPWGl9DJpPZ1NTU1dXV3d1No9HwFVnj40NrCEAAAoIggPwpCKuEGiEAAQiMX6CwsDAmJqahoQG/rzh+vFedgc9/vkpnko4VFxe7ubmVlJSw2exJ6hLdQAACEIAAXwggf/LFMqAICEAAApMlwGKxysrKCgsL+/v7+/r68D7GyYId6UdPT+/JkycjAHzOEwAAIABJREFUD7ExFQIDAwPx8fEpKSn4vydTwYs+IQABCLxFAeTPt4iPoSEAAQhMvkBdXZ27u3tSUtLkd40enwmEh4cTiURgTLXA4ODgwMBAT0/Po0ePKisrp3o49A8BCEAAAtMjgPw5Pc4YBQIQgMA0CdBotLKysr6+vmkab/YNQ6fTcVFu2pZ9cHAwISGhsbFx2kbEQBCAAAQgMKUCyJ9TyovOIQABCEyTAJVK9fPzKygo4HA4+MjclKK7urqmpKRM6RDofESAy+XyfrS2o6MjIyOju7t75BA2IAABCEBAEAWQPwVx1VAzBCAAgdECDAaDSqX29vaOPoDHky1w69YtAoEw2b2iv9cI9PT0uLi4mJmZ0Wi01zTFYQhAAAIQ4GMB5E8+XhyUBgEIQOB1AiwWy9/f38bG5nUNcXzSBIyMjMLDwyetO3Q0NgEul9vb29vZ2Tk4OEin03GRf2xsaAUBCECA7wSQP/luSVAQBCAAgbELpKamamho4E2JYxd785b9/f1DQ0Nv3g96mJhAZGSkkZERiUTicrkT6wFnQQACEIDAWxRA/nyL+BgaAhCAwAQFGAxGbW1tVVXV0NBQf38//iE+QccJnUYmk1taWiZ0Kk6aBAEGg1FXV0elUnEJdBI00QUEIACBaRdA/px2cgwIAQhA4M0EOBwO79uGnjx5wmKx3qwznD1uAVVV1cePH4/7NJwweQLcZ7fh4eHAwMDKykoE0cmjRU8QgAAEplwA+XPKiTEABCAAgckV4HA4PT09zc3NeBfo5MKOsbe4uLjS0tIxNkazKRVwdnYmEAiDg4NTOgo6hwAEIACBSRRA/pxETHQFAQhAYAoFuFxuR0eHv79/XFzc8PAw3nM7hdav7JrD4QD/lULTd5DJZNbV1Q0MDPT29mJRps8dI0EAAhB4AwHkzzfAw6kQgMAsFuBwOXTmQP9Q7yTeucOv+j4VNpudn5/v6upKpVJnMfxEps7hsidxscwtzWJjYydSB86ZGgEOhxMQEGDv8JDWQZ2s1+MQc5DL5UxNvegVAhCAwKwWQP6c1cuPyUMAAhMWoPVSkisjSlqKSLTySbm7pBn1M178651cLndoaKijo4PBYAwMDEy45ll7Ip01WN9ZNynLRKKVyyicx+9/8ttzqb+/PzL/UTwprLy17M0XOqc+Lb06tofeyW/TRD0QgAAEZoAA8ucMWERMAQIQeAsC1J7G2PJAIiW/lFoyKXebhHt9Qz0vnElDQ8NPP/2Etxe+EGcsOweZgzUdNZOyTKXUEq9M26LG7LGMizbTKZBICo4qCyxpKX7zhU6vSUysCOse7JjO+jEWBCAAgVkigPw5SxYa04QABCZZYBryJ5vNbmlpodPpk1z67OtucvOnb45dCSVn9iny+4yRP/l9hVAfBCAAgWcCyJ94IkAAAhCYiMBU508Oh1NSUqKlpVVVVTWR+nDOcwKTmz+tAvUzipOe6x6bfCGA/MkXy4AiIAABCLxOAPnzdUI4DgEIQOBFAlOXP7lcLoPBGBwcDAkJyc/Pf9Hg2Dc+gcnNnzKK5/0e+Y2vArSeegHkz6k3xggQgAAEJkEA+XMSENEFBCAwCwWmLn/29/eHhoYmJeEK26Q9rSY3f+q7qCdmxUxacehokgSQPycJEt1AAAIQmFoB5M+p9UXvEIDATBWYuvzZ1dVFIBCIROJMpZv+eU1u/nRPsSbWZU7/LDDiqwWQP1/tg6MQgAAE+EQA+ZNPFgJlQAACAiYw6fnTKlaNVF3G5XJZLFZPz4u/CFfAjPim3MnNnzfuKz6JCOabyaGQ/wogf+KpAAEIQEAgBJA/BWKZUCQEIMB3AtSexqiSR2k1CVl1KZNy1/JV3Cz8a2s3pb2POhX3zgEanTXAHebyHeXUF9TH6C1tIU7KMmXVpVy4ec7Dz3kq1mikz156F5vDnnqYGTVCIik4hOiVWZv85gsdWx4SUUKobSeNrMikb3T0t9KZ+C3fGfUMxGQgAIExCiB/jhEKzSAAAQj8QYDa0+iXY/sgUWOy7irOlwxDlGyTNO2StKbi7pJmWNCQxmQz/jCN2fGgtafJP99xslbKIlrFOu7eVKwRr0/reLWAfKeugfbZsTiTNstEUrBl3N0HiepvvtA2Ceo2CfdsE6fqxWibqGmbqJlXnzxpk0dHEIAABARHAPlTcNYKlUIAAvwkMOnvvy2llkzpPbUqtoSSy2QP8ZPiNNUyue+/ndJlKqWWpFTHRRT7dg20TZPOTBlmEt9/O9VLXNRcGFbil1ObMFPsMQ8IQAAC4xBA/hwHFppCAAIQGBFA/hyh4P8N5E/+X6M3rxD5880N0QMEIACBaRBA/pwGZAwBAQjMQAHkTwFaVORPAVqsCZeK/DlhOpwIAQhAYDoFkD+nUxtjQQACM0cA+VOA1hL5U4AWa8KlIn9OmA4nQgACEJhOAeTP6dTGWBCAwMwRQP4UoLVE/hSgxZpwqcifE6bDiRCAAASmUwD5czq1MRYEIDBzBJA/BWgtkT8FaLEmXCry54TpcCIEIACB6RRA/pxObYwFAQjMHAHkTwFaS+RPAVqsCZeK/DlhOpwIAQhAYDoFkD+nUxtjQQACM0cA+VOA1hL5U4AWa8KlIn9OmA4nQgACEJhOAeTP6dTGWBCAwMwRQP4UoLVE/hSgxZpwqcifE6bDiRCAAASmUwD5czq1MRYEIDBzBJA/BWgtkT8FaLEmXCry54TpcCIEIACB6RRA/pxObYwFAQjMHAHkTwFaS+RPAVqsCZeK/DlhOpwIAQhAYDoFkD+nUxtjQQACM0fgtfmzqIlY3FxUSi3hk3tqVWwJJZfJHpo5azDmmSB/jplKgBuOL3+2lBRRiEVNxJKW4ul/hRY1F4aV+OXUJggwN0qHAAQgMFEB5M+JyuE8CEBgdgu8Nn8GJQTG5cdO8z9tCxryo3OiorIjiyjEUUMjf44C4duHKdVxEcW+XQNts/sVNu7Zjyt/FjYUPEkJCUwIyK/Lm/5nAvLnuFcXJ0AAAjNIAPlzBi0mpgIBCEyjwCvyZ0lLcUlL8XXVaw88bHj/tOXtef6fuX/e8/zRkbNGNp6/SvP89qgG0TlRF69fvK5yLac6e1SHyJ+jQF728L9L0/L7heuxLFYptWRkXUa1H/XwZeOO7Ef+nNjreFz5M7cmx4Fgb+Nhk1WZ+VS+5eny8VZwZIO3ps8/HNkzslgv3PP80RduI39ObIlxFgQgMDMEkD9nxjpiFhCAwHQLvDB/Jpck23o+0LXU0bXU2bB1vb61fm5Njr3vQ11LHR0LHUtXy7j82OLmIlsvWx2Lp3tc/J1zqrN9wr1j8mJKWorNHE2N7IwyyOl6Vnp6Vrq6Fk/70bPS1bHUMXhgEBDvn1qa8tDHTsdCx/ihcUC8f0JhvJmj2dOWlk/3ECIJFi4WP6z4YdWvv7gFuo76hy/y5yiQPz8saSn2DPEwsNHXsXjKHhgfQGwqdPJzfLZ82maOpgmF8aGpT/Ss9aJzoospReZOZm6BrqllKYa2hqb2JtZuVuEZYXbPFlfXUsc1wKWwseBxzCOdZ6tv72ufXZX150H/vAf5c2Iv5vHlz9ocp0dOtl62UdmRNu7WJg+Nn77crHR5ryY7L9u0stTIrAhjO2MdC20DG/2IzPDUshQ7bzveq1vPSjcqK7Kkufi/y22h4xPuXdhQ8OfVfOEe5M+JLTHOggAEZoYA8ufMWEfMAgIQmG6BF+ZP7zCvA0cljp89JqMos2z5d3pWeqGpT8SOiJ2SPXXxutyeA3usXC0feDz47ofvTsudPnvpzLnL52Jyo8/Kn33gYVNEIX7z3TcLvlzwJCXk439/vGHr+svK8qvWrRIREz4rf2be/Hknzh93euS09+Ae6QtSB44fOHf5rK3ng6XfL12zYc3FGxeF9ggdOnHwqsrVxV8v/m75dzb/d+l15J+/yJ8jFC/bKG4u3ndo77c/fHv20hnF21fcg9wC4wPXb1l3Vv7M5Zvy23dvu6V1S9NE4+NPPrZytSxoyP/2h28PHD/wKNrv088/3bl3512dO1fuXFm7ce35y+fOXDx9/vI5nzDvvQf37Dmw55TMKclTh8Mzwl829PP7kT8n9mIeV/5ML0+7pnLtwlVZWy/bDVs37D+8X+KoxMLFC3ft23X6orTkqcPeYV6Pov1u3Ltx9Y7iZqHNV+8qOj12PHD8wNHTR8/Kn/1l7c8WzhY+4d7rtqw7fVH64PEDJ86diMyMGONHvpE/J7bEOAsCEJgZAsifM2MdMQsIQGC6BV6YP90CXWWvyPhFEdJIaQePH9Q219YwUt8hssM3wierMvPCVdn7plo79wi99957/nH+ycVJXk88k4oSj54+Yu5kVkQhzp0/958f/DMoIfDdv7x74tzxDHK62OH9pg4mYamh77zzzpoNq/Wt9ZYsXbL/8P71W9av2/Sroa3hvE/niR8VTy5OOiVzasWqFYp3rny3/Lu9B/emlac9H2lKqSXIn6NA/vywpKX4gqLsoq8XSRyTOH/5nMtj50tKlz6c82FgQkBubY6Wiebufbtu37/97rvvmjw0LqjPn//Z/F37dvmG+7z/z/dlFGUSiAki4iLLln8XkRGeVJToHuSmqqf6/z74fxu2rt93aO/G7RvtvG2JTYV/HnfUHuTPib2Yx5U/U8tS5K5dOCVz0tLFYrPQZhN7ExN7kwVfLlC6dyMgzl/mynkHgr1HiLvMFZnTctI/rPh+/+F9RnZG5y6f8w71Si5OOnzykKmD6SmZU5/M/0T8iNh24e1Lli4xfGBQUJ8/ajVf+BD5c2JLjLMgAIGZIYD8OTPWEbOAAASmW+Bl+VPumlxgfEBuTc4RqSP3ze4rayhvEdriE+6dX5cnrySvbXZ/h8iOv/7tr/5xj5OLk7zDvFNKko+ePmpkZ5hXl/vJvE9G8ucpmZO5NTkHjh3wCHGPzY155513Vq9bZfBAf82GNcoayne07xjaGj70tpv36bwDxw+kk9KkLkj99MtPineuLPvxu32H9mWQ0kf9wxf5cxTICx+GpobeN71/Tv7sN999ffXu1SNSku//8/3HsY+IjYW2Hg9279t1R/vOX/76FyNbw8yKjHmfznuaPyN8Pprz0XWVa6mlKXsO7Fn247LIzIiEwni3IDc1fdUPP/pwz4E9d7Tv6FjoPEkJKaa8/iuRkT8n9mKecP4UERP2Cfe2cLH48qsvb2neDEkOlr0qa/DAQPaq7A6R7be1bq1Zv1riqISJvfFZ+bMeIR6JxISDJw7+f/beAyyu607cfrbGifNPsruxs47jOI7X38ZOceKSjS3LdtwlW1ZBliyrICRUABUkVBFCIIEQEh1EB9E7ovfeOwwDw8AAMzBM773fmc/W3SVEEqNhuNPQ7zx69Mzce9p9f+dyeLnlhCWFbdu17amfPeV6wvViwEWfoEvFjUV42v3v/XroMAP/NC/EUAoIAIG1QQD8c23EEY4CCAABaxN4qH/mVud84fSFu5eb703f1/78p5D4W0UNhRu3bHA+6uwT5PP+J+/fiLkRnxv/+9d+f8Tz8BHPw+5n3NvH246eOvLex+9ejwr8xS+ffeYXz5S3l/3k335y6ITrEGXwm4Pf5FTnNA03/ujHP3rv43cjUiLefv9t78CLnhdPnr1yJiE34cX/fhG9Unr45OG333vrwrXzf1735voP3ilsKLzvF1/wz/uAPPh1nDnmHeh9+OShc35n//DaH875nc2uyHrng3c+2fRJbObtDVs27HHdHZMR89JvXnLzOnrsnMczzz6zZeeWwvqCX77wS+/Ai4Pk766Rrnv/ba/LXtt2bXP3cv/2mcAtOzbv2LvD/YybT9ClronOBxt9cAv4p3kn84r8s4vYefLiCdcTrrGZsdt2bS2oy7+defu3r/728g2fys6K4+eP34wNPnzi0Javt1y4ev7Nt9/csnNzeHLY1p1bNmz+zOkbp//6zX/dir/17ZPb6/66bo/rHq/LXuHJ4f2zJj3fS2CNg3+aF2IoBQSAwNogAP65NuIIRwEEgIC1CTzUP3umukMSbjkf3ecbfNk3+PLd5uLh+aHkgqTv7uJz2+8f4lfXX4ujjqSXpjnt2rZ9z/b0krQR6nB2ZdbnWzf6h/id8fXy9PZsH2vzOOuekBOPWxiJTotqHGroJfW4e7kFRgY0DjX43fLbd3iv6/GDCbnx1V1VZ/3OxqRHD88NJeYmXA31L24sCoi4tnnn5tuZMfeJDfjnfUAe8pU5nlWeeezcsa/2bD96+mhZWymePlpYX7DTecdO551+t/xKW0o6Jzr8Qq58te+r4NhgT++ToYmhzSNNXpe9sioyxxj49rG20MTQrbu2Ou12KmooGqQMZJZlHPQ48NXe7bGZt4cogw9p9IEVYsE/zTuZV+Sfg5SB1KKUhJz4io7ysKTvgljRUe4deDG7MquD0J5SmFzeXpZ2947zUefj549fDLh4NexqQX3+lZu+B48dPOd37u333g5NDB1njiUVJG3dtXXfkX3ZFVkm3nwL/mlefKEUEAACa4YA+OeaCSUcCBAAAlYl8FD/JLDG+2f6qroqW0db+qZ70aUFcdSR+v66ys6KXlIPusDDGANf2lpS3l6GvjBzeH6ooqO8dbSlk9DRPt6Gp422jbX2z/SNM8f6pntxCyN4+mgbvrVnsnucOdZL6qnoKK/rqx2hDo8u4DrG2/ume8eZY/0zfV3ETtzCSM9Ud1lbaSu+5T7VAf+8D8hDv44x8M0jzcWNRc0jTYtrqNb11xbU5feR7i3UwRrvnuy621zcP9PXQWjvJfWgURgkD6BLcfTP9N1tKq7urkJjPTw3VNNbU9FRPkj5LoMp/8A/zTuTV+SfYwz8wGx//0zfyPxwL6kHtzAyMj/cOdHx7U3veProwGw/jjoySB6o6qpqGKzvnuzuJHTU9FYfOuG69estHmfcP9v8WXJBEoE1jqOOlLWXVXVVmi6f4J/mxRdKAQEgsGYIgH+umVDCgQABIGBVAsv5pymCYZM84J82wW5Go+Cf5p3JK/JPM+LSN90bkRJx6ITrAY8DAeHX2sZazagELQL335oXYigFBIDA2iAA/rk24ghHAQSAgLUJgH9am/gq2lNoFGQ+2WxbsHJB8E/zQm1p/xxnjg3M9rfgmr+7JX6qx8SlVh46eMA/zQsxlAICQGBtEAD/XBtxhKMAAkDA2gTAP61NfBXtgX+uAp7DFLW0fz7UJM3bCP7pMKMKOgoEgIAFCIB/WgAqVAkEgMBjQAD804GCDP7pQMEyu6vgn2ajg4JAAAgAAWsSAP+0Jm1oCwgAgbVDAPzTgWIJ/ulAwTK7q+CfZqODgkAACAABaxIA/7QmbWgLCACBtUMA/NOBYgn+6UDBMrur4J9mo4OCQAAIAAFrEgD/tCZtaAsIAIG1QwD804FiCf7pQMEyu6vgn2ajg4JAAAgAAWsSAP+0Jm1oCwgAgbVDAPzTgWIJ/ulAwTK7q+CfZqODgkAACAABaxIA/7QmbWgLCACBtUMA/NOBYgn+6UDBMrur4J9mo4OCQAAIAAFrEgD/tCZtaAsIAIG1QwD804FiCf7pQMEyu6vgn2ajg4JAAAgAAWsSAP+0Jm1oCwgAgbVDAPzTgWIJ/ulAwTK7q+CfZqODgkAACAABaxIA/7QmbWgLCACBtUMA/NOBYgn+6UDBMrur4J9mo4OCQAAIAAFrEgD/tCZtaAsIAIG1QwD804FiCf7pQMEyu6vgn2ajg4JAAAgAAWsSAP+0Jm1oCwgAgbVDgCVeqJ8oHqT24uhDDvGvjVQzTh/Q6FRrJwYmH4lcLSNxJ00M0wjNxgFtIdVUj+UK5VyTjw8yfkegdbKserxwhDZoYqBtmG1ooa8CnzNAaYHIAQEgAAQeQwLgn49h0OGQgQAQwIAAT8qqwmendAYld1x3iH85fVEE+oBWp8bg4B2tCo6EXo5LNyVMcc3+PulHYhqumJLZ9DzR9ZcDCk/ENvmZUiSpPbB2PE+sFDgaZhv3d4DS4jjnY2B6d8g4vd/GyKB5IAAEgIAtCIB/2oI6tAkEgIDjE9Ab9DpEq0U0jvJPh2j1esTxwZtzBKYHa546d/7Cuda2FrlShmFkBwb7Dx85VFpeolTJTalWh+j0Br05h/oYl0H0iCls7STP43w+PsaDFA4dCACB7wiAf8I4AAJAAAgAASDwHQG9Xp91L/n5+TGZTKygiESikpKSQ4cOeXl5iUQirKqFeoAAEAACQAAIOCIB8E9HjBr0GQgAASAABLAnIJfLb9y4ERYWFh4e3tjYqFQqMWljZmbm1q1btbW1ubm5RUVFmNQJlQABIAAEgAAQcFAC4J8OGjjoNhAAAkAACGBJQK/XBwYGlpSUeHh4JCcn37p1i8fjrb4BgUCQk5Nz/fr1uLi47OzswMBAnU63+mqhBiAABIAAEAACDkoA/NNBAwfdBgJAAAgAASwJzM/PZ2RkDA0NHT58eGBgIDc3t7a2dpWXQPV6PY1Gi4qKCgkJ8fPzw+FwycnJ0dHRWPYb6gICQAAIAAEg4FAEwD8dKlzQWSAABIAAELAAAb1ef/bs2fr6eq1WKxAItFptVlZWbGzsKh/XlEqlGRkZaWlpUqlULBZrtdr6+vqoqCiFQmGBg4AqgQAQAAJAAAg4AAHwTwcIEnQRCAABIAAELEqAQqG0t7fzeDwEQcRisU6nQxDkzp07TU1NGo3G7Ka5XG5qamppaalGo5FKpeidt5GRkTdv3jS7TigIBIAAEAACQMChCYB/OnT4oPNAAAgAASCwWgJarTYkJKSystJgMDCZzIMHD5JIJIPBkJKSkp2dLRaLzWtAo9Hk5OSgqjkyMuLn50cmkw0GQ0tLS2ZmJpfLNa9aKAUEgAAQAAJAwKEJgH86dPig80AACAABILBaAjKZbGZmhs/nGwwGoVAYGxvLYDDQSmtra+fn5/V6c5bi1Ol0/f39dXV1BoOBQqHk5+ez2Wx0lZfS0tLm5ubV9hvKAwEgAASAABBwQALgnw4YNOgyEAACQAAIWIaAXq9XKBQIgmBbPYIgarXaPI/FtidQGxAAAkAACAAB2xIA/7Qtf2gdCAABIAAE7IiARCIpKCjA/OZYgUCAx+OlUqkdHSp0BQgAASAABICALQiAf9qCOrQJBIAAEAACdkmAxWIdO3ZsZmYG294RicSYmJiFhQVsq4XagAAQAAJAAAg4HAHwT4cLGXQYCAABIAAELEVALBbn5ORwOBxsG5icnIyNjaXRaNhWC7UBASAABIAAEHA4AuCfDhcy6DAQAAJAAAhYigCCIDKZDF0oBcM21Gq1UCjUarUY1glVAQEgAASAABBwRALgn44YNegzEAACQAAIWISAWq2enJxUKBTY1i6TyahUqlKpxLZaqA0IAAEgAASAgMMRAP90uJBBh4EAEAACQMBSBJhMpqurK7r+J4ZtjI2NBQcHz83NYVgnVAUEgAAQAAJAwBEJgH86YtSgz0AACAABIGARAmKxODMzE12oE8MG6HR6fX09usQohtVCVUAACAABIAAEHI4A+KfDhQw6DASAABAAApYigCCIJR7U1Gq1crkc88dKLUUB6gUCQAAIAAEgYDEC4J8WQwsVAwEgAASAgKMREIlEqampLBYL244zmczm5maBQIBttVAbEAACQAAIAAGHIwD+6XAhgw4DASAABICApQhwOJxLly5h/qAmrL9iqYBBvUAACAABIOBoBMA/HS1i0F8gAASAABCwGAGVSoXD4WQyGbYtMBiMpqYmuP6JLVWoDQgAASAABByRAPinI0YN+gwEgAAQAAIWIYAgiFgsxvxBTa1Wa4llRS2CACoFAkAACAABIGBJAuCflqQLdQMBIAAEgIBDEZBKpaWlpZi/qFYkEk1MTGB+WdWh0EJngQAQAAJAAAh8RwD8E8YBEAACQAAIAIH/JcBgMFxcXDBf/3NiYiIiIoJKpQJoIAAEgAAQAAKPOQHwz8d8AMDhAwEgAASAwN8ISKXSyspKzK9/8ni8gYEBsVj8t5bgExAAAkAACACBx5IA+OdjGXY4aCAABIAAEHgYAZ1Ox+PxNBrNw3aav02j0UgkEswfKzW/Q1ASCAABIAAEgICNCIB/2gg8NAsEgAAQAAL2R0AgEMTExDAYDGy7RqPRqqureTwettVCbUAACAABIAAEHI4A+KfDhQw6DASAABAAApYiwOfzg4ODFxYWsG1gbm6uoKCAzWZjWy3UBgSAABAAAkDA4QiAfzpcyKDDQAAIAAEgYCkCGo1mfn5epVJh24BMJqNSqUqlEttqoTYgAASAABAAAg5HAPzT4UIGHQYCQAAIrJYAn8+vra1dfMuOXq9vaGjIzs6Wy+WrrfrvyysUiubm5pKSEhaLtbintbWVSCTa58OQSqVyaGhIKpUu9haTDwiCqNVqBEEwqQ0qAQJAAAgAASDguATAPx03dtBzIAAEgMCKCfT394eFhWVnZ+fk5PB4PJlMVldXF3IvJSUlSaXS0NDQ4ODgqKio6OjoxMTEGzduVFVVabVaMpkcGhqakZFRVlbGYDCKi4tv3bpVW1vLYDBiY2PDw8OjoqISExNJJBIej09JSUlOTi4qKlpYWKipqQkJCQkMDCwqKhIIBAaDob6+Pj09PTY2tqGhQSKRrPgYLFmAw+FcunRpbm4O20a4XG5vby+8/xZbqlAbEAACQAAIOCIB8E9HjBr02SIEeDxedXV1LnYJnvWySJzWbqVhYWESiUSpVF64cOHSpUtdXV1qtTo5Odnb21skErHZbE9Pz7i4OBaLRaVSo6Ojb926xefz8Xi8p6dneXm5XC5vaWnx8/NLTEzk8/nNzc3Hjx/v7OzkcrkxMTGXL19uamoqLy9PSEhITU3t7OyUSCQMBiM5OTkkJCQhIWFqakqtVuv1+t/+9rfR0dGXLl3aunVrXFxcYmLipk2buFzuoUOH0tLSioqKrly5kp2d7ebmdvHixfab23fQAAAgAElEQVT29q6urg0bNty5cycoKGjPnj2JiYk3b95MSUkpKiq6cOFCaWmpTqej0WhFRUWBgYEpKSlMJlOn0+Hx+Pz8/NTU1IKCAoFAUFZW5uXlVVRUJJPJFhYWfHx8MjMzlUplbm6up6cnh8MxGAw1NTUnT57Mzs5Wq9WZmZkXL15ks9l8Pt/Hx+fKlSudnZ0ikSgtLS04OJjJZBIIhOPHjycnJ7NYLAqFEh0dffv2bRaL1d7efurUqdbWVqVS2dTUdPny5Tt37vD5/IqKitOnT09MTDCZzIMHD2K+/ieJREpMTKTT6Wt3/MKRPb4EOBxOTU0NVpNnSUkJ5n8AenxjA0cOBOySAPinXYYFOmULAhKJZGhoqAOjFBwcTCKR9Hq9LQ4F2nRIAh988AGbzdZoNEVFRXfv3p2entZqte3t7cXFxQqFQiwW5+TktLS0iMViPp/f2NhYU1OD2lpubi4Oh1Or1ZOTk2VlZW1tbTKZbHJyMjs7m0QiSaXSpqamkpISIpGIw+Hi4uI8PT0LCws5HI5AIKitrQ0ICDh58mR3d7dUKkUQ5LXXXhOJRA0NDcHBwSKRSKvVvvnmmzQa7Uc/+tHhw4cPHDjw8ccfBwUFnT17dnBwUK/Xd3R0HDlyRK/XT01NXblyJTAwcOPGjbt37z58+PC7774bERGhVCrHx8cDAwMvXLhQVVUlFApVKhWqyuHh4WhvR0ZG8vPzh4aGVCqVQCC4e/dud3e3RqPp6+vLzc1Fr5GOjY3l5OT09vZqtdru7u6ioiKJRCKTyUpKSkpLS6enpxUKRWdnZ3V1tUgkotPp2dnZ39qmWCzm8XiNjY3Nzc1isZhEIuXm5k5OTmo0momJiZKSks7OTplMhsPh8vLy6HS6QqHo7e3F/KqsRCJBe2hvQ1On0ykUCpVKhf6w0uv1arVaKBTyeDyFQqHVatVqtVar1ev1Go0G/QsFeggqlQq9gxototVq0UVrtFqtUqnU6/Xow656vR7dhWaj0+kymWxxeRsEQRQKBZrf3shAf0wnwOFw2tvbW1tbO1admpubU1NT+/r6TG8dcgIBIOBwBMA/HS5k0GFLEUAQRKlUyjFKycnJ09PT4J+WitZarLerqwvz1948yIlMJjc0NNTW1kZGRtLpdJVKRSAQ6uvrAwMDfXx8hEIh6p9NTU3x8fHaewn1z2effTY5OTk7O/vMmTMJCQnnzp0bHx83GAxtbW179uyRSCTfOvDFixevX7++e/fuiIgI9NJlfHx8enr6pUuXsrKyhoaG0OdLs7KysrOzm5qaxsfHH5NX8mg0GqlUaj+PvOr1eoVCwWQyOzs7/f39s7KylEqlQCCYmprKyMjw8/OrvJfKy8tzcnLq6+unpqaqqqqysrLm5uYkEgmNRktPT+/q6pqbm+PxeImJiXV1da2trVwut7m5+fbt22NjY76+vmq1mkqlVldX19bWUqlUJpMZExNz7ty50tJSKpUqFotpNFpERER4eDiRSET/+PLgiIUt9k9AJpPR6XSRSLT6+ZPP51dWVoJ/2n/QoYdAYDUEwD9XQw/KrikC4J9rKpwOeDATExOL14Us3X2JREIgEGQy2WJDRCKxv79fpVJt3rxZIpF0d3fn5ORotVqdTrd161YOh7Nr166QkJCmpqbz58/n5uaiV/gNBsPg4KCLi0t9fX10dLSTk1NcXJyPj09MTExdXd3p06eLi4unpqZwONzSK4okEonBYDxWL+Oh0+llZWUkEglBEKFQSCaTxWKxTqcTCoVzc3NcLhdBEC6XSyaT5XK5SqWiUqmzs7NCoRBBEAaDMTMzo9FolEolhULhcDioxy4sLMzMzBgMBpVKNTs7y+Px9Hq9UCikUCjz8/MGg0Eul5PJZIFAoNFoGAwGmUxG84jFYiKRWFBQcPz48aCgoLq6uunpaR6Pd/36dWdn5/z8/IGBARqNlpiY6OzsXFBQcObMmQMHDtTV1QUEBAQHB+fl5fn4+FRUVJSWlm7atGlycvKzzz67efMmjUa7efPmrVu3urq6jh079tprrxEIhHPnzmVlZaE3Y09OThKJxI6OjrS0NGdn5/T0dC6Xi8fjy8vLz5w5c+zYsZaWFi6Xi15BXVhYQI+Ux+PNzMzIZDIUHYVC4fF4CIKwWKyZmRn1vUShUGZmZgQCgV6vp9PpKBaNRjMzM8Nms5F7iUajzc/Po+JNJpP5fD6CICKRaG5ujk6nIwgikUjIZLJQKFSr1TQabWFhQa1WL54g8MEIAfBPI3BgFxAAAg8SAP98kAlseUwJgH8+poG3m8Pet28fj8ezeXeqq6s1Gg2LxUJlCUGQ6upqlUo1OTk5NDQ0MjKCx+PpdPrw8LBQKDQYDHNzc+j9cmlpaRcuXOjs7JydnR0ZGRkaGsLhcFwu1+ZHZA8d4HK5FRUVbW1tarWaSCQWFRXNzMyoVKqJiYnS0tLBwUG1Wj04OFhYWMhgMNBn0fPz8wkEglarbW1tzcvLk0gkPB7v7t27/f39qBfV1tbm5uYaDAY+n5+XlzcyMqLT6YhEYnFxcUVFhcFgoNPpRUVF4+PjUqm0tbW1qKhoeHgYQZDp6emMjIyrV696eHiEhISgdyBPTU1duHDh/Pnz6I3QMpksMTHR399/YWEh+F5CFfrMmTOXLl06dOhQfn5+Tk7Os88+i8fjnZycent79Xr90aNHCwsL1Wp1W1vbyy+/3Nzc/Mknn2RlZSUlJX311VcEAkEsFjc0NNy5c+fs2bNxcXFsNpvD4VRWVl65cuXgwYMhISGDg4NyuZzD4dTV1fX19SmVyuHh4by8PBqNhqIrKSkZGRlRq9WdnZ25ublisVgkEpWUlOTl5Y2PjyMI0tTUhGIRi8V5eXnd3d2oozY2NpaXl+t0OhaLVVhYODo6it6yXlpa2tzcrFarZ2dni4qKJicnRSJRY2NjbW2tSCSyh8Fj/30A/7T/GEEPgYBdEQD/tKtwQGdsSQD805b0oW2D4fr16/bwflSFQqHX63U63eLFWLlcjt5JrtPplEolgiDos3zoBcy5ubnQ0ND4+PiwsLCKigpUStFLWI/VFU7jQ1ir1YpEIvR6pkwmY7PZCoUCQRCZTMbhcMRiMYIgYrGYxWKpVCqNRsPlclkslkwm0+v1AoGAyWSiT1Gy2Ww0s8Fg4PF4TCbTYDBoNBomkymRSPR6PVo5+sYmlUrFYrHQ+34FAgGbzUavQsvlcgaDMT8/Pzw8fOfOnfj4eBwOJxaL5+fnW1pa4uLibt++3dDQEBoaGhMTI5FIEhISSkpKUIk9f/782bNnXVxcQkJCIiMjn3vuOTwe7+zszGAwUP9saGjQ6/UUCuXll1+ur69ft25dZGTktWvXtm3b1tnZmZ6eHh4enpycPDAwwGKxBAJBW1tbREREXl7ezMwMelOuTqdTq9U8Hk8kEqGXJZlMpkqlQnGhR4FeC0WxaLVaNpvNZDKlUqler+fz+SgWrVbLZDLRShAE4fP5HA4HHbosFksikSzyR6+FKhQKlLlWq+Xz+TweT6vVGg8r7EUJgH/CSAACQGBFBMA/V4QLMq9lAuCfazm6jnBs6F2FjtDTv+ujSqXq7++/c+dOQ0MDenvn3+2GL3ZMQKPR8Pn8qampmZkZ9J5euVzOYrFGR0e7urpu3bqF+mdiYuK3Lyhe9M+ioiJvb+9Tp06dPHly06ZNRCJx//79TCZTr9dHR0efO3cOfT3VK6+8Mjk5eebMGU9PTw8PDzc3t4GBgeLi4oWFBS6Xi17ClclkU1NTc3NzIpHIrp6Wl8lkqPTacfTsqGvgn3YUDOgKEHAEAuCfjhAl6KNVCIB/WgUzNLIsgfHx8cVLjstmsssdGo1GLBbDW0ztMjiP7tTSa91obvTyNf5eUqvVBAKBTCZrNBo6nd7d3S0QCLq6uvLy8rKystBlbxobG9E3S+FwuNzc3JycnLi4uN/97ncqlQqHw2VnZ+fl5aFL/qBXdBf7hCAI+nLdxS128oHNZt/30LKddMw+uwH+aZ9xgV4BAbslAP5pt6GBjlmbAPintYlDe39PwMXFxR6e//z7TsG3x5eA7l4yGAw6nQ69lXpRF9F1WdAlWNAVVtCrlyEhIYcPH87Pz9+2bdu3T3WiZVUq1eIiLo5CU6VSCYVCuP/WxHiBf5oICrIBASCAErCIf2o0Gg6HI5VKMaFcV1f37QrsDnpZABMCUIl1CNBotISEhECMkpeXl5+fXxCk/yNQWlr6mKy0YfZwXbduHYvFMrs4FAQCNidAoVDGx8eZTCb6MiSb9wc6YB0CFAolLi4uICBg9fPntWvXLly44OPjEwTp/wig79OyTiihFSBgHQIW8U+1Wo2uBIXJMeTk5Pj7+8Nr0DGBCZUYIbC45sEsJKwJtLa25ubmonfoGQnBY75rdnYWrrc85mMADt9OCIhEIgqFolAo7KQ/dt4NoVA4NjY2OTmJ9dQB9c0ODQ3FxcXZ+QCA7gGBlRIA/1wpMci/Zglge//t6pfhXks14PH4/Px88E/jJ4811/803hPYCwQecwIMBqOvrw/WXzFxGGB4/+1amvgwORYqlZqQkGBiICAbEHAUAuCfjhIp6KfFCYB/YjJZPrQS8E9Thu+mTZvQZTNMyQx5gAAQsBwBHo9HJBJlMpnlmlhLNYN/PnTiw2Qj+OdaOlPgWBYJgH8uooAPjzsB6/unTCabm5trb28fxiINDAz09fXxeDxM5jxsKwH/NOXsCg0NRZdnNCUz5AECQMByBBbftGS5JtZSzeCf2M6YS2sD/1xLZwocyyIB8M9FFPDhcSdgff+USCS9vb1JSUkjWKSOjo6UlJT5+fmlU5edfAb/NOXsksvldrUEoil9hjxAYE0SEIlEs7Oz8MiAicEF/7TcVAv+aeIghGyORQD807HiBb21IAFb+Wdubq4Ei0SlUtPS0igUiuUmQrNrBv80ZeBevnwZnjczBRTkAQKWJrCwsNDW1iYQCCzd0NqoH/zT7MnxkQXBP9fGOQJHcR8B8M/7gMDXx5eArfwzLy/vkTOQKRloNBr4p0MP33feeQfWX3HoCELn1wwBtVotFovhfdQmBhT805Q52rw84J8mDkLI5lgEwD8dK17QWwsSAP80b3Y0pRRc/zRl4H744YdsNtuUnJAHCAABIGA/BMA/TZkHzcsD/mk/4xx6giEBi/gnjUZzc3P72c9+9p9YpKeffvqpp57CoiaowwYEXnzxxaioKAyHrOWqAv80b3Y0pRT4pynjVqPRmJIN8gABIGBpAvPz801NTTwez9INrY36wT9NmQfNywP+uTbOETiK+whYxD9VKtXCwgKfz0cgPfYEhEJhRETEfcPOPr+Cf5o3O5pSCvzTlDFPIpHgfj9TQEEeIGBpAvPz883NzXw+39INrY36wT9NmQfNywP+uTbOETiK+whYxD/VajWdTocXadzH+vH8KhKJwD+Xm3XQ99/C85+P56nx4FGvW7cOnv98EAtsAQLWJyASiSgUikKhsH7Tjtgi+Odys/zqt4N/OuIZAX1+JAHwz0ciggyrIgD+aWT6Qf0Tq/ffzs/P37lzZ3Z2FouX6f5vHTKZzEj/Td8F1z9NOYsiIiJg/U9TQEEeIGBpAnq9HkEQS7eyZuoH/zR9NlxpTvDPNXOawIEsJQD+uZQGfMaeAPinkclGIpF0dXUFBgbmY5EyMjICAgLS0tKwqOy7OkpKSohEopH+m74L/NOUU0ulUsH6n6aAgjxAwNIEuFzu+Pi4VCq1dENro37wT9Nnw5XmBP9cG+cIHMV9BMA/7wMCXzEmAP5pZLKRSCTd3d3R0dE99pfa2toyMzNbW1uN9N/0XeCfppxXFy5cEAqFpuSEPEAACFiUAJlMrqmp4XK5Fm1lzVQO/mn6bLjSnOCfa+Y0gQNZSgD8cykN+Iw9AfBPI5MNts9/GmnIjF08Hq+2thb8E/tTYvkaP/30U1h/ZXk8sAcIWI+ASqUSCoXwPjATiYN/mjHJmlgE/NPEQQjZHIsA+Kdjxcvxegv+aWSOAf90vAFtyR7D+28tSRfqBgIrIKDVahUKBTwCaiIyTPxTKpWKMU1Yvb/AyCRuhV3gnyYOQsjmWATAPx0rXo7XW/BPI/MT+KfjDWjoMRAAAo8BARKJVFJSAu+jNjHUq/dPqVQ6PT09jF3q7u5msVhG5l9H2QX+aeIghGyORQD808bx0ul0ExMTLS0tbRilsbExGx/S3zcP/mlkkgP//PvB8rh/6+/vV6lUjzsFOH4gYAcEFhYWOjo6BAKBHfTFAbqwev8UiUR9fX1GpssV7ZJIJCkpKQQCYUWl7DMz+KcDnADQxZUTsJl/ajQamUwmxSjJ5XIHfW+kVCo9duzYBx984IJF2rFjh4eHx8qHgQVLgH8amdLAPy048hyw6g8//BCe/3TAuEGXgcDjTgD808hEv8pd4J+P+9m1Ro/fZv7Z09Nz+/btOCxSbGxscnKyg64TLZVKfX19S0pKMBlgFAolIiICk6qwqgT808jcA/6J1TBbG/UkJibCeg9rI5RwFI5OQKfTqVQqeP7TxDiCfxqZ6Fe5C/zTxEEI2RyLgM38MzQ0dP/+/bGxsfGrTmFhYS4uLiKRyLHQo70F/7SfqCEIolQqVzlVrKg4+Kf9RN8eesJms+H3XXsIBPQBCDCZzP7+fgf9vcL64QP/XNHUv6LM4J/WH8/QohUI2NI/4+PjdTrd6g+Sz+ffunVLIpGsvirr1wD+aX3my7UI/rl0UoT1V5YbJ5bbfu7cOVj/03J4oWYgYDqBmZmZyspKDodjepHHOSf459LZE9vP4J+P85m1ho8d/NPGwQX/tHEAljTviP7JZrM5HI5MJpuZmWGz2Ri+bh78c8nQsNJHZ2dnHo9npcagGSAABJYnoFAoeDyeRqNZPgvs+RsB8E9snXNpbeCffxtn8GkNEQD/tHEwwT9tHIAlzTucf9Lp9Ozs7IaGBolEkp6ePjIyIpFIls5bq/kM/rlkaFjpI5PJxOSWECt1F5oBAmuXgFwuZ7PZarV67R4ilkcG/rma2dZ4WfBPLEcq1GU3BMA/bRwK8E8bB2BJ8/bmn2KxeHp6uqOjo7m5eWxsTCwWy+VyAoHQ1NTU19e3sLCQn5//xRdfXL58eXZ2tr+/n0qlSqVSGo3W0dHR1NQ0Nzcnk8n4fH53dzeZTG5paSEQCLJ7qaenp6mpqb293cj1UvDPJUPDSh8pFIpWq7VSY9AMEAACyxMgEAhZWVl0On35LLDnbwTAP4075Gr2gn/+bZzBpzVEAPzTxsGUSqWXL18uLCxUY5FIJFJoaCgWNZlZx4M04f23RiYe4+8fotFoycnJp0+fPnz4sK+vL4VCGR0d9fLy2rdvn6ura3Jycnh4+Mcff/z11193dnaePn26vr6eSqXGxMS4uLhs3749MDCQQqEQicTNmzfHxsYeOnTIw8NjbGysra3N2dn51KlTGzdubG1tXa574J8PDmZLb/H09IT1Bi0NGeoHAqYQgPU/TaG0mAcT/2xtbe3EKLW1tYWEhJSUlGBUX+fExMRyc6Wlt4N/Lg4z+LCWCIB/2jia3y6A6uXl5e7unohFCg4O3rdvHxY1mVNHTEzMg2/vBP80MjkZ9086nV5ZWVlUVBQaGnry5MnOzs6oqKizZ8/29vYWFhbm5+enpqZ+/vnniYmJQqHw9OnTNTU1DQ0N7u7uJSUldXV1u3fvrqmpGR8f//LLL3NzcysqKtatW5eenn7u3Llvvvnm9u3bXl5eSUlJy3UP/NP6Pxo++eQTWP/T+tihRSDwIAGdTqdWqx+c0R7MCVsMBgMm/llfX59vlykjI6OiomK5udLS28E/4RRbkwRs6Z83btwgk8nzq054PN7b23tiYmLVNT28Ah6PZ7lJSCqVnjp16sCBA2GOn375y18+ePcg+KeRycmIf8pkMgqFkpOTc/369bNnzx49erSuri4sLOzOnTtisZjJZDIYjKKiItQ/RSLR6dOnKysrCwoKrl27RiaTJRKJt7d3QUHB6Ojojh07GAxGXV3d+vXr09PT8/LyDhw4sGnTpitXrmRkZCzXPfBPg9VTbm6uXC63erPQIBAAAvcTYLPZIyMjYrH4/h3w/WEEMPHPvr6+5eYj226nUqkDAwO26gP458NGHGxzeAK29M+dO3cGBARcX3Xy8/Pbs2ePv7//qmt6SAXe3t7JyckymcxCocb2+U8LddLEal944QXwzxVNUUb8UyQSNTc3Hz9+/OrVqzExMSdPnqyvr09ISLh582ZHR0dGRkZRUVFGRsamTZuCg4PpdDp6/bOxsdHf37+5ubmvr+/8+fNNTU3j4+P3+WdhYaG3t3doaOjVq1cPHDiwXId5PF5lZWVOTs74+Difz2exWENDQ2QyWSqVslis8fFxIpEoEAhoNNrw8DCNRpNKpTMzMzgcbnZ2ViwWz83NDQ8PczgcqVSKx+PLy8vT09OlUimdTicQCEql0mAwEAgEMplsMBjkcvns7CyRSFSpVBqNZnx8nEqlIgjC4XCIROLCwoJGo5FKpePj4wwGQ6vVMhgMMplsc1XTaBG+WMnkyRk8GSb/JknTD55BJp59kA0IAAGpXIPV+djSOZCQlEKj0YCqKQTAP5ebSVe/HfzTlBEIeRyOgC398/Tp09XV1XX2nYKCgk6dOmW5h7LAP+3nnLGr9w9JJBI8Hh8eHh4QEBAYGHjx4sW6urr29vab91JAQEBlZWVDQ8PFixd9fHxwOFx4eHhPT8/09HRiYmJ4eHhYWFh8fDz5XvL29uZwON3d3UeOHKmsrKyqqrpy5UpUVFRoaGhQUNBysyOPxyssLPTy8oqOjp6dnR0ZGfHz8ystLRWJRCMjI9HR0cnJyXNzc21tbf7+/h0dHQKBoKioKCgoqKSkhMViVVdX+/v7j42NiUSisLCwU6dORUVFiUSi8vLya9eusVgsg8Fw9erVlJQUvV5PpVKTk5Nv3LjB4XCEQqG/v39ubq5KpWprawsODi4sLBQKhbOzs/7+/tXV1TKZrLi4OCAgYGJiwraDhytS1vXNF7eR72L0b98BN8v9qLEtK2gdCFiBQN8EK7dxGpNTMiqr+WZ0+gKNYYVur4EmwD+Xm0lXvx38cw2cIHAIDxKwpX/Gx8fb/2IDDQ0NFy5csNwvheCfDw5KW22xK/+Uy+UikWhmZmb4XhodHV1YWOByuRMTE8PDwwQCgcPhsNnsiYmJkZERJpM5PT3NZrNFItHs7CwOhxseHqZQKGKxWCgUEggEiUTCZrNxOByNRuNyuWNjY8PDwyMjIyQSabnZkcfjVVRUpKenDw8Pc7lcBoPR3d1NIpGkUimDwRgeHh4dHeXxeHNzcz09PfPz8xKJZHJysq+vb2pqCu35t8bLZDKlUung4GBhYWFaWppUKp2bmxsaGlIoFAaDYWhoaHJy0mAwSKVSIpGIw+GUSqVarR4aGpqZmdHpdAwGA72gqlarxWLx0NAQlUrVarU4HC4lJcXm/knjSO+2UVrx/M4JESb/Ptqyn8OF9T9t9QMA2nV4ApXdlNxmSgdBuPrzsbRzrqAezxFIHR6KVQ4A/HO5mXT128E/rTKEoRFrEwD/fARx8M9HAFqyG+6/XelMY+T+25VWhXl+e37+U6vVisVilUq1ZPTZ4CONI63spo4vqEgsHSb/vGPqRdLvzBwSEAACZhCo7KZU9TOnmNrVn4/dk+K6ARpfYuMfMmZAsEkR8E/Mp+DFCsE/bTKkoVFLEwD/fARh8M9HAFqyG/xzccIw8QP455Lhs4KPYrEYveq7gjIWyIq5fx44E8YXSizQU6gSCDwWBMA/bRVm8E8TJ30zsoF/2mpUQ7sWJQD++Qi84J+PALRkN/jnSqcW8M8lw2cFH8lkclhYWHd39wrKWCAr5v75pzfeYjK/ezIWEhAAAmYQAP80AxomRcA/Vzr7m54f/BOTIQqV2BsB8M9HRMR+/BNBEIlEIhKJBAKBSCRSqVQCgUAoFGo0GoPBIBQK+Xy+QCCQSqUIgshkMvTZPzSDXq9XKpVoBolEotPpNBqNQCBAt4hEIrVardFoxGIxn8+Xy+V6vV6lUqF1SqVSEx/TBf80fUZBc4J/PuL0W2a3WCweHh5mMpnL7LfSZsz9868bvuJwuFbqPTQDBNYcAfBPW4UU/HOls7/p+cE/bTWqoV2LEgD/fARe+/FPLpd79erVGzdu+Pr6nj17tqys7Pz58x4eHiMjIwwG4+jRo76+vhcuXIiOjhYIBCkpKUFBQVevXj1+/Hhzc7NYLM7Pzz9+/Pj58+eDg4Onpqba2tpOnjzp6+t75syZ8+fPt7e3d3Z2Xrly5fTp06mpqVwut76+3tPT09XV9fbt22w2+xGY7u0G/zR9RgH/NGVELZcHQRCFQmHzpUow988TAdlCsaWWeloOJmwHAmuGAPinrUJpz/7J5XJnZ2enp6c5HA76Wr6VztSw/qetxhW0u4YJgH8+Irj2458UCmX9+vWRkZG5ubnPP//84cOHr169+vLLL9+9ezczM/M3v/mNn5/fgQMHtm/fTqPR3N3djx8/npiY+Pzzz3/zzTeTk5P79+///PPP9+/fv2XLltzc3H379n388cfl5eX79u176aWXgoOD3d3dN2zY4O7uvmnTprt378bExLzyyisbNmyIiIgA/1zpdGVifrj++YjTb5ndQqGwt7d3YWFhmf1W2oy5f3rduiuUyK3Ue2gGCKw5AuCftgqpPftnW1ubj49PYGDg0NBQZmYmk8k0cYJezAb+aatxBe2uYQLgn48Irr355+DgIIfDee6555ydndva2t5///2ioqKUlJQNGzZcvnzZ1dV127ZtNBrt5MmTd+7cmZ6e/vWvf/3mm29OTk66ubnt3r37wIEDX375ZURExCuvvLJ7926tVuvr6/vtdctLly7t2LHj0KFDqampnp6eqH++/fbbmZmZNBoNvcX3EaQMBrj+uThdmf8RBcYAACAASURBVPgB/PORg+qhGebn5+Pj4wcHBx+612obMffPjzZ9A/ffWi180NDaIwD+aauYWs0/ORzOwMBAS0tLT08PlUqVSCTj4+Mt99Lo6KhAICCRSCMjIz09PS0tLX19fTMzM5GRkZ999tmpU6cGBgZQ/+RyuR0dHS0tLb29vZ2dnRwOx/iUDf5pq3EF7a5hAuCfjwiuvfnn2NgYl8t94YUXPDw8+vr6Pv3006Kiop07dz777LP9/f3nzp1D/dPT07OwsHBubu7FF1988803m5ubf//73x87diwoKGjr1q3JycmfffbZt8JJp9M9PT1/9atfXbp0aefOnWfOnKmrq4uMjGxvb4+JiXnvvfdaW1sfAWjJbvBP43PYg3vBP5cMnxV85HA41dXV09PTKyhjgayY++eJs1cWWEKJUm+hf2yhii9RIYjeAjCgSiBgewIY+ucQWd5F4DMFagudjCI5QuXI2YI1cr+DdfyTy+VWVlb6+PgEBwdfu3attLR0aGjI39//2rVrN27c8PPza2trS0tLO3XqVMS95O/v39zc7Ovr+/HHH589e7anp+fEiRMzMzOtra1eXl6xsbEBAQHOzs54PP7B2XnpFvBP25/b0IM1RwD88yEhbW9vT0pKQm86tVv/PH78+KJ/BgQEPPnkkyEhId8+Drp582YymXyff/b09Pz5z3/+7LPPTp8+vX379tra2tTU1C+++OLcuXPr16//1a9+FRkZefny5S+++GL//v2urq7d3d3gn0unHwt9Bv98yOlnwiatViuRSNRqtQl5LZgFc//sGWfMsDRkrs5C/3onBeNkvlqLWBAKVA0EbEcAQ/+cZGgn6OoZttZCJyOJqakdYPYSbPwSNaxiZR3/nJ2dvXHjRlBQUG9vb3V1dUtLS3Jy8p49e0pKSurr648cORIZGRkUFPTRRx8VFRX19/f7+voODg6mpaU5OTllZmYSiUQnJyccDuft7X3s2LGJiYng4OC33nprYGDA+BQP/onVOIF6gMAiAbvwT5VKxePxlEqlXv+/f5hnsVhsNhtB/vZ7kkwmY7FYWq0WQRAajbZ4AHq9Hn1NK5pZr9fL5XI2my2T/d1rPCQSiVAoROvX6XTCe2mxOYPBoFQqRSIR+kYTLy+v//7v/8bj8QaDwX78UyQSZWVlcblchUIRFxfX0NDAYDDy8vImJyc5HE5ERERSUlJTU1NhYSGfz29sbJycnBSLxQkJCWlpaQKBoLy8PDY2tqqqqrq6uru7OzQ09PLly3FxcVu2bHnxxRcLCgqmpqbS0tIiIyOrq6vFYvHQ0FB2djaVSl1E/cgPcP3T+Bz24F7wz0cOqodmEAgE7e3t8/PzD91rtY2Y+yeJpbPov7Yx3jCJq9borIYIGgIC1iSAoX9a9EwksXQTNE1J50I77m+/zFgT1H1tiUSi8PDwtLQ0nU43NjYWGRkZFxdHJpOpVGpUVFRZWZlWq21paQkLC2toaBCJRJOTkwkJCV1dXQiC1NTUpKWlTU1Nkcnk+vr68PDw/v5+mUyWnp6ekJBAp9OHhoYiIiJu3LhBIBBkMllcXFxqaqpEIhkeHo6IiGhoaODxeAKBIDw8/NatWw/Okku3kEik4ODg3NxcDocjFAoFAkFkZOTevXs7OztHRkaOHTt248aNwMDATz/9tLGxcW5uLiAgAI/HFxYW7tixo7y8fHZ21snJaXBwcMeOHSdPnuRyueHh4f/zP/8D/nnfeICvQMAKBGzvn6mpqS4uLk5OTocOHSorK2MymZGRkU5OTlu3bvXy8kJ/Qffw8NizZ8/WrVv379/v7Oy8efPmoKAgjUZTVlbm4uKyc+fO7du3+/j46PX63t7eXbt2bdmy5dixY52dnaOjo15eXq6urjt37jx48GBrayuZTA4KCtq5c+eOHTsyMzMlEklCQoKbm9u+ffu++uqrtLS09PT03//+90888YSrqyuTybQf/9Tr9TqdblGhEQRZukV7LyEIguZB9xoMBt29ZDAYEATRarU6nQ5BEA6HExMT8+mnn+7evfsvf/nLsWPH5ubm0NpQw0fzLzZn4kAE/1w6U5ryGfzTxKF1XzYymRweHt7T03Pfdit/Bf+0MnBoDggYJwD+aZzPcnvlcnlFRUVLSwuCIPPz81VVVXV1dWw2m8vlVlVV9ff363S68fHxioqK0dFRuVxOp9Pr6+snJyf1ev3w8HBLS8v8/Pzc3NzAwEBZWdnk5KRMJmtsbKypqeFyuSQSqaysrLCwkEKhyGSy6urqhoYGqVQ6PT1dVlY2PDwsFApFItHdu3fv3LljfN4kkUje3t6+vr4DAwPZ2dkVFRXx8fE7d+5saGjo6enx8PC4ffv2jRs3Nm7c2NzcPD8//1D/HBsbS0hIOHDgQE1Njbe395///Gfwz+UGBmwHApYjYGP/1Gq1+/btu3btWnp6+vXr15ubm6Oiot55552IiIji4uIXXnjh8uXLycnJH3zwQVxc3Ouvv/6P//iP6Ot21q9fL5FIgoODv/7665ycnOjo6LfeeotAILz77rubN2/OzMw8cC+lpKT84he/+Oijj7792efs7Ozu7p6bm+vm5hYcHOzq6vqHP/yhuLh4165dL7744q1bt86dO3fixInS0tKPP/74xz/+cVJSklQqtR//xHYQsFisqqqqsrKy6upqCoWCSeXgn8bnzgf3SiSS7u7uq1evJthfio2NjYiIaG9vf7DbZmzB4/H5+flyOTYPO8nl8pmZGYFAgMm4NbsS8E+z0UFBIGAJAuCfZlAVCoXXrl2TSCRmlF0sYp37b/l8flVVlZub2+HDh69cuTI6OkogEK5everu7n7q1Knr168PDw/HxcU5OTm1tbVRqdSbN2+Oj4+XlJQ4OztXVVVRKJQ9e/aQ7qWgoKDDhw9v3rz5jTfeAP9cjCN8AAJWI2Bj/1SpVLt27WpublapVEwmUygUnjt37vDhw3Nzc2q1+te//vWHH34YFxfn7u7OYDA+//zzf/iHf1AqlfPz8+vXrxeJRKH3klKpnJqaWrduXXl5+Q9/+EMvLy+ZTJabm7t3796oqKhnn33W2dlZoVD4+vo6OTlFR0dvu5c2bNjwm9/8Ji0t7euvv/7tb3/b1dWVn5/v6ek5MjKyb9++p556amRkxK7uv7XamDC7IfDPlYoZelf5qL0mAoFgxqvqHwoBW//UarUikUilUpk9VjEpCP6JCUaoBAhgRQD80wySXC730KFDQqHQjLKLRazjn3K5nMfj4XC4zs5OIpEok8mkUunMzExPT09vby+JRBKJRLOzs/39/UwmUyQSTU1N8Xi8hYWF4eHhb9cFEAqFQ0NDHA6nqqoqPDy8oKDg+PHjn3zyCQ6He+i0tbgRnv9cDDR8AAJYEbCxf2o0mp07dyYkJBCJxKqqqp6eHm9v7y1btnR0dPT397/wwgtubm6JiYmnTp3i8XhffPHFff558+bN48ePEwiEsrKyt956q6+v79VXX92zZ09/f39QUNDu3btjY2OX+uf27dvj4uIOHDgQFBSUmZmZkJCAx+Mf6p8/+clPqqqq1Gq1ra5/6vV6JpM5ODjY3d09Pj4uFouXPq2KVfjNq+fbVVse2hnwz8XpCj7cRwBb/6TT6Tk5OWNjY+YNYKxKgX9iRRLqAQKYEAD/NAOjRqOZnp5GX35hRnG0iNX8876ZxYyvUql0aGjIx8cnICDg1KlT2dnZXC7XeD3gn2YPDCgIBJYjYGP/1Ol0QUFBzs7OJ0+ePHToUEFBQUlJybF76csvv3RxcZmYmKivr4+Jifn2cseFCxfef/99tVrNZrOPHTsmFouDgoI++eSTy5cvb968+cSJEzKZLD8/f/Pmzbt373Zzc4uJiamrq3Nycrp+/bpKpUpNTfX19a2urr548aKLi8uJEye+LTgyMuLv7+/s7Dw2Ntbc3BwdHT09PR0WFvbMM8+cO3eOy+Xayj8nJib8/f0PHTq0f//+Xbt2VVRUYHXv4nJDwcTt7e3tc3NzD52rwD+Nz2GP815s/ZNKpSYlJQ0NDZk4aC2UDfzTQmChWiBgHgHwTzO4qVSq7u7uVb5O3IH8Uy6XC4XCqakp4r30yMU/5XI5+KcZ4wqKAAHjBGzvnywWq76+PjY2trGxkc1mSyQSMpkcExMTHBw8PT2t0+m4XC6FQtFqtUQisbu7G0EQlUo1Pj4ul8tDQkJ8fX1zc3Pj4+Pn5uYMBoNEImloaAgLC6uvr+dyuXw+f3BwcHp6GkEQKpU6NTUlEAgmJyczMjLu3LmDx+NlMhmJRMLhcBKJhMfjoc/HM5nM4ODgwsJCGz7/6ePj8+abb965c6epqcnHx6egoAB9PKOioiIuLi4/P1+pVOp0uo6OjsnJyfz8/Li4OKVSGRsbW1paKhKJBAJBQ0PD2NhYWlpaYWEh+j4hFotVXl6elZVFIpF0Oh2JRMrPzy8rK0tNTW1qahIIBAiCjI6OJicnd3Z2KpVKsVjcfi9lZGRUVVWhryJYt26dr68vmUzW6e5/iyb45+NsmMaPHVv/lEgko6OjLBbL+E83S+8F/7Q0YagfCKyIAPjninChmblcrouLi6Pcf2t8orHQXvBPM8YVFAECxgnY3j8NBoNKpUKf5kLv6tTr9SKRSCgUokuqoO90RV/lqtFoDAaDXq/XarVKpTIsLCwmJkYsFkskksWyaG3oai5oTtSUFt8Nq9PppFKpRCJBt+t0OvSG0sUMaAdkMhmCILa6/vn111+7urrOzs6q1eqFhQUWi6XT6TIyMl5//XV/f//NmzenpqZKpdKLFy+6urpGR0ej72ry9vZ+7733cnJySCTS3r17jxw54uvr+7vf/S4jI2N6evrmzZuenp7nz5+/cuVKf39/fn7+yy+/fOTIkaNHjx4+fHhoaAiPx/v4+Hh6ep46daq5uZlEIrm4uBw6dMjV1XXjxo3V1dVRUVE///nPv/nmm9HR0QcvgYJ/WmjyWwPVYuufCIKo1eoH/wJi/Icd5nvBPzFHChUCgdUQAP80g55IJLp+/bpDvH/IVlMh+KcZ4wqKAAHjBOzCP413cbm96AvBiUTiQ59FXK7USrfbyj937Nhx+/ZtsViM+jZ6jE5OTv7+/lQqNTk5+Z133ikqKvLw8PDx8aHT6U899dRzzz03OTl59OjRs2fPEonEr776KjIykkgkuru7b926taCgYN26dXFxcU1NTV9++eWpU6eSkpJ+8IMf+Pr6NjQ0nD59Oi8vLyAg4NixYwMDA25ubhs3biwuLt6wYYOzs3N9ff3BgwdRiX3jjTfS0tIWF1NdyhP8c6Wzo1QqJRAIydilu3fvYvXGoJUei/H82Ponh8Opra2dmZlZOvys/xn80/rMoUUgYIQA+KcROMvt0mq1c3Nzq/xznmPdf2t8tnpwL/jncoMHtgMBswk4sH+i95Si10jNPv5HFrSVfzo5OW3atIlEIhkMhurq6szMTC6Xu3HjxsHBQb1ePzg4+Mtf/vLSpUtHjx4tKChAEOTpp5/+2c9+JhaLw8LCPD09iUTinj17Ojo6VCpVSUnJp59+mpSU9Prrr1dUVJBIJHTF1Pj4+H//93+Pjo4mk8nXrl2LiYnZvXv3Sy+9tH79+ueee+6nP/1pVFTU9u3bfX19mUymv79/ZmamSqV67733Ghoa0AvR99ED/3xw3jK+RSKR9PT0JCYm4rFIXV1dSUlJc3Nzxhu1yV5s/ZNCocD6nySWbqX/2sZ4wySuWnP/nfP3ncjwFQg4KAHwT/MCt/o/4oN/Wm5ipVKpCQkJ5kUWSgEBuyXg2P5pBay28k8PD4+XXnqpqqqqra3tr3/966VLlzgczhdffHHs2DH0odYNGzb09vYeO3asuLhYr9c//fTTzzzzjEQiiYyMRP1z165dpaWlFAply5YtGzZsSExMfP7551NSUkZGRtavX//ll1/Gx8f/9Kc/jY2NpVAoAQEB+fn5gYGB7u7uXV1dly5dSkhIGBoa2rlz5/Xr17lc7rVr17KystRqNeqfD31XAfjnSmcgiUTS29ubl5e30oIPzU+j0dLS0igUykP32nYjtv6p0Wj4fL5CobDCTwAjTcD1TyNwYBcQsD4B8E8zmPN4PDc3N3j+08gUCdc/zRhXUAQIGCcA/mmcj8FW/slms0+ePLl+/fo333zzyy+/rKurU6lU374M6IMPPli3bt0777zj6enJ5/OvXLlSXV2t1+v/9Kc/vfHGGzKZLDU11c/Pj0gkbty48Y9//OPbb7/917/+tbm5mclk+vn5/elPf/rLX/7i5OSEw+Hu3r376quvZmRkLCwsREVFdXZ2VlRUfPLJJ++8884f//jHkpKSubk5Dw+PmJgYPp8fFRV19+5djUazdevWjz76qKKiQqlU3scO/NPIBPbQXeCf9w0hE79qtVqJRLI21v/Ez0k7cNSRWVHfBKttiDJJV5tyVXOKqZ1iak3JuTQPXP80cYBBNgclAP5pRuDg/UMPnZ2XbgT/NGNcQREgYJwA+KdxPjbzT4PBIBaLWSwWk8nk8XgqlQp9lxKHw2HeSyKRCEEQsViMeiD7XtLr9XK5XCQSEYnEb775prKykslkcrlcjUaj1+ulUilals/n63Q6pVLJZrPlcjn6Qia1Wq1UKhfrVygUOp1OKBRKpVIEQaRSqUKh0Ov13/6tlM1mo5/vYwf+uXTGMuUz+Od9Q8jEr/Pz8/Hx8QMDAybmt1A2TK5/pubVvPKH1wLDknY5H33+1//VS2AuNcYHP0/S1W1DlLyK9u4x+oN7jW8B/7TQSIBq7YQA+KcZgUAQBH37vRllF4vA/bemzPjm5YH7bxeHGXxYSwTAPx8RTVtd/3xEt4zu1uv1NBotOjp6amrKaEaMd4J/rnR2Af80bwgymczCwkICgWBecaxKme2ftZ3jsWnFBVVd4/Py+IySZ37+i8uBkUdPXvjzW+/2EzlEujq/siMxq6JteG6SoWkdolQ0j/QT2bdTiypacAOT3JPn/V/4r/++FhI/ShYbF8779oJ/YhV6qMc+CazIPwkLypqOsYTMsqKaHvyclMTS4cjiopqe9KL67jH6BE3VhV+o754sru1LL2oobRwcmOROMjR9E+xOHJWwoGjsJSVkllW14QlUxShZUtMxXlTbk1nc2D1GN+XehAmapqRzoR1HszlJpVLZ0dHx0GdqTO8b+OdKZ3/T84N/mj4OIacDEQD/fESwHNE/0TczqVSqVb7R7hFoHtgN/mn6jILmBP98YBCZtEGj0QgEAgd9/jOjqOHTL7btcz3+/kcbr96MDYvLQv3T1d3rj6/9T/8E+5xv8HsffLbngPuOPa4FVV2Xroa9/9HnHqd9tn3t/PGGzWFx2du/OfC97z3x/scbazrG7zNM41/BP00aXpDJYQmY7p+EBWV2ScuWr/Zu3Lxjw5dfXQ9L6hljhMRm7tx7aOPmHe6nL5U2Dt6KSdu6Y98bf1n/+Zadew8eyyhu7BxdOHPpuvfV0KTsim07nbfu3LfL+Uh8emlJff+Wr/a+/j/rXn3tz6l5NUS6yviZSGLp7Mc/2Wz2V1999e3jPKsJO/jnSmd/0/ODf65mZEJZuyUA/vmI0Diofz7iqCyzG/zT9BkF/HM1Y1Cj0QiFwgefQF5NnWaUNe/65/7DJ3e7uLUOUUJjM2NSCsLjs1H//GyT07/867924Wk/+bf/8PYPKW8a/uizzed8b+w94PHU0/95JSgqu7Tl//3ox9t27nM54vmTf/uPoycu9IwzHvlr7tIM4J9mRBmKOBAB0/0TRxafvXzj6Z/93OWIZ0BIQkJGaXpRw+9eff3w8XPRKYXbvzlwKybt9MVrH3765VmfoIyihp17Dx05cT4pu2Lrzn0BoQnHz/p+tfvg3bq+z7fsXP/+JxEJOc+/8F9vvvXulaCo5v6ZSYZm6Xn30M/2459yuby8vHyVP05X759isXhwcLDXLlNbW1tvb+9K53es8oN/OtCPIOiq6QTAPx/BCvzzEYCW7Ab/XOl8A9c/lwyfFXxkMBh5eXljY2MrKGOBrOb5556DHnHpJVNMLZGunqSr49P/9/7bTz7f9k//9M9deNr3nnjizbfeXf/XT1986TenvQP2uLj9/Nlftg1RajsJTzzxxJdO33ie9//5L56/fafYlNv8lv7uC/5pgVEAVdoRAdP9k0hXFdf1fvjppmef+9Vf1v31yInzIbcz/uVf/uXFl37z1voP/vz2uz7Xwj1O+xw4eqp7jD7J0Lh5Xvz/Xv79p59v277LpaSh/8yl63964y/vfbjh5794/hfP/epGZMpzz/96l/ORvgmWiWel/finwWBY/a1Sq/dPmUzGZrPJ9ppsuLA2+Kcd/YiBrmBHAPzzESzBPx8BaMlu8E/wz+UIYLv+CplMDg0N7e7uXjL6bPDRbP8MCE0Ym5MFR93Zsfvg9fAk9Prnon/+4Mkfnr0cXFzbcyevpqGbiPpnB45a1zXxf/559dlfPB+XfnepW5ryGfzTBqMEmrQiAdP9k7CgKKrpCYvPLqjqvnYrbutXe29EJP/TP/3Tzr2u5U1DRbU95U3Dnuf9D7qd7ptgk1i65oGZv37y+b//x1Pf7Hdr7p855xt84uyVu3V9kUl5+RUd2aUtv/zVr3e7uA1OcU05E+3q/lu1Wo3H4x+6prfpoVu9fy43d8B28E/TxyHkdCACtvTPp59++od2n77//e+7uLgIBAILBVUqlfr6+paUlFiofmtWC/650plSIpF0d3fHxcXhsEgjIyODg4MjIyNYVIbr6+vLz89vb29f6UE9ND+2/qnX6zUaDYIg1hzeD7Zlnn+evXzjmWef+8GTT/7w//1o5x7X4MjUZ5597vL1yE+/2PbP//zP3Xja/kMnvve9J37w5JM/+8+f+92I3uPi/vNfPP+//vn972/evvuMz/V//d4Tv/ntq8V1fSb+sotmA/98MIiwZS0RMN0/R8kSn4CIH//k337wgyef+P7333n/k87RhQtXbv7Lv/7rD5588nevvh5yO+PUxWuL/ombFW3cvOOV3/8pt7x9iqn1CYz4z+/O4h8++cMfXg2+nVnU8PwLL+454D44xTPxlLSf659sNnvbtm02f/7zoRMHbJTL5eCfa+lnFBzLIgGb+ediDx7zD1Kp1MfH586dO+jKKA79P/jnSidLbO+/XWnrxvPzeLza2trW1lbj2Uzci61/6nQ6mUy2yj/Yr/4nj3n+aeKvp5bIBv65+qBDDfZMwHT/tMT5taI67cc/ORzOvn37VvlHdrj+aeJUaEY28E97/pkDfTObAPin2eiwKahQKAIDA99aE+mLL7548DESkUgUERGBDSwL14IgiFKpNGN6MLsI+Kd5ISWTyWFhYT09PeYVx6oU+CdWJKEeIIAJAfBP8zCu/l4S8E+zfw14ZEHwT/NGNZSycwLgn3YeIIfvHvinkdkF/NO88c3hcKqqqkgkknnFsSoF/okVSagHCGBCAPzTDIxKpbKtrU2lUplRdrEI+KeRiX6Vu8A/F4cZfFhLBMA/11I07fFYwD+NzD3gn+YNWb1er9Pp9Hq9ecWxKgX+iRVJqAcIYEIA/NMMjGw2e/v27fD8p5GZ2ra7wD/NGNVQxP4JgH/af4wcu4fgn0amLvBP8wa3RCIZHR1lsVjmFceqFPgnViShHiCACQHwTzMwKhSK6upqm6//aWSifMx3gX+aMaqhiP0TAP+0/xg5dg/BP43MneCf5g1uKpWamJg4ODhoXnGsSoF/YkUS6gECmBAA/zQDI4IgQqFwlY+Awv23Rib6Ve4C/zRjVEMR+ycA/mn/MXLsHoJ/Gpl7wD/NG9wLCwtpaWkjIyPmFceqFPgnViShHiCACQHwTzMw8ni8EydOiEQiM8ouFgH/NDLRr3IX+OfiMIMPa4kA+OdaiqY9Hgv4p5G5B/zTvCGr0+kUCgWsv7Ki9R5ILB2sv2LeeINSjkIA/NOMSLFYrE2bNvF4PDPKLhYB/zQy0a9yF/jn4jCDD2uJAPjnWoqmPR4L+KeRuQf807whq1KpWCyWVCo1rzhWpeD6J1YkoR4ggAkB8E8zMPJ4PE9PT3u4/ikUCtnYJQ6HI5VKjcy/jrIL/NOMUQ1F7J8A+Kf9x8ixewj+aWSSs45/CoXCgYEBiURipCcP7uLxeLW1ta2trQ/uMmMLHo/Pz8+Xy+WYjGYKhRIREdHb24tJbWZXAv5pNjooCAQsQQD80wyqer1eo9Gs8nXiq7/+KZFIxsbGBjFKAwMDVVVVVCrVjNnK3oqAf5oxqqGI/RMA/7T/GDl2D8E/jUxmpvinRCLh8XjoH4WFQqFMJhMIBOhXPp8vlUqFQiGHw2Gz2RwORyQSyWQykUiEbuHz+TKZDI/HHz16lEajLW5ns9mP1FF79k8ej9fY2Egmk217boB/2pY/tA4E7iMA/nkfEFO+yuXyyspKm7//ViQS9fX1GZkuV7RLIpGkpKQQCIQVlbLPzOCfpgxjyONwBMA/HS5kDtZhoVB49epVdG0xrVYrEAg4HI5Go1Gr1QwGQyQSIQgiFosZDAaPx9NoNAqFgslkSqVSBEHQzAqFQq/XS6VSJpOpVCoRBOHdSzqdDq2QyWSif75ls9l8Pn8xM5PJRFeJZDAY6HaJRMJisZZbaBtBEKVSac0ZyBT/nJ+fLykpSU9PT0xMrK2tZTKZ1dXVycnJqampVVVVdDq9ra0tJSUlPT09LS0Nh8NxOJz29va0e6mwsJDL5d6+fXvr1q01NTXd3d1JSUloVTMzM8aP1J79U6fTyWQytVpt25MB/NO2/KF1IHAfAfDP+4CY8pXD4ezbt08gEJiSebk8q7/+Cf653IwM/rncqIPtDk0A/NOhw+cAnedwOBs3bszNzdXr9Vwut7CwMC4ujslkzs3NBQYGVlZWyuXy2traa9eupaens9ns0dHR4ODgzs5OuVxeXFwcGxs7NjamVqu7urpu3rxJIBAUCkVajyMT0gAAIABJREFUWlpGRgZqp/n5+devX6fRaFqtNjw8PDMzU61Wt7e3BwYGBgUFCYVCjUYTEBCQk5Oj0Wiam5sDAwNJJNJDwdmnfxKJxOjo6JCQEDc3twMHDrS0tFy7ds3Ly8vHxyckJIREIkVERLi7u9+8edPT07OxsbG/v//48eMeHh6BgYF79+6dnZ1NTk7evn17U1NTSkrKwYMHb9265eLigsPhlpvt0O327J8cDqe2tnZmZuahcbTaRvBPq6GGhoCAKQTAP02hdF8ehULR0NCw3J9l78u83FfwT+Pz6Wr2gn8uN+pgu0MTAP906PA5QOf5fP6RI0cGBgb0er1MJhseHm5vbxeLxXw+v7a2FnXL/5+99wCO8kjz/6su1NVd7dXFur3a27Vrz+v1eoPtdcDYa2OSjSPBZAM2wQYBEoggFBBCCBRQzgHlrFGW0CjnMBpFlPMkTdDk8M47Of1Z3v9N6QejYaT3leadobso+51+u/t9+tv9zqPPdJqcnKyrqyOTyRAEsVisxsbGhYUFjUbz6NGjzs5ONput1+spFEpjYyOHw9Fqtb29vchEHblcPjQ0VF9fjxxf1tra2tfXp9fr5+fn6+vrGxoalEqlXq+vq6sbGBjQ6/VTU1MPHjyYn5+3KBwO+ROG4ZmZmZSUlNDQ0HPnzn366adFRUUJCQleXl5ubm4+Pj5DQ0NZWVmenp7+/v5nzpypfhL27t3r4uISGBh45swZCoUyMjLi4uIiEAgqKiquXr16586d/fv3t7W1WfeIQqGwrq6utbUVhmEkpVwuR67hJwGJhGH42Xgkcnn86OhoUVGRQqFYfsqcwWBAFh0ZjUYr10hjGZ4EJD2FQgkPDyeRSBbbccMiAX9umNTgQUABWxQA/GmLSk+l0el0NBpNr9c/Fb+qj4A/rftTNHcBf66qK4LEjqIA4E9HaSlHtRNX6z+NRiMEQSvN28Qhf0IQ1NPTc//+/aqqqsDAwE8//bS0tLSzs5NAINy5c2ffvn0pKSnt7e1FRUWFhYVHjhy5cuVKTk7OiRMnEhMTa2pqCgoKkCFlFxcXPp8/OjpKeBK++eab7777zrpHFAgEtbW1zc3NyBaCyEJTZNUoBEHIQlMYhmUymUQiQdLIngQEPqVPAsKrUql0eHi4qKhILpdrNBozgmo0GuQMFb1er9VqEQTV6XQajUan05lMpuXx2icBScNkMvPz88fHx+37VgD+tK/+4OlAgacUAPz5lCC2fBSJRJcvX7b7/rdg/u1KHhnwpy3dGKRxOAUAfzpckzmYwbjiT51ONzMzs9JBZ/jkz87Ozps3byYlJXl7e2/fvj0nJ6egoODevXsBAQHHjx/Pzs4uLS11cXFJSko6ffr07du36+vr3d3dg4KC/Pz8vLy8mEzm7Ozs8ePHe3p6WlpaLl++nJaWdujQIVdX15W8HRKPzL9dPkxqHvY0XygUChuvzfvfLt9l0fgkmEwm84X52jwuak6/PI1Op7PyO8KGvSEsvrykjVI3yGt6JHCIf+VdiwPTPI0W1UDHhskLHgQUWK0CNSRadsNC4zDG72Nlx+zDbgq273j9IC+zbq5zhLXaOmKeXiQS3bhxQyaToSkZjH9a96do7gL+RNMzQV7cKgD4E7dN4ySG4Yo/pVKpt7d3S0uLRXFxyJ8KhWJhYSE5OTk4ODguLs7f37+lpYVKpSYnJ3t7e+fm5iK72ubk5Hh7ewcGBs7Ozsrl8r6+vvDwcG9v76GhIRiGuVyuv79/VlYWn88nEAg+Pj5eXl5LS0vWPSKe138i05IFAoHFdtywSJFM1dDHyKmfzq7D8l9a9diBC/cv3cvDttjsuumS1rkZhlinN2yYROBBQIGNVGB4lo/5+5hdN33ior+rbxzm72NB0+w0XbSR+lh8ll6vRxa5WLxrYyTgT+v+FM1dwJ82dkKQzLEUAPzpWO3leNbiij+VSmVFRcXMzIxFHfHJn2j8Fpq8eOZPnJz/abEXoY8UCAQ///nPT58+jXJFFnpLQAlAAaDA2NjYqVOnvLy8FhcXnVINnJz/icy/RRZxoP+vWCxOS0sbGxtDXxRSArLGBI1LXXNewJ9O+d6BSgH+BH1gfRXAFX8ieyAhaw6frTbgz+UOEs/8KZFIent7mUzms43oBDH379+/fft2cHBwT0+PE1QHVAEo4LgKqNXq2NjYP/7xjx9++GFlZSWyLt1xq2PRcrlcnp+fr1QqLd61MRKT8c/W1tYWjEJTU1NMTExZWRkm5TU3Nw8PDy/3jxt5DfjTxk4IkjmWAoA/Hau9HM9aXPGnUqksKyubnp62qCPgz+U+Fc/8qdPpZDIZygMDLPYBu0cyGIzt27eLxeKurq7g4GC5XG53k4ABQIEXVoGBgYHIyMhjx465uLikpqZSqVTnk0IgEPz4448SiQRN1TDhz7a2tnZcBiKR2NjYuNw/buQ14E80PRPkxa0CgD9x2zROYhiu+FMul0dFRZHJZIviAv5c7lPxzJ98Pp9IJK50jqvFxnWUyHPnzhGJRCaTyWazExIS2tvbHcVyYCdQwMkUkMlkGRkZqampIyMjExMTiYmJ6M/JxKFEarW6p6dnpW3hbTQYE/5EjlVb7oZwcr24uDgwMGAvYwB/2tgJQTLHUgDwp2O1l+NZiyv+1Ol0CwsLYrHYoo6AP5f7VzzzJ5VKjYqK6u3ttdiOjhs5PDy8f/9+nU4Hw7DBYCASiWlpaRAEOW6NgOVAAcdVoK+vLzIycmxsbGFhYXFxsa+vLyMjg0ajOW6NLFqu0WjGxsZWWpZiMcuzkYA/l3tPbK8Bfz7b30CMEygA+NMJGhHXVcAVfxqNRoVCsZKjBfy53GvimT95PF51dfVK+0jh+n2wapyrqyuJRDIYDHw+32QyLS0tJSYmDgwMWM0EbgIFgALYKyASiYqLi5FTi2NjY4uLi4VCYWZmZmtrq0KhwP559itRKBS6ubk52fmfy30Z+msw/mm/7gme7LQKAP502qbFScVwxZ8qlaqxsZFCoVgUB/Dncj+NZ/7EyfmfFnvRmiNbW1sDAwPlcrlOp+vu7jaZTDqdrrKysqSkBKwCXbOqICNQYG0KjI6OxsXFTU9PGwyG8vLy9vZ2vV7f39+flJREp9PXViY+c8lkstjYWBiG0ZgHxj+Xe09sr8H4J5qeCfLiVgHAn7htGicxDFf8qVarm5qaVtpDAtmGXmM1qFQqDF0LBEFkMrmoqAjDMrEqCs/8KZVK+/v7WSz7H92O4Vt64cKF3t5eg8Gg1Wrb2tqQkiUSyb1796ampjB8ECgKKAAUsK6ARCKpq6urqalBduVRq9XIrBkWi1VUVDQ4OOhMm58ZjUalUmk0Gq1rYv0u4E+sPO+z5QD+tN73wF0HVQDwJ44abnR0NCQk5AZG4c6dO3j4mRZX/Im+sTUazbPuYc0xgD/X1iJUKjUyMtLJ1n82Nzcj024NBoP5aBmtVltfX7+0tLQ2oUAuoABQYA0KSKXSsbExoVCI5G1raxseHjaZTEajUSgULi4uOhN/ajSa4eHhlZal2Kge4M81/xnw3IyAP23shCCZYylgN/5UKpVCoVCAURCLxSh/vcNDs1GpVAKBkI5FiI2N/frrr0kkkt3rBfjTincB/Lm2/glB0Pj4OI/HW1t2/Odypr9u8a82sBAoYF2Bu3fvZmZmWk/juHdFIpG7uztY/2nFU4P1n47bvYHluFXAbvxZVVXl7u7u6enphTp4eHh4e3uDJVLLO5lYLEb2MlkeaZdr9PypVCoXFxcFAoHBYECqoFareTweyt9rLaqhUCi4XK75QRqNhs1mc7lc87PA+KcVJ23l1tjYGIFAwGrfDq1WKxaLUR6YbrED4CFSp9OBY1fw0BDABqAAokBWVhaRSHRWNQQCgYuLCx7O/wTnr1j0oWD801lfvRe8Xnbjz4iICA8Pj6amplbUAUFZmUz2grfl8uo7B38qFIqJiYm6urq4uLjm5ma1Wi0UCoeHh1tbW0tKSgQCgUQiGR8fJ5FI/f39JBKJTCZPTEzo9XoWi9Xb29vX19fb24ssbunp6ent7aXT6fPz82Qyube3d3p62mg08vl8EonU29s7MjIik8nm5+ezs7PJZPLo6KhUKuXz+QUFBenp6a2trVQqVa/XY8ufcrl8bGzMjgdbW/R2SKRYLCaRSIODg1bS2H4LW/7kcDjFxcWTk5PL+7zTXGs0mqqqKqepDqgIUMDRFeBwOAKBwNFrsZL9Go1mdHTU/BvrSsmsx+Nh/i0Mw5wnAYZhK75JJpNNTU3JZDImk7m4uGg9MVIOGP+03vrgLlBgDQrYkz+Tk5P1ev0ajH4qi0gkCgsLA6fkLZfFCfhTLBY3NTVFREQ8ePCgu7ubzWaPjIxUVFRERUWlpaUhuFhbWxsQEODv7797925vb29fX99Lly5JpdLMzMyLFy/ev3//+vXrbW1tdDr9iy++CAwMzM3NDQsLu3Xrlo+Pz+XLl/V6PZFI/O677+7duxcSEtLU1LS0tNTR0REXFxcbG/vw4cP5+XkKhdLY2BgREZGQkNDV1cXn8604ttXegmFYKBRyOJzVZtyA9HK5nMfjCQQCTJ6FLX+yWKzc3NzR0dHlfd5prg0GgxNPLXaaZgIVeXEUmJqacr5jP83Np1aryWSyRqMxx6zhAg/8SaPRCgoKWlpaZDKZFbfF5XKDg4OXlpZqamqqq6shCLKSGLkF+HMNXQJkAQpYVwDwp3V9HPWuo/On0WhksVjp6emenp6ZmZnIn+MtLS3e3t4+Pj4kEkn1JKSkpKSlpY2Pj7/zzjutra1tbW0HDx4cGho6d+7cnj17vLy8vv/+++3bt8/Ozn788ceTk5MpKSmhoaFDQ0MtLS379+8XiUS3b9/evHnz9evXT58+feXKFRqNBsMwkUi8fv16aGgoMsI2NTUVGhrq4eGRlZXFZDKf66tAgmcVwJY/YRiem5t73HyO+n5atVun0w0ODlpNAm4CBYACG6dAZGRkQUHBxj1vY58kEAhOnTrV399vMpkkEsnY2BiPx1Or1QsLC48ePaJQKEajkc1mk8lkLpcrl8tHR0fHxsYgCDIajRQKpbOzk8/ns9nsqqqqvr4+iUSyuLjY1NREJBJ5PB6dTi8rKxsYGJDJZC0tLQUFBRUVFTKZjE6nFxQUDA0NyeXyyspKxMsvn38rFAqbm5sJBEJxcTGJRJLJZMPDw4Qnobm5mcfjzczMVFZWVlRUEAiE2tra0dHRzMzM48eP37p1a3BwsLW1lUAg1NXVsdnsiYkJJFl7e7tIJGKz2a6uriwWKz8/Pzs7G4KgpqYmpOS6ujq5XD41NdXb29ve3k4ikaRSqUKhAPy5sV0SPO2FUADwp3M2s6Pzp8lkUqvVs7OzBQUFUVFRwcHBra2tAoGgvLw8ISEhLy+vpKSEw+Hk5uY2NDSo1erNmzdTKBQqlXrs2LHm5ubvv//excUlLi4uPDz80qVLc3Nzu3btUiqVUVFRiYmJarWaQqF89913LBbL3d197969cXFxISEhsbGxPT09GRkZBQUFSUlJ3d3di4uLhYWF9+/fj4mJKS8vR+j0WbgCMc9VAFv+NBqNOp3OvEzXyd5hlUp1//59J6sUqA5QwHEVaGxsRPDMcatgxXK5XJ6eno5s8CsWix89esTlclUq1ezs7MDAwPz8vNFoZDKZPT09HA4HgqDh4eFHjx7JZDKj0Tg3N9fa2srlclksVllZGYlEkkgkDAajrq6uqqqKy+VSqdSioiIymSyTyRoaGrKysoqLi2UyGZVKzcrK6u/vl8vlJSUlKSkpPB7PzJ8ikaiiouL8+fMJCQkRERGPpzgNDw/7PQmxsbFXrlwhEAglJSW7d+/28/NLSUnx8/MjEAhRUVHI785tbW03btw4fvx4SkoKiUSKiIgICQlJTU319vaempp6ij+5XO6FCxfS09MzMjJOnTo1MzNTUlLi6uqalpbW2dkpkUgAf1rpPOAWUGDNCgD+XLN0uM7oBPxpMpn0er1CoZidnS0rKxsaGtJqtUqlUiKRDA8Pt7e3I4szm5ubNRrNcv4cHx/39vaOiori8/nXrl0bGxtD+FOn0/X09Ny5c2d0dLSnp+fzzz+Xy+XJycmXL1+emJjIzs5ubGykUCi1tbUzMzMQBGk0GqlU2tTUVF9fz2azlUqlwWDAdv3nc7HNaRJgy59CobClpWWlc1xx/WbaYNzy8z9tSA6SAAWAAuurgPn8z/V9jJ1KNxqNCoUCmX+L+Di9Xo+chm2uuF6vV6vVer0eSaDRaJCf/7RarUql0uv1EARRKBSBQADDsFwuF4lEQqFQLpdDEITs1ADDsEgk4vP5QqEQhmEIgvh8PjK6KBQKeTyeRCIx8yebzb5z546Li8vExMTMzExTU1NpaenBgwcLCgrGxsYQEE1LS9u0aVNCQsLU1FRgYGB2dnZ+fv6JEyeysrKmp6cvXryYkJAwMzPT3NwcGBjY29vLYrFcXV1jY2Pn5uaWj3/W1NR8+eWX/v7+AQEBn3zySWxsbE5OztGjR9vb28ViMbI6FIx/2qlvgsc6swKAP52zdZ2DP5G2MRqNiNszN5XRaDQYDGq1uqGhob+/X6vVnj59ms1mczgcPz8/DoczOTlZXFwcExNTWlqqUqkYDMalS5eQMVUymZyenl5cXPzll18ajUY6nV5YWJiamlpRUcFms5EHmc/yQR60fJwN8OfakBhb/nTK8z/N3dtkMqFci7W8KHANFAAKoFQgPz+/oaEBZSG4zS6RSIKCglDuoIHt+k82m33r1i03NzcqlQrDsEwmy8/P/+qrr8rKymg02v379319fVNTUzdt2pSSkkKn04ODgzMyMgoLC3/44YeCgoL5+Xk3N7fW1lYYhltaWhISEhgMhkKhuHTp0tWrVycnJ5fzZ1JS0tatWx8+fNja2lpXV0cmk/Py8jw8PGZnZ83ODvAnbnsvMMxxFQD86bhtZ81yiURy/fr1DZ4yZNGBoT9/ZaV6GgwGiUQil8uNRuPCwoLmSVhcXET+dheLxdPT08i1Wq2m0WgGg4FKpWZkZBCJxI6Ojr179yLnictkMhqNZuPpZ4A/zS55VRfY8qdKpVpcXLSxyVbqP7iNR3Zsxq15wDCgwIumwN27d9PT05211lwud/fu3SiX02PLn0tLS8HBwSdOnOjr66utrU1MTGxvb3d1dc3JyXm8xPTy5csBAQEZGRlm/gwKCsrIyCgqKjpx4kR6evr09LSbm1tbW5tCoejo6Dh79mxOTs7Dhw9PnDjR2NjIYDCW8+fU1NTRo0fJZPLjvXCRDQvz8/N9fX2pVKrZxwH+dNbOD+plRwXsyZ9hYWHI4YpcdGFmZsbPz49CoaAr5vm5RSIRJhv2bkB763Q6Op2+wWei7tmz51l91o8/Vyuj0WgUi8UxMTHHjx+/fv06stzlqUKMzwtqtdrsk8CF7Qpgy5/I+Z8qleqp5nOOj0ql8u7du85RF1ALoIATKMBisfh8vhNUxGIVxGKxj48PyhPssOVPCIJGRkZ8fX2vXLni5+fX3t7O5XIrKyt9fX2vX78eGBg4ODj48OHDb7/9trCwkMlkJiUllZSUNDU1Xb9+/fz582VlZXfu3Ont7VUoFDweLzc3193d/dy5c6WlpUKhkMvl+vv7czicqqqq8vJymUxWUlLi4eFx48YNb2/vxcXFqqqqyMhIZMgU8XGAPy32HBAJFECjgD3589y5czk5OfmoQ0ZGhoeHR2ZmJuqSnlNAfHw8yt8ITU4dfv3rX+t0uqeqiB/+RObfNjc3d3R0UCiU5bNqEZuRFS/IOOpK/1UqlbZDF0hpVgBb/mQymVlZWSMjI091Nuf4qFQqb9++7Rx1AbUACjiBAuYVGU5Ql2eroNfrORzOs78dP5vSSgy2/KlQKCAIolKpk5OTc3NzyDpMPp8/Nzc3NTVFp9NlMhmPx5ucnES2RGIymUtLS3w+f2FhYXJyksViUalUoVCIOCBks9zJyUnkODGkZAiCuFzu0tISDMN8Pn9qampychKZ7svlchkMxvJDXAB/Wml6cAsosDYF7MmfERERPB5PiDoIBAI2my0QCFCX9JwCvLy8mEzm2oR+EXLhnz+NRiMMwysdtG0wGFQqldJqMAMVuFiVAtjyJ4/Hq6mpmZubc8rXCpz/6ZTNCirluAqMj49TKBTHtd+65SqVqrOzE+Wac8z5c1X+Zb0TA/603oXAXaDAGhSwJ38mJyej/MltDRVGk8XT03NxcRFNCc6dF//8qVarOzs7GQyGxYZA+HO9PdmLWT62/KnX6638jmCxcR0oUqPRVFZWOpDBwFSggHMrEBMTU1xc7Kx15PP5J06cEIvFaCoI+HP9PPvi4mJKSgqa1gF5gQI4VADw5yoaBfCndbHwz5+PjyxDFpNYrAjgz/XzoNjyp0ajEQqFj+epWmxHR4+Uy+WHDx929FoA+4ECTqNAf3//1NSU01TnqYooFIqKigqUy+kBf66f9wT8+VSPBR+dQwHAn6toR8Cf1sXCP3+qVKr6+vqFhQWLFQH8uX4eFFv+5HA4BAJhYmLCYjs6eiQ4/9PRWxDY72QK6HQ6x5qrtSr9jUajWq1GucYV8Of6eU/An6vqzyCxoyjg8PwplUovX7787bffWjmMgUgk7ty5k0AgoGwVh+NPo9E4Pz9/7ty5Zyve3d29bdu2Dz/8MDo6OiQk5P33379w4QLKBXX450/koG3r6z/Xz4s8W7JcLh8aGrqHXUhLS2OxWM8+yO4x2PKn05//+ew+Xs++wiAGKAAU2BgFSkpKWlpaNuZZG/8UkUh07do1K39B2WIS4M/1c7KAP23pgSCNwyngSPyp1+u1TwLyx5nBYNBqtVwu97PPPnvllVcEAoHuSUDSIP9FfrOUy+V0Ol0qler1enOaNfyciX/+RHZw1Wq1Op3OYDDQ6fS33377gw8+0Ov1iFzmW9XV1f/zP/9z/fr1hYWFO3fuxMbGLi0trQRmNnZr/POnyWQyGAwr/dC78eOfEAT19vZmZ2ezsQhTU1Pp6ek0Gm39HOGaS8aWP3U6HQRBKDfMsLFXb3wytVqdmZm58c8FTwQKAAUsKpCQkFBWVmbxlhNEcrncvXv3otzbH/Dnmp3jczMC/nSCtwxU4VkFHIY/pVLpoUOH3n777ddff33z5s1KpfLBgwevvvrqn//853/5l3955ZVXurq6Xn755S1btrz55pv/+7//+9vf/vZPf/rT7t27JyYmioqKfvOb3wQGBnp6en700Ucff/zx66+/7uPjA8Pws4pYicE5fxqNxsHBwZdffvndd9995513MjIy/P39//mf//lnP/uZq6trRkbGa6+99uc///mLL7548ODBJ5988g//8A+vvPLKBx988Mtf/nLXrl0kEunZI0msqPHsLfzzp0wm8/f37+joeNZ4BE1VKtVznQGGCSAIIpPJRUVFmJTJYrGysrJeEP6UyWRqtdpiOzp6JARB33zzjaPXAtgPFHAaBVQqlbN+2yCO7/HOCCv9LGtjIwL+xMSJWywE8KeNnRAkcywFHIY/Gxsb9+7dm5OT4+7u/vLLLw8PD7/11luenp40Gm3nzp2vvPJKW1vb3/zN3+zfv39wcPDixYvBwcFEIvGdd945ffp0Wlrav/7rv/r4+Jw6dWrTpk2NjY0PHjzw8vJaWlpaVWvhnD8NBkNjY+OHH35YVlZ29uzZ+/fv9/X1/epXv9q0aRObzU5NTb1+/Xpqaurx48eLi4sLCgpeeumle/fuPd4M9vbt29nZ2SgHP00mE/75Uy6XJyYmDg4OWmx3u4x/Av602BbWI+l0elxcXF9fn/VkDnpXoVBcuXLFQY0HZgMFnE8BuVzurLudYdVYgD8toiMmkYA/seqloBxcKeAw/EkikbZu3frdd999+umnL730Unt7+z/90z/5+fkJhcLPP//czJ+HDx9ms9lBQUG5ubkDAwNvvfXWwYMHU1NTEf48ffr0hx9+SCKR8vPzr1+/vtI5HCu1EM7502QyLSwsHDp06J133vnVr351+/btgYGBl19++cMPPxQIBA8ePDhx4sShQ4d27NhBIBDKysp+/etfh4WFicXi4ODgoqIilD9/OgR/IvOTV5p6DfgTE2dpsRBs59/y+fza2lqUy5VXes3xEO/Egy14kBfYABRYlQItLS0r/Wq5qnLwmVilUrW1taH8zgH8adHxYRIJ+BOfLw6wCqUCDsOfrq6u//Ef/zEzM3PixImXXnppZGTk3Xff9fX1FQgEu3btWs6fHA4nODg4Ly/PIn9+/PHHZDK5oKDA+fhTr9cPDAykpqaWl5f/5S9/efXVV0tKSl566aXNmzeTyeSPP/745s2b7e3tZ86cKSkpeTH5U61Wt7S00Gg0i68N4E9MnKXFQrDlT6PRaGUdr8XGdaBIjUaTl5fnQAYDU4ECzq1AVlYWkUh01jqC9Z8WfdbyyMXFxYGBgeUxG3kN+NNZX70XvF4Ow58EAuH3v//9kSNH4uPjX375ZZlMFhER8cEHH5w6derNN9/83e9+h8y/PXz48IvMn62trR999NEPP/ywefNmT0/PiYmJAwcO/PznP79x44arq+s777xz8ODBt95668aNG9nZ2S/g+KdUKr1x40Zzc7PF1x7w5/r5VGz5UyAQNDY2UigUi+3o6JEymWzbtm2OXgtgP1DAaRSYn59nMplOU52nKqJUKhsaGsD4pxX3B/jzqT4DPgIF0CvgMPwpl8vJZHJDQ4NWq+3s7DQajVwut6WlpampqbOzs6enRywWNzY2jo6OqtVqKpXK4XBkMhmJRBoZGWGxWK2trfPz8xMTE/39/VKpdGlpaXZ2drUHLuN//i0Mwz09PQ0NDW1tbTweT6fTzc3NNTY2Dg0NLS4uNjU1tT8Jo6OjTCazs7OTRqNptVoqlbrapbAWex7+13/qdLrZ2dmVNvoD/GnFAaO8hS1/UqnUiIiWzT4jAAAgAElEQVQIEolksR86eqROp+vv73f0WgD7gQJAAUdRAOXWgyaTCf38WwiCxsbGenEZurq6hoeHUTrBNWcH45+O8h4BO1elgMPw56pqtU6J8c+f61RxG4vFP3+aTCbjk2CxRoA/1+wgn5sRW/6k0WjR0dFkMtliOzpBpLMeLeMETQOqABRwMgWEQqGLi4tEIkFTL/T8qVAopFKpAK9BIpE8182tUwLAn2h6JsiLWwUAf66iaQB/WhcL//ypVqt7enoWFxctVsSO/AljEVgsVm5uLp1Ox6Kwv5Yhk8kgCMLEp2LLn0ajETnh1mI7OnokBEFg/q2jNyKwHyjgKArweLxDhw6tNC3Ixlpgwp+Y+BrnKwTwp42dECRzLAXwwp/IhiI431PELvzpEMognR7//InD9Z+9vb2ZmZl0/IWZmZny8vL29nZM3Dm2/KnVasVi8WrnzzvKVzPgT0dpKWCnoyjw7LQX9Pu9W6y7xQet07MsGrC2SPQWAv7ExFFaLATw59p6NciFcwVwwZ8wDD969Kijo6O1tXVwcFAqlaL/NsREd51Ot9ySDeZPo9EokUj6+vra29tbW1tnZmZQ7hCAiSbIFNanlEFKxj9/wjD84MGDoaEhi1LYcfzTotexb6RQKKyvr8cnf9JotKioqN7eXovt6OiRKpUqMjLS0WsB7AcK2F0B5MAtCIKmp6d5PB7ivLRarUgkGh0dlUgker1e+/8G5HQug8Gg0+m0Wi3y0ZxMr9cj8VqtFnGCyCPMH2k02szMjFwuR87TVqvV09PTFApFq9WiX2O5TnrqdDoKhaLT6dCUD/hz/fw14E80PRPkxa0C9udPjUaTm5u7a9euQ4cObd++fevWrU1NTch3t1KpVCgUCHQZjUaVSqXT6RQKhVKp1Ov1yC3ET6hUKq1WuzyxVqtVPgmI/9DpdGq1WqVSKRQKjUaD/Eip0WjMHxEHo9FolEqlWq02Go0ymayxsVEoFJrdxgbzp0KhSExM3LZt29GjRz/44IPDhw9PT08jliPKIIvE9Hq9UqlEqq9SqRBltFqt0WhUq9VKpdJcTcT7Ih9VKhVSL61Wq9FokJSIQzVjGOKQzMooFAqkWIFA0NTUJBaLl8O5o5z/qdFonPX8T2z9H575UyAQNDQ0LCws4PaLFRgGFAAK2F0BHo9XXFycn58fGhra29urUqk4HA6BQEhPT4+MjBwdHe3r68vLy8vPz8/JySkpKSEQCAMDAyqVisFg1NfXEwiErq4uuVw+ODiYk5Pz8OHDiYkJIpGYn59fXV3d3NzM5XJZLFZ1dXVxcXFra6tMJisrK4uOjs7LyyMQCFKpVCwWp6amhoeHEwiEmZkZGIafcpp2l8hkMolEosuXL0ulUjTGYMKfEARJsAtSqRSGYWzdol1KA/yJpmeCvLhVwP78KZPJdu3a9d1331EolJGRkdDQUBKJpNVqJRJJVFRUaGhoUVERBEEqlSozM3NgYCA6OjosLGxqaio0NDQ/P5/NZo+PjycmJjY3N4eFheXn5yOr2FtbW+Pj41NTU4eHh7VabW9vb05OTl5eXkREBJFIRJa5V1ZWRkRE1NfXSyQSGo3W0NBAJBIjIiKys7P5fH5aWtqbb76ZmJgoFAoRn7HB/MlkMr/44os7d+4IBILu7u7AwMCZmRlk49/w8PCQkJDy8nIYhsfHx8PCwtrb2yMiIuLj44eHh8PCwmprawUCQWlpaVhYWHV1dXh4eEVFhVKp5PP51dXV0dHR2dnZNBpNr9d3d3dXV1cTCITo6Oiuri6FQkGhUHJycmJiYvr6+lQq1czMTHNzc01NTWhoaHV1tVQqjY6Ofvfdd/Py8p6aAIn/8U+VStXQ0LDSuR1m8N4wHwNBEJlMLioq2rAn2v4gPPOnwWBQq9Uof7DH7ZcyMAwoABRAr4Ber79//76Hh0dCQgKTyVSpVCUlJcnJyR4eHllZWSaTSSAQ3Lp16+jRoy4uLu+9956vr+/Nmzfv3LnT1NSUmpp66dIlDw+PGzduEIlEb2/vr7/+OiYmhkAgnDx58jGtubu7Hz16tLOzMzAw0M3N7caNGx4eHlVVVUqlks1mh4eHX7t2LT4+HvklnUQieXp6RkZGJiYmKhQK9FXDtgQej3fkyBGxWIymWPT8CUHQ+Ph4LXahrq6OzWbb7vJwmxLwJ5qeCfLiVgFc8OeRI0cyMzPlcrnJZDL/Wenl5fX2228j3/u5ublcLnfbtm0+Pj7Jyck/+9nPLl++fPHixXfffbe0tJRAIPzhD39wd3e/devW22+/nZGRUVpaeuTIkVu3bvn7+58/f35wcDAyMvKNN95wd3c/ceLE+fPnJyYmioqKrly5EhMT4+bm1vAk7Nmz58qVK4cOHXrjjTdIJFJubu4777yTlpYmEonswp/z8/M//PBDb2+veQgXGey9fPnyRx995Obm9sknn1RXVxcUFPziF7+IjY2NiYn5+c9/7unp+f3332/ZsqWmpub48eMvvfRSZGTktWvXNm/enJeXl5qaum/fPn9/f19f34CAgKWlpbt37+7YsePatWs7duy4fPny+Pj4/fv33d3dQ0NDPT09h4aGKioq9u3bd/PmzS+++GLTpk1jY2NJSUnvv/9+cXGxw/GnTCYLCAjo7Oy0+EIC/lzugPHMn2D802IHBpFAAaCAWQGDwRAXF+fl5UUgEAQCgVQqLSsrO336dEBAQHd3t0gkYrPZoaGhJSUl/f39P/30E5/PF4lE4eHht2/fvnz58uHDh729vffv33/nzh1PT8/ExESlUkkkEuPj4xkMxvj4uK+vb2dn586dO3/44Qdvb++jR4/eunWLyWQKBIKkpCRPT8+MjAy1Wi2VSkdGRmJiYk6fPh0bG/uU0zRba8cLpVLZ2NiIcnUPev6USqVtbW2tGIXm5ubIyMjJycnlTs1BrwF/2vHtAI9ePwVwwZ/Hjx+vqKhAvpfFYjEEQQaD4fe//31xcbFQKAwKCvrmm286Ojq2bt1aXV2tVqv/9m//dteuXUNDQ/v27YuPjycQCO+//35HRweTyfzpp59OnTrl7++/Z8+e4eHhlpaW119/3dvbOzw8/He/+11hYSHyW2Z2dvaXX375mDanpqYOHDhw+PDh5OTkXbt2xcTEDA0NffHFF01NTUKh8MCBAwsLC+YJMxs8/jkzM3Pq1Knh4WHEAJFIpFQqFxYWXn/99bq6Og6H4+7u7unpmZyc/Itf/GJkZEQoFP77v//73bt3CwsL//SnPyUnJx8/fvwPf/gDg8EgkUgffvjhhQsXPD09r1y5wmAwKisrX3nllYiIiICAgE8//bShoSE9Pf3GjRsxMTF//OMf/fz8BgYGDhw4cPfu3bS0tOPHj9fX1z+envT666+TSCQqlXr8+PFnz+PG//gncv6nUCi0+EYB/lzunvHMnwwGIzk5eXBw0GI7gkigAFAAKGAymSAIqq+vz83NvXXrVl9fn0aj6e/vr6+vz8nJCQ4O7unpMfPnuXPnJBKJVCqNjIz08/O7ceOGj49PaWlpfHx8XV2dt7f3Y6RUqVS1tbXR0dE0Gm1qaur27dtdXV2fffbZ3bt3KyoqEhISampqCgsLfXx8iouL6+vr1Wq1RCJJTk4ODQ2tq6tDpvLisF30ej2PxzOvM1qbhZjwZ19f33IfhOYagqD09HTAn2trTZALKLABCuCCP3fv3n3p0iUGgyESifz9/YuLixUKxR/+8IexsTGDwZCfn79ly5aHDx9u3bp1bm5Oq9X+3d/93f79+ykUyvnz5xH+3LJlC5/PFwgEvr6+J0+evH379rFjx2ZmZtrb23/961+fOXMmMjLygw8+aGpq6uvrCwgIiI6Ofu+99/70pz/t37//1Vdf3b59e2Rk5IkTJ8rLyxUKxcmTJ5H1jQcPHqRSqeZm2GD+ZDAYBw8ezMzMlEgkAoHAw8PjsbcjkUi///3v6XS6Xq+Pjo52cXGJjIz8xS9+wePxRCLRL3/5y4KCgqqqqs2bNyP8+dZbb2k0mqGhoV27dl24cMHX1zckJEQkEj3+Hfc///M/r169GhQU9OOPP87Pz7e2tgYEBNy+ffu///u/33rrrb179/7xj3+8ePEi8hPy5ORkX1/fpk2bSCQSnU4/ceIEi8UyK4Nc4J8/DQYDj8eDYfgpy5GPgD+X+3s886dCoVhYWEA5YcxiH0AfiSwdX1xclMlkyC9Her2ey+Wy2WzMT/XU6/UCgYDJZJqXNKvVag6H8/ib0ByDvkagBKCA4ypgNBqlUuns7Kz5fEuDwSAUChcWFuh0emRkZEVFxeDgoJubm1QqlclkcXFxwcHBQUFBAQEBBALh5s2blZWVt27dSktLMxqNY2NjoaGh3d3dycnJhw8f7u7uPnPmzK1bt+rq6ry8vEpKSpD9h8yTbLVaLYPBWFxcxPNiAaFQ6Orqavf1n1KpFPDnchdsvgbjn477/QMst6KA/fkThuELFy5s2bIlOTnZx8fnzTffLCsr02g0u3btun79eldXV3BwsK+vL4PB2LZtG8Kff//3f3/w4MHl/Pnee+9VV1fn5ua++uqrvr6+oaGhmzZtSnkS3njjjZiYmMjIyI8++qi1tRXhz8cbC7m6uv7000+1tbVnz57Ny8urqak5efJkdXW1Uqk08+c333zT3Nxs3jNgg/mTz+cfO3bss88+y8vLu3Tp0htvvNHR0aFWq7ds2ZKSktLe3n7t2rWkpKS8vDwzf/7qV78qLi5ezp+vvfZaV1dXbGzsb3/72+Dg4Nu3b2/btq2goCAmJuYvf/kLkUgMDg52cXGhUqkIf5aUlHz++efnz5+vqqq6du1aU1NTaWmpt7f31NRUf3+/mT+//fZbMpn8lE/FP3/KZDJ/f/+Ojg6LrwTgT7PDUygUeOZP5FAi88QEi6258ZHIMML4+Hh2draHh0dbW5ter6fRaMji7cDAwPHx8cnJyYmJiUePHnG53PHx8aGhoYWFBZ1Ox2KxpqamRkdHkfkOCoViYmJifn5eIBBQKJSFhYVHjx5NTk4ajUahUDg6Ojo+Pj41NcVms3Nycq5du9bf3z87OwtBEI1GCwkJiY6O7unpefYXoo3XBDwRKIBbBSAIIhKJ/f39VCo1MzMT+farr69vaWkRi8UdHR0FBQUzMzNKpbK4uLilpcVkMslksqamppSUFGRziunpaalUOjg4mJKSMjs7q1Ao8PalZIv4IpHI3d0d8Ody94era8CftnRjkMbhFLA/f5pMJqFQGBIS8uWXX27bti0hIQFZbzk8PLx3795t27YdOXKksbERgqArV64wmUydTrdz505/f38OhxMVFVVWVkYgEH7zm9989NFH27dvv3nzplwu5/P59+7d2/YkPN5UQKfTlZSUuLm5DQ8PT09P5+Tk0On0srKyL774Ytu2bd9++21fX9+jR49CQkJ6enrUanVISMjg4CAEQadOnTp37tzjlR7IYMIG86fJZKJSqRcvXtyxY8e2bdvM6y3z8/MRyx9vgTA7O9va2nrgwAGJRCKTyQ4dOtTe3t7T03Px4sWysrLjx4//27/929atWz/99NOIiAiDwcBkMr29vbdt27Z9+/bHYK/X6wsKCiIjIzkczvDwcE5OztLSUm5uLvLE7777bmRkpKenJzU1lcFgzMzMIEtnuVzusWPH/P39ZTLZ8h6Pf/6USqXe3t7IXxLLLUeuAX8ud7p45k+VSrW4uIjyD6ZnOwCaGL1ePzExERERcezYsaioKD6fbzKZFhYWHq+p3r9/f0dHh1arzc/PR75wvvzyS09Pz6+//nrTpk0HDhyYmJi4efPmsWPH9u7d+4//+I8wDD9ed/3mm2/euHEjOjr6woULPj4+27dvf+211wQCQWRk5FdffbVnz56dO3eSyWSj0Tg9Pe3i4nLq1Kni4mIej6dWq2traw8ePOjj40On09FUCuQFCgAFliswMzMTEhJSXFwcGBhYWlqKw8Wcy621/Ro9NoP5t8u9J7bXgD9t78kgpQMpgAv+RKOXWq0uLS397LPPRCIRmnJsybvx/GmLVSulEYlEp0+f3rx5M7IF30rJMIzHP38qlcry8vLp6WmLtV4//pTL5WKx+FmfhNv9b+VyOZfLxfP5nzExMWQy2WI72iVSqVQWFRWFhYWVlpYODAwgRwvm5uY+3iy6pqaGSqUqlcq8vLzQ0FAWi2U0Gj/44IPJycnBwcFz586FhoaePHkyMzOztLT0v/7rv8hk8vDw8NGjRzUazc2bN0tLS00mE4PBeO2119rb2z/66KO0tLTHPwmdOnUK2QGbw+E0NDQUFhbGxsZ2d3crFIrZ2VkikRgaGlpVVWUXNcBDgQJOo4DRaEROZTOZTBqNpqur6+rVqxkZGRvwJ8fGaKhSqdra2vCw/xCYf/vsHwkKhQLw58a8COApG6yAw/OnTqcbGRlJSkoyr7hYPwUdiz8VCkVBQUFUVNSGrQTDP38ajUbkFFOLnWT9+JPFYlVUVHC5XKFQuNzB4JM/kX3wGxoacMufIpGoo6MDb4N7yELrmJiYiIiI4uJiCoViNBoJBIKvr29qampzc3NSUhIyv8NkMm3dunVqagrhz7CwsB07dpw9e/bSpUsvv/zyw4cPR0dHz549q9Fo7ty5k5+fr1arx8fHX3vttY6OjjfffPPHH3/86aefvvnmm6SkpK6urvT09NDQ0IyMDBaLJRaLm5ubU1NT/fz8ampqLPZzEAkUAArYroBer6fT6Twez/YsjpWSx+Pt27cPJU6D8c/lnh3ba8CfjvVCAWttVMDh+dPGemKSzLH4E5Mqr6oQ/POnUql8+PDh3NycxXqtH38yGIyEhISCggLk9FHzWCgEQb29vRkZGVQqlUajMZlMCILEYjH1SWAwGEKhUCqVstnsxcVFGo2GxFOp1MXFRbFYjBwhgNyi0WjIHGw2m42kZLFYMpkMgiA6nY7EILlgGF5cXESeyOfzpVIpi8UyP1EkEtHpdGQHyPLy8vb2dkxc6djYGIFAwOpHIp1OB0EQyh/sLfYB9JFGo3Fubq68vHxmZgbZUlKlUnV2dtbW1qanpyPbiZlMpn379s3NzY2Ojnp4eLS2tkZERLS2to6Pj+/atUssFk9OTl67dg1ZOBAcHDwyMhIeHv7aa6+Zd0zp6em5f/9+95NQXV1t3rsSOZlmcHAQn+KglxeUABTYYAUMBgOHw0GJZxts86oeJxaLb9269dRqmlWVYDKZMOHP3t5eLkaBzWYnJycPDAxgVB5XJBJh4grXUAjgz9X2RpDeIRQA/LmKZgL8aV0s/PMnBEHh4eG9vb0WK7J+/KlQKJaWlmpraysrKx88eEAikcbHx6Enob293dXV9f79+7GxscnJyTQaraurKyAgID4+Pjo6uq6ubmRkBNnuIi4u7u7du8HBwTFPQk9PT2dnZ8KTkJiYeO/evcHBwYWFhaysLCQyOTmZQqEsLi4GBgYmJCSEh4cHBgYODAzMz8+HhobGx8fHxcWVlZXNz88nJSXdv38/Li4uKCiosbGxr69v586dx44dCw8Pxyd/8ng8IpG40u8IFhsXD5FTU1OPHj1C1owRCAShUMjlchsbG5VK5aNHj7q6ugYGBoqLiw0GA5/Pb2hoMBgMk5OTBAKht7c3Pj7+tdde0+v1VCq1sbGRTCa3tbWtdJIQHioLbAAKOIcCRqNRq9U+tdmec1QNqYVWq52enkZZQUz4E8PzP1taWhITEysqKjA5T7S5uXloaGgN6IhJFsCfzvS6gbqYFQD8aZbi+ReAP61rhH/+1Ol08/PzK/2Sva78ifihpaWlrq6uioqKwMDAkZGR/v7+6urqL7/8MiwsjEgkJiYm9vb2enh4nDt3rrm5OSwszMvLKzs7++TJk66uruXl5ZcuXbpz5055efn58+eDg4MfPHhw4MCBkJCQtra2U6dOhYaGPnz40N/fv7q6uq2t7erVq+3t7ZOTk99++219fX1CQsLWrVuLioqioqJ27twZGxt79+5dV1fXoaEhpLSHDx8ePHjw0qVLg4ODX3311cWLF7OysvDJn2w2Oz8/f2xszHqHxNtdrVar0WiQrT5gGDYYDHq9XqlUIjFKpVIulyPXSLxer29oaKioqGhrayMSiYcPHzaZTEajUaPRwDCM8u9FvIkD7AEK4FMBg8EAw7DTbDX0rMharXZ2dhbl9wkm/Nnd3T2DXUA2CcekvP7+fmRpPSY8udpCAH8+22lBjBMoYE/+vHbtWn19fZPjhB9//JHBYDhBq69TFfDPnyaTSa/XLy0tsVgshDbpdLpYLEbWhTKZTDqdDkEQj8ebnp5eWlpC9lJGDlSEYVgkEnE4HKlUiqTh8/kQBCkUCoFAwOFwkPHMpaUloVAIw7BUKhWJREiC5f4GhmEmk9nX15eamnrgwIG8vLy9e/dWV1dLpVIGg9HT07Nz505vb2+ZTNbd3R0QEBAXF3f8+PEbN27Mz88HBQVlZWUtLCy4u7tfvXo1Li5u7969mZmZMpnMzc3t4MGDkZGR9+7do9Foj/nk5s2bJSUlY2Njhw4d4nA4j88V+Pjjj7Ozs93c3L788svAwMA7d+4EBQUNDQ25urrm5eXR6fRjx44dPnx4dHT0wIEDfn5+uF3/iZx5wOFw1qkn27dYnU6HDNEbjUYWi1VTU3Pv3r2qqqrZ2Vn7GgaeDhR4ARXQ6XQMBgPZ0dopq++U538u97norxcXFwcGBtCXs7YSAH865XsHKmU3/qyurr548aKrq6ub4wQfHx8ndkLoXwaH4E+NRjM4ONjd3a3T6UQiUUtLy9zcHHJyY09PD4lEkkgkc3NzRCJxZmZGKpVSKJTx8XGES5lM5sTEBJ/Pl0gk8/PzFAoFWclJo9HGx8fFYrFEIpmZmWEwGHK5XCAQMJlMiUTylMuBYZhKpZY/Ce7u7vn5+V999VV+fv709HRPT09/f/+pU6cuXbo0Pz9fVVXl7e2dmJiI8OfCwkJwcHBOTg6FQjHz59dff52QkDAzM3P27FkPD4/c3Nzr1693dHSMjIy4uLgQicSJiQmEPxsaGhD+vHLlyunTp6empkpLS2tqaizy5+HDh/38/Orq6vA5/ikUCltaWqhUKvpOi8MSIAjavn07YhjyywiPx5PL5Tg0FZgEFHB6BXQ6HZ/PR7k8Es8qSSSSoKAgCILQGInJ+CeG+98+5XZRfgT8iaZvgLxAAYsK2I0/9Xq9xtGCVqtFf0yWxWZAIqlUKoFASHPY8NJLLz07h0cqlUZHR1up9cbfMjwJyFRGvV6P7N1iNBp1Oh3ipWAYhiAIhmGFQgH/XzBfm9MgCazHP+X2RCJRbW1tWVmZj4/PxMSESCRqbGw8cuSIj4/P7du3Y2JiaDRad3e3l5dXwJMQFRVVXl5uhT9379598eJFPz8/Dw+PoaGhx9Oobt68efny5XPnzl24cGFiYmJ6evop/iQQCPv3709PT9+zZ09qauqz/Emj0fz8/E6dOhUXF4dP/jQajXq9fl1fxo3vluYnKpXKW7dumT+CC6AAUMC+CjjrVw2iKuL7UCoM+PMpX4/hRzD+ibJzguz4VMBu/IlPOexr1ejo6P379z0dNty7d8+8D6dZSRzyp9m2py7Wb/0nDMNcLre5ubmsrCwlJWVgYEAulysUCgiCenp6wsLCcnJy0tLS5ufnYRiWy+VDQ0MxMTHV1dUsFotGo+Xl5VVXVy8tLTU1NZHJZC6XW15eXllZmZ2dfeDAAXd398jIyIGBAalUqlAoJicnU1JSIiMjh4eH5XI5h8N5POdWJBJNTk7GxcWRyWQYhqurq6OiopKTk+VyOY1GKy0t7e/v5/P5ubm5WVlZMAyPj4+HhYWFhITgkz+lUmlfXx+LxXqqBZ3jo9FoBLvXOkdTglo4gQJ6vR6GYY1G4wR1sVgFGIZLS0uVSqXFuzZGAv7EEDifKgrwp42dECRzLAUAfzpWezmetYA/FQoFg8FITEwsKyurra1dvo07yvM/6+rqzpw5U1JSIpPJnvJY6D8KhULcrv9kMBhJSUkDAwOO9z7YYLFarc7OzrYhIUgCFAAKrLsCGo2Gz+c78QR4Pp9/4sQJsViMRkrAn+h97kolAP5E0zNBXtwqAPgTt03jJIYB/lQoFGw2u6Kigs/nP+VgUPLnwsJCY2Pj9PQ0Mpr6VOEoP+KZP+Vy+eTkpLMuxpbJZJ988omTvP+gGkABB1fAYDAolUqtVuvg9VjRfJVK1dLSgnLOBeBPlA7XSnbAnyv2XXDDkRUA/OnIrecItgP+tOJXUPKnlZLR38Izf6rVag6H46wjEnK5/LvvvnOElxvYCBRwfgWQ1ebPLi1xppqjX+AK+BO9z12pBMCfzvSugbqYFQD8aZYCXKyLAoA/V3IqyPpPMplcVFRkJY29buGZP9lsdmFh4fj4+Lp0WXsXqtfrR0ZG7G0FeD5QACjwVwV0Op1SqdTr9c4qh1qt7uvrQ7nAFfDn+nlqwJ/O+uq94PUC/PmCd4B1rz7gTytuCYx/rq3/UanUiIgIEom0tuw4z6XVaolEIs6NBOYBBV4QBVQqlUKhQD9CiFu5hEKhi4uLRCJBYyHgTyuOHuUtwJ9oeibIi1sFAH/itmmcxDDAn1Z8D+DPtfVyoVDY2tpKo9HWlh3nuZaf/4lzU4F5QAGnV0Cn0znx4k+TyQRB0IMHD2AYRtOUeONPGIb7+vrq6uo4HI4VF2zjLXD+J5q+AfICBSwqsC78KZVKKysr4+PjM0B44RV48OAB3s7/tPgmmEym9Tt/ZSUnB/hzpbawHm80GrVarbOuyFKr1SkpKdYVAHeBAkABoAAmChiNRpVKpVaru7u74+PjyWSyXC4nEolZWVl8Pn9paSk3N7eoqGhpaUksFpeXlxcXFwuFwrGxsdjY2KGhIZPJJBQKs7KycnJyWCxWS0tLVFTU1NSUXC4fGxsrLCwcHByUyWTNzc2JiYlMJlMul1dXVxcUFF9DVMgAACAASURBVDCZTBiG6+rq0tLSeDwen89PSEhYyVcqFAqhUDg0NDQ6OiqRSCwmo9PpjY2NIyMjEATJZDJ/f/+ffvppYmJCoVDIZDISiTQ9PQ1BkDnv9PT08PCwWCyemZmpra01xz97AfgTk54GCgEKLFdgXfhTqVQODg5WV1c/BOGFV6C2tnZsbGx5n8PtNeDP5X4Xz+s/BQJBU1MThULBbV9CaZgTLzZDqQzIDhTYYAWgJ2GDH7qRj5PJZPHx8RKJZGxsrKSkZGJiQqlU9vT0EIlEsVgsEonq6+ubmpqEQiEEQe3t7S0tLVKpdGFhobi4eGZmxmQySaXS6urqyspKDofT399fUFBAoVBgGJ6bm6uvr5+cnIQgqK+vr6SkZGlpSS6Xd3R01NXVLS0twTDc3d1dWVkpeBKys7OX+yDzNQzD/f39d+/edXNzc3V1TU1N7ejoiIiIIBKJUqmUSCQ+fPiwr68vLCzs5MmTly9frqmpWVhY+PHHH3fs2JGYmNjY2BgWFnbx4sUrV67cvn2bwWC0trYGBwdfu3btwoULvr6+N2/e3L9/f0hIiPmJT10A/tzIDgme9YIosC78+YJoB6rpZAoA/lzudPHMn859/ufjwx58fHyc7OUC1QEKOKgCQqHQWY96QlqEz+cfP34cz+d/yuXy0tJSFxeXwsLCysrKhoaG8vLyzz//PDQ0VCgUhoaGBgUFlZSUnD171tPTMzs7m0QiMZnMs2fPfv3112VlZRkZGQEBAdXV1bW1tV999RWZTE5KSjpz5kxlZeXVq1e/+OKLwsJCNze3LVu2LPeAy68BfzroywvMxrMCgD/x3DrAtg1VAPDnco+LZ/5UKpU0Gg3lhhkb2rdW8zCZTPbxxx+vJgdICxQACqyXAponYb1Kx0G5arV6aGgI5RrXdV3/ifDnvXv3mEymUChksVi1tbVP8SeRSPT29r569aqnp2d8fPzc3Nz58+ePHDnS39+fmpqamZnJ4/EUCsWRI0eKiori4uJu3LghEAgiIiLOnTs3Pz8fEREB+BMHnRGY8AIpAPjzBWpsUFXrCgD+dBT+VKlUTCZTJpNZb1AHvatSqcLDwx3UeGA2UMDJFICfBCer1PLqaLXayclJnU63PHK11xvAn25ubg8fPqytrS0pKSkvL9+3b5+np2dHR4enp2dQUFB7e3tWVlZKSsqFCxd2797d0tLi6uq6b9++urq69PT0+/fvt7W1kUikPXv2tLe3JyYmmvnT3d2dQqFERUUB/lxto4P0QAE0CgD+RKMeyOtUCmw8f8rl8unp6c7OzuXgh5NriUQyODg4OjqKiT1jY2MEAkGhUGDSY1gsVlZWlrMekmkwGHg8HiZCgUKAAkABlArMzs5OT0+jLATP2UUikbu7u1QqRWPkuvInDMM9PT137tzx9fX18/NLT0/v7e2NiIhwc3MLDAwMCQkpKSkZGBhISUnx8vK6du2an5/f8PDwgwcPTp48mZycXFNTExkZ6efnFxQU5OXlRaVS6+vrs7OzxWJxZWVlWloam82uqqq6efPmSs4OzL81mUx6vX5mZgarbedVKpVEIkH5qweaHgvy2l0BwJ92bwJgAF4U2Hj+VCgUEolEIBCs5PbsGA/DsEgkEovFmNiALX9yudzKykpn/aNQo9EUFBTg5a0AdgAFXmwFZmdnkV12nFUGLpe7e/dukUiEpoLryp/I5rfT09MtLS0dHR1UKlUkEi0sLDQ2NnZ3d1Op1KWlJaFQODExUV1d3dbWtrCwIBaLaTQakUjs7u5mMpkUCqWhoaGnp2d+fl4mk/F4PDabDcMwl8tlsVgQBHG5XCqVupKzA/xpMpmQjdlLSkrQ9BNzXh6PNzk5idVP0uZiwYUDKQD404EaC5i6vgrYhT9XcnhOFo8tf2o0Gh6Ph/LAuvXtTChKl8lkW7ZsQVEAyAoUAApgpoDsScCsOPwVBMNwcXGxUqlEY9p686dCoYBhWCKRSKVSGIaRj2KxWCqVmn2lXC4XiUQSiWR5AuQjDMNPJTbnsuUC8KfJZFKpVKGhoZmZmWj6iTkvm81+9OiRXC43x4CLF00BwJ8vWouD+q6oAOBPWzzx2tJgy58mk8n4JKzYlo58Q6PRVFRUOHINgO1AAedRwIm/apBGMhgMcrncaDSiabMN4M+1uR5McgH+BPyJ5u0AeS0qAPjToiwg8kVUAPAnJq7aYiHY8ufS0lJpaenk5KSzdlODweCsVQP1Ago4lgLj4+POutQcaQixWHzz5k2U27kB/rTo+DCJXFxcTElJsftbA8Y/7d4ETmYA4E8na1BQnbUrAPgTE2dpsRBs+ZNOp8fHx/f396+9sXGcUy6XHz16FMcGAtOAAi+QAi0tLQ0NDU5cYT6ff+TIETyf/2nRp2xkJBj/BOOfTvwNYK+qAf60l/LgubhTAPDn+nl0bPlTo9EIhUJn3boAgqCvv/4ad68HMAgo8EIqIJfLIQhy4qrrdDoGg6HX69HUEYx/rp/3BOOfaHomyItbBQB/4rZpgGEbrQDgz/XzoNjyp1KpZDAYKA8M2OjuZfPzkG3ubU4OEgIFgALrqACXy11aWlrHB9i7aI1GMzIyotVq0RgC+HP9vCfgTzQ9E+TFrQKAP3HbNMCwjVYA8Of6eVBs+ZPBYCQnJw8ODm50F9mQ5xmNRmcd2t0Q/cBDgAJYKlBVVVVWVoZliTgri8/nf//992D+rRX3B+bfgvm3OHtrncEcwJ/O0IqgDpgoAPjTigNGeQtb/hSLxV1dXQwGA5N2x1shKpUqOjoab1YBe4ACL6YCAwMDfX19Tlx3sP/Qc70b4E+EP+/du7d///4gLIKXl5ebm5u/vz8WhYEy7KZAYWGhRqNZ29cj4M+16QZyOaECgD+f64bXnABb/jQYDFqtFuWCJdz2YJlM9t577+HWPGAYUOCFUkCpVDr3fAStVjs3N6fT6dA0K5h/u2bn+NyM+Jl/GxgY+NNPP+VgEbKzs7OysrKzs7EoDJRhHwVCQ0OPHDmy5pPYAX+i+coFeZ1KAcCfz3WEa06ALX8qlUoqlSqRSJyq//1fZXQ6XWdn5/99Av8HCgAF7KkABEEozyaxp/U2PFuj0YyNjYH1n1a8Gxj/NM+/TU1N1YAAFHiiwOjo6KFDh+RyuQ1fMxaSAP60IAqIejEVAPxpxQGjvIUtfyK/Bzvr+k+TyQTO/3wxv4JArXGoQGZm5oMHD3BoGFYmCQSCU6dOofw5D4x/onSRVrLjZ/wzNDQ0MzMTq44HynF0Baanpw8fPgz409HbEdhvfwU2nj/lcnlPT4+7u/tVjEJ4eDiDwbDiyex1C1v+pNFoUVFRvb299u80TyyQLDbPNp+eaz6Dyb/h6u8//PBDnFQNmAEUcEQFKJ1XMXkZ55rP+F7cHHo/2BFFsNFmHo+3b98+kUhkY3qLyTDhz6qqKow8IcbFXL9+PTc3117eE/CnxS4HIu2uAOBPuzcBMMBJFNh4/oQgiEwmFxQUSLEINBotMzOTRqPZy01aeS62/Gk0GnU6HX4GCcX0ev54tEFCxuSflNny6bb3neSlAtUACthDgfnW85i8jAYJmTcRz50rt0clNuiZRqNRo9EYjUY0z0PPnwqFAoIgKV4DBEFWHNy63gL8iaZngrzrp8A0GP9cP3FByS+UAvbiz6KiIky8F4vFysrKehH4U6VSLS4u4uf8TzG9XjARa4IGMfmnF/fMtV99oV49UFmgALYKzLeex+RlNEGDoplkIaUSW/NwVZpGoxkdHbX7+k9MnKBTFgL4E1fvCzDGrADu+NOIdTBXFVwABdZVAcCf6+e8sR3/pFKpkZGR+Jl/iy1/agRdBfEn1rWrg8KBAs6tAOBP29uXy+Xu3r3b7vNv18/7OHrJDsqfBoNBLpfz+XwudmHNW63a/jqgT6nX60UiEXaV5goEAnzu9o8v/tTr9WQyOS0trRqj0NTUxGKxUM4MQd+fQAkvggKAP9fPT2PLn2KxmEQiLS4u4qRbYsufMnb7Xz54BydVA2YABRxRAcCftrcaDMP5+flKpdL2LM+mxGT+7fo5IIcu2UH5E4ZhEonU19fHwChUVFQQicRn+x7eYrhcLoFAwKjSjPn5+YiICD6fj7dqmkwmfPGnWq1OSkpydXXtwii0tbUNDw/jE/1x2BuASWgUAPy5fk4aW/40Go16vR5X6z8xnH8rZbW//ec30fRkkBco8IIrAPhzVR0A/Z9YgD/Xz3s6KH+KRKLi4uKBgYFVdUUriR88eBAc7AA7gc3Ozt69e9dKRVZ1C4bhvXv3LiwsrCrXxiTGHX+mpqZGRkZiVXmRSDQ2Nob+yxEre0A5TqwA4M/186DY8ieHwykuLp6cnMRJb8R2/FMj7K5MO4WTqgEzgAKOqADgT9tbDYZhAoEAxj/Xz/2hLBnwJ9KZAX/a/lJvTErAnxujM3iK8ysA+BOlm7SSHVv+pFKpERERJBIJJ50SW/7Ui3tG6y/jpGrADKCAIyoA+NP2VuPxeIcOHQLrP634L/veAvyJdGbAn7a/1BuTchpX+9+q1Wow/rkxDQ+egrkCgD/Xz8tiy5/ITr+PHj3CvA+srUBs+VPKan/nbTD/dm1NAXIBBf6qAOBP2/uBQCD44YcfxGKx7VmeTQnm366f9wT8ifQ3wJ/Pvnf2jQH8aV/9wdOdRwE78qcci8Bms8vLyxcXF7EoTA5BEJf7143XMHGr2PKnyWRCttnGSed7wp8xJlk/Jv/k7I6D335p0sPr90+vhYwGHU7UA2YABTBX4K/8idH7KF3IktAfrt/LaNTKtAqufd9H9GvpAX9i4igtFgL4E/l+APyJ+fckygIBf6IUEGQHCvz/CtiLP/Pz88X4C2w2u6ampr293aJHXG0ktvypUCgWFhZQThjDsN+L6fX88SiDhOQo/+TsZq1KgKECoCigAK4UmG897ygvo3qpjj0cqlUJ7SWgWq0mk8kajQaNAYA/V+sTbU8P+BPpmYA/0byh65F3Gsy/XQ9ZQZkvoAL24s+ioiLbXdGGpRQKhfX19fjkTzqdHhcX19fXh5Neiu38WxM0uN7/YE4r4E+cdB5gxnoogOH82/V+GTX8FvajMDvyJ4/HO3z4MMqf8wB/rp9rBvyJfEUA/lyPr0o0ZeKOP1NSUu7cucPDKMzOzra3t3M4HIzKA8VsqAICgQD9xB40r8eq8gL+XO5B8cyfUqm0v7+fzWavqn3XLzHgz/XTFpQMFFiDAoA/bRcNhuGysjI87H8rkUgw/AOFz+dDELTcqTnotePyZ2FhYWtrqwijEBMTc/v2bUwKEwqFUqlUp1uXRSizs7N+fn6Y2CkSiZhM5jfffDM0NIRJgUKhEIZh278crKfEHX/GxMTs2LHDB6Nw7dq1CxcueHt7Y1QeKGbjFPDy8rp06ZJcLrfeg/FzF/DncveMZ/7U6XQQBKnVapx0HsCfOGkIYAZQAFEA8KftPUGv1/P5fJS/FKMf/4QgqL+/vxi7UFRURKfTlzs1B712XP5MTk6+efNmJEbhwoULZ86cwaSwoKCg5ORkFotl+2tie8rZ2dmTJ09iYmdkZGRoaOiePXsCAgIwKfDu3btVVVW218V6ymm8zb9NTEw8f/58CwgvvAIPHz58//33Uc7qsd77sb0L+HO5e8Yzfy4tLTnx+Z/rPd/PBA2C+bfYfnWA0vCmAOBP21tELBbfvHlTJpPZnuXZlOj5UyqVdnZ2jmAUhoeH4+LiJicnlzs1B712XP7Mzs7Ozc3txV8oKioKCgqamZl5tiejj5mdnb169Sr+Kv1XiyIjI2NjY9HXESkBd/yJ7fkrWMkEytl4BWQy2Y4dOwB/WvF5EASRyWSw/nO1nZPFYmVnZ4+MjKw24zqlB+Of6yQsKBYosDYFAH/arhuXy/3mm2+EQlQbIGHCn319fVbc5apuQRCUnp4O+NP2bvDclCqVKjQ0NDMz87kpkQQikai4uHhgYMDG9BuZbHp6Ojk5eW5ubj0eOjs7e/fu3fUoGX2ZDx8+TEpKQl8OUgLgT6yUBOVgrADgz+f6S8Cfa+tzOp1OKpWqVKq1Zcc8F+BPzCUFBQIF0CgA+NN29cRisZeXFx7GPwF/WvybwXHHPwF/2v4abkxKwJ8bozN4ip0VAPxp0ZcsjwT8ueY+ajQa15wX84yAPzGXFBQIFECjAODPVamHcvGnyWQC45/LPTu214A/V9WZbUkMxj9tUem5aabxtv4TzL99bpu9IAkAfz7XCQH+XNu7AEHQ6Ogol8tdW3bMcwH+xFxSUCBQAI0CgD9tV0+hUBCJRJTTSQB/PtfdrzkB4E/bO7ONKQF/2iiU9WSAP63rA+7aTQHAn8/1N6viT7FYLBQKn1smVgnwvP8Qg8FISkrCz8ISwJ92+5YBDwYKWFIA8KclVSzH8fn848ePi8Viy7dtiwX8iZXnfbYcwJ+29cFVpAL8uQqxVk46DcY/VxYH3LGnAoA/n3UkT8Wsij8fPXqE4fKYpyx59iOe+ROCoJGRETD+ueadcsH+t/b8ZgTPXn8FAH/arrFSqaytrQXjn886QZzEAP60vTPbmBLwp41CWU82DfjTukDgrr0UAPz5XO9lO3/CMDwwMNDV1SWXy6n/H3vvAdzWdef7v0l2J9lMZnYmk8ys3+7LrifZ949fZv9xHCdO7DiOe+xYlotsRVaxOi1KMsXee6fYqyiwiRXsvfdOsBMACZAECRAA0XuvF3893f/jYySKBIELEqR+ZzT2xbnn/O6533MOfvjwtPX1hYWF+fn5tbU1mUwmFAqpVOr8/PzCwsLKyopMJuNwOGQyGU1DJpOlUimNRkM/EolEoVC4Z8HUarUz86der+fz+Rgeo2xnH4HxTzsFhOygALYKAH9ar6fRaFxbWzMajdZneTIlJuOfo6OjaxiFlZWVzMzMoaEhTOytr69zuVxr/KYj0gB/Ptnedo9Rq9W7j+cDf+4uoJV3KcCfVirlhMnQYZwBjMLg4ODMzIzzvCbw556uaF/82dbWVl1dLRAIcDhc1KOQlpZGJBL7+vqSHoXExMTk5GQajdbW1hYdHZ2SkuLu7n7z5k0ajRYTE+Pn55eUlJSYmGjllvTOzJ8cDgePx5PJZCdp7cCfTlIRUAxQAFUA+NP6liCRSHx9fZ1h/9ve3t4WjEJzc3Nubm5VVRUm9hobG4eHh/d06A5KAPxpfWNGU87Pz9fV1e2SC/hzF3GsvwX8ab1WTpeSSCTGx8f7YhQ8PDxOnTrlPC8J/LmnN9oXfxYXF2dmZhKJxKCgoPLy8q6uruzs7KGhodTU1IyMjNnZ2aGhIQ8Pj+7u7oKCgtTU1KmpqZs3b/7hD38gEomXH4X09PScnJyVlZU9C+bk4588Hq+hocFBh0fb0IOAP20QDbKAAo5TAPjTem3FYrG3t7cz8Ofo6OgGRoHBYNDpdAaDgYm9hYWF0dFRa/ymI9IcV/5ks9mjo6NdXV0sFstoNA4ODjY3N8/Ozur1eovFMjc319zczGKxOjo6ZDLZxMSExWIxm81zc3NisViv13d2djY1NU1NTSEIotPppqamGhsbh4aGpFJpRkbG2bNndzne8+D5k8fjDQwMjI6OUqlUpVI5OTmJvqxWq5XJZKOjo01NTaOjo1KpVCAQjIyMNDc39/f3SyQSBEE4HE5nZ2dbW9vq6qrJZJqcnBwcHGxqaurq6kIQRC6Xo9kHBwfVarXBYJidnd2y9tj3AJy/8neCGAyGjo6OIoxCSUnJ5OTk3z3AiT8QCIS+vj4eRoFKpb788svO87rAn3u6Ihv4s6ury83NraenRyKRsFgsHo+XkJBQW1urUqnW19dv3bpVVFR079690tJSoVAYHBz8yiuvrKysVFdXR0VF3bp16/z581NTU3sWzMn5UyaTTU5Obm5uOklrx4Q/EfnUQNv94vvhMvaARTFtlEzI2P2U6WoyoUorHFPxhisfxA603UfkUzYv+9zKCOs/naTlQDEcpID9/GkQT1Cma1ur0ygztYh8CpFPaQSjPFrn3Ei5lDmg4AwNtt+fHCjWCka3upVtF3pB7+bcXYNW5CAp9jRrMBiWlpacYf7tQW5wYI0T3ErDZDKt9JtbWTC8OK78WV9ff/XqVW9v75mZmaampuDgYA8Pj6CgoMlHIT4+3sfHJycn5xe/+AWRSDx37pzFYjEYDHfu3BkZGamsrLxx44aPj09sbOzIyMjExERMTIy3t3dERERzc7O/v/8f//jHvr6+pzX+g+fPzs7ODz74IDIysrm5ube3NzIy0tvbOyYmZnx8vKGhwf1RuH79+vT0dFdX140bN+7cufPll192d3erVKrU1FQfH59r166Fhoaura1duHAhNDTU19f34sWLg4ODY2NjLi4unp6ep06dWltbe/iXl6+//trb29vPz6+lpeWxo5WAP/+uSWi12pycHG8sgpeX19/+9jdvb++/e4ATfyAQCBjSslgsBv60p7bNZrNWq8XQbexpygb+JJFIfn5+ubm5ExMTdXV109PTcXFxgYGBy8vLNTU1N27c6O3tLSgoKCsrE4lEISEhv//976lUallZWVtbW1VV1V/+8pfu7u49C+bk/Lm5uVlaWrqwsGBPdWOYFxP+bK1J+/ivb7z1xsshftdWZuuWpqr9PS+e+vSdi2dPLIxXJMe6//r//X8+fO+1jroM+xEU+BPD2gdTTqiAnfwpYw80VSZ/+83pd9783bm/fTjRW6QXjVcWxd52Of3N5c9rSxMSIr/92+fvn/78vegQVy6t0zbyRHMdOn+q1eqGhoZjtv+QNT7O+jTAnxaLRavVJiQkFBYWWtnfxWJxVVXVLtvUV1RUhISErKysqFSqd999NzY2trCw8MqVK2FhYV5eXmVlZWq1ura29sc//vHs7OxHH32E8ueVK1daW1tfeumlqKio8vLygICAmzdvFhcXBwQElJaWzs7Otra2VlZWurm5PYZe24t98PzZ1NT02Wefra2tcTicwMBAb2/v0tJSNze36OhoX1/fzz777MGDB/n5+aurqw0NDSkpKeiPnLCwsNra2jt37mxsbCwtLd26dauysvLDDz+cnZ01GAwtLS1nz57F4/HvvPPOgwcPkpKS1tfXIyIiXn/99bKyMh8fn5s3b66trW1/ceDP7WpgeW02mxsbGz08PLA06khbwJ+OVHfftp2cP8vLy3Nzc2UyWUNDg4eHh6enZ1hY2PDwcF9f39WrV4OCgi5fvozD4TY3NysqKvB4vEgkioyMfPPNN6lUamJi4sWLF4ODg8PCwqhUqjV+15nXf6pUquXlZZHo0EYMHmtbmPDnudMfPP/v/72mJD7U//r8WEUjPum73/3uh++/lhR9x+PW2f/46X8vy4/KzwppqkwB/nxMf/gICjymgJ38uTJXf+bU+7/6r/90v/lVkM/l/tZ7Su7Qta8/+dvn75Xcj0iJ9fjik3cKckJxGUExoTc3l9uPNH/yeLwTJ07Y+XWKyf5DMP65o2s+ruOfFRUVKSkpIpFIIpGcPHkyPj6+tLQ0KyurqanJ19e3oqJCr9frdLrnnnsO5U8EQTQazcWLF1tbW//rv/6roKCgtLQ0Ly+vqamJQqHgcLiEhISwsLDCwsLq6mp3d/fHvhO2fzwU/rx27RqCIGw228vLy93dvbS0NDMzs7W1ta2tLSwsLDIyMjU1lUQiNTc35+XliUQiLpd77dq1b7/9Ni0tTSKRmEym+Pj4goKCDz74gEgkWiwWKpX68ccfLywshISEhIaGRkZGzszMvPbaa9nZ2WVlZQUFBSUlJTQabfuLA39uVwPLa+BPGP+0pz05OX+SyeS5uTm1Wi0UCvv6+mpra2dmZiQSiVqtnpiYwOPxDQ0NHA5HpVKRyeTFxUV0VUBVVZVYLOZwOLW1tRUVFSQSSaVS7ejkHot0Zv4UCoXd3d2P/WHPnqq3My8m/BkZdOM/f/5Tnztf37z+ZW1pQiM+6fvf/15avJeU1f+H3/3XT//Hv1gU0zrRuGC9W2P3lD8Y/7SzxiG7kytgJ3+KN/rSE7xefeVXpz9/z/3WV81VqXL2gOftc81VKSbpZMn9iITIb3m0LqNkQsToNYgnjjR/CgSCr7/+evf9QvesbuDPxxwohh+PPX/qdLpLly719/dTKJQHDx4MDAzExMTk5+fT6fSSkpIf//jHRCIRnVw6PDz83nvvtbe3nzhxoqysjMVijY+PNzU1DQ4O9vf3z8/P+/j4nD9/vrGx0d3dXalUPq3dHgp/Xr9+3WKxCASCpKSkkpKSpaWl2tra/v7+zs7Orq6uhytX3dzc6urqysrKYmJiiERiYWFhTk5Ob2+vr6/v/Pz8yMiIt7d3e3v7X//61+38SSKR6urqRkZGTp061dzcnJWVlZSUxGQyBwYGuru7H5tXD/z5tCZhbzzwJ/CnPW3ImfkTQ2dmpSln5k82m11UVDQ/P29PdWOYFxP+zE728/e8FOJ37Z++971Tn7zdiE/6wT99P/2ut4IzdO70B//+P/6FTKhsqU4L9rm6NFVtz+9di2Ia+BPD2gdTTqiAnfypE46112Vc/fqTOze/evfNV/zcL3Jpnd7fnu9syLQopsvyIj1une1qzBpoyw3yubJOarSnPx76/FulUvlwtp5Go7GnHoE/rXSsNiQ7rvzZ1tZWXFwslUotFktfXx+6kig0NHR6enp+fj49PT0sLKyysvInP/kJn8/Pz88PCgoqLCx0cXEhEAjt7e2enp7h4eFpaWmTk5NTU1N3794NDQ2Nj4/v6+sjk8nx8fEjIyNPa9IHz5/9/f1hYWEWi0Wn042NjSUlJfn5+UVERExMTBAIhMTExNDQ0NjY2Onp6fLy8tOnT3t7e6ekpKytren1+rq6uujo6IiIiIqKCi6Xe+vWreXlZYvFgm75sbKycvfu3bCwsJCQECqVKhAI0tPTw8PDk5KSxsfHTSbTdhGAP7ergeU18Cfwpz3tCfhzukRJZgAAIABJREFUu2t0Zv7UaDQbGxsymcye6sYwLyb8mZnk63Hr7B3XM39+/eUg7ysjnXnvvPlKTWmCUUIY6sB9euJN95tfuVz6LMDzEn+t257fu8CfGFY9mHJOBezkTwVnsKEi6dtvTt+6/uVXX/wFlx4kY/dnJ/tNDhRbFNN9LffcXM/ccjn97Td/O/PFX5Zn6+zpj4fOnw+n9gUFBTnD/rcw/3a7C966Pq78yePxNjY2DAaDxWJBEATdj5NCoaAxS0tLvb29YrH4ueee02q1IpGop6eHRqOhR5objcaZmZmenh4ikYggiF6vJxKJ3d3dk5OTJpNJq9WurKzQ6fSnfTsdPH8KhcKlpSW0PBqNZmFhoaenh0wm63Q6o9FIJpN7e3tJJJJCoaipqXF3d6+url5fX0dHL5VK5cjIyOTkJLod7vz8PDq0q1ar5+fnjUbj8vJyT0/P4uKiXq9HEEQgEKDW0J2Et4sA/LldDSyvgT+BP+1pT8CfWw7PyfcfUqvVq6urYrHYnurGMC8m/LlGbOxqzKp8EEvoL2IsNktZ/bPDZfy1LnQv3Jnh0uqS+LaaNDq5yZ4fu2heGP/EsPbBlBMqYCd/GiQTmysdY90FDRWJPU3ZnJUOs2ySRW2Tbw5aFNMSZv/CeEVbbXp3U/bscJmaN2JPlzx0/oT1n9sd347XsP+QI/YfsuZ7w2QyXb58+UmOsibvLmkOnj93Kcz2W2azeWxsrKGhwUF/Xgf+3K42ltdHkT+rq6vHMQodHR2/+MUvMDJmi5np6WkEQbZqFM5f2dGTbY+0fv/b7bkO5tqZxz9ZLFZ+fv7s7OxWYzvcC0z406KYNogn1LyRHbcXQuRTav6ITjRmzy/drbzAn4fbYODpjlbATv5Ee4pJStAKRg2SHZZ3IvIpvWjcIJ5A5NNb3cq2i0PnT7lcnpGRoVKp7KkUmH/rOL98XMc/rWlvCIKsr69v/2FpTa490zgtf1osFqVSKZVKH5s3u+cbWZkA+NNKofad7CjyJx6PH8AodHd3x8bGYmTMFjPnz5/f3meAP/d0SMCf++7kjzKsr68nJSWNjY3Zlh3zXFjxp22/X23IBfyJeRsAg06lACb8aUPPsiHLofOn2WyWSqW7HFZhTc06CX/Oz88PDAxwudw9ne++EhzY+KdhpyCTyQgEgjW14NA0mJ+/4tDS7m7cmflz95LbeRf48+8E1Gq16enpd7AIbm5uJ06ceOmll7Aw9r9txMXFOXSOH4FAGB8f3+kLx5Y4vV6v0WhsyYlRnv/8z//cvtcW8OeeHg748+++C6z+IJfLZ2ZmOByO1TkcmxD407H6gnVQYJ8KAH9aL5hCocDhcGq12vosT6Z0Ev6srKxMSEhYWVmpra0tLCxkMBh7emFrEjyNP+fn5xMTE608UnvPBz1tCygEQbb/snpS/IOJAf60Uufl5eXIyEgrEx9wMuDPvxPcYDB0d3eXOWVoaWnZZQfnv3sNmz5ge/6nTUXAMtPzzz+//VsS+HNPfwP8aVv7QxDEbDZjPifHtsJYLBbgT5ulg4yggCMUAP60XtVjsP5TIpHMzMz09fXl5OTExMRQKBQvL6+zZ8/Ozc0plcr19fXq6urJyUmpVGrl8WOP+e7t/KlSqRQKxcLCgr+/f3h4eGNj48LCwmPpbfv4NP60viodmhL400p5gT+tFGp0dNTNzW3Hk4f/m5UmtifT6XQ4HC45OXl7JFw/TQHgz6cpcyjxsP/Qdq/pzOs/eTxeXV0dhUI5lHby5EOBP5/UBGJAgUNUAPjTevEFAsGFCxeO7vmfXC63oKDg22+/9fDwuHDhQlBQEA6H+/TTT999992UlJTW1tbAwEBXV1f0uA7bRkRR/lQqlQKBYGFhITs7Ozw8vKWlhUAg2Aa0213t1vV2/lQoFDKZbGtStMlkkslkCoXC+mq1MqVOpxOJROiWs2gWjUYjk8m2r6VC44E/rZQU+NNKoYA/rRTKIcmAPx0iq61GgT+3HKGT73/LZrOLi4uP2fmfNqwcszkLrP+09UsC8h0NBYA/ra8ntVrd2NjIYrEsFotGo+FyuUql0mg0ikSizc1NdAmSXC5nsVhKpVKv13O5XB6Pp9PpLBaLWCxmMBgqlUokEk1NTdFoNIVCIRKJqFQqek4GCmwMBkOpVC4vL8/OzhKJRBTkZmdnNzY2VCoVmUyempoSi8W2nb/CYDDCH4W+vr67d+9GREQ8XALq4uLy+eefP3jwwNfX19vbu6+vr729/cKFC0Qicbubs/J6Y2Ojt7eXQCA8ePAgODg4KSmpvLwcLTydTp+dneVwOOibrqysKBQKuVxOoVBmZ2f5fD6Px5ubm1tfX1coFFQqlUAgzM7OSiQSDoczPT29sbGhVCqJRCKBQOBwOGazWSQSLSwsPHjwoLy8XC6XG41GIpE4NjaGw+GamprYbDaZTCYSiaurqxKJZGFhgUwmC4VCrVa7trZGJBJJJBKXyzWbzXw+n0qlbmxs8Pn85eVlIpG4sLDw8Kwdk8lEo9GIjwKHwyGRSKmpqf39/UQiEQVgAoGQm5s7MTFBJpO3Np5VKpWTk5Oenp6FhYVWNi2xWFxVVTU1NWVl+oNMBus/MVGbQqGcPn3a5lmiwJ+Y1IKNRoA/bRTOMdmAP7c7Y2ce/9Tr9Xw+384NGzFsRDD+iaGYYAoUsF8B4E/rNXzImdeuXWttbUUQhMPhtLe3r66uqlSq8fHxpqYmAoGAIMjS0lJ1dfXq6irqF7q6uoRCIYIgk5OTxcXFdDp9fX09Jyenra1NJBItLy8XFhZmZmYymcylpaW7d++2t7dLpdLi4uKwsLDk5GSZTLa0tBQWFtbV1aVQKNLT0/39/blcrs38GRsbW1hYyOVyy8vLY2JilpeXvby8zp0719DQcPny5bCwMBaLxWazr1+/bttcWQaDUVRU5OHh4e/vX1FRERERER4ePjw8rFQqm5ubw8LCJiYmFhcXExISSktLRSKRQCDIy8uLiIggkUizs7NRUVH19fVisbigoMDd3T08PHxjY+PhSZVBQUGdnZ1yuTwpKcnd3X1wcLC3t7eqqsrf37++vp7JZGo0ms7OTj8/v4SEhImJCSqVmpycfPXqVV9f3/Dw8Ly8PE9Pz6tXrxYUFExOTsbExPj4+Fy+fDktLU2tVqN37927l5+fHxkZGRAQ8Mknn7S2ts7NzYWGhnp7e1++fDknJ4fFYq2urqampvr7+3d1dc3MzPD5/IGBgbt37wYFBTU2NiKPwsrKiru7+/vvvw/8uWfPgvHPPSVCEwB/WimUQ5IBfzpEVluNAn8eFf5UKpVLS0sCgcDWqsY4H/AnxoKCOVDAPgWAP63Xj8fjffjhh2traxaLBZ2NqVar0QmfAoEAPYdQpVLxeDy1Wm0wGESPAjoyJpPJOByORqORSCTz8/PoOKdEIllfX19dXZXJZGKxeHl5mc1mK5VKOp2+tLS0srKiUqnEYvHS0tLm5qZKpVpZWSGRSDaPfzKZzKioKA8Pj+Li4qCgoLCwMJQ/P/7443v37oWGhrq5uZWWluJwuIsXLy4uLm53c1ZeM5nM7u7u2traqKiorKyse/fuTU5O8ng8lUrFYrEWFxf5fD466kun05VKpUKhWFtbW1paEolEQqGQQqEwmUx0JSqRSFxaWpLJZHw+n0wmowosLy8vLCw8PGgkJCTk1q1bGRkZq6ur6JGbsbGxwcHBhYWFaNWEhYVlZGQsLS3V19dfvHiRSCTGxMT4+/vHxsZeunQpICDgs88+u3r1KpPJjI+Pz8vLa29vj4yM7OvrW11dvXLlSllZGboy1t/f/4svvnBzc1tfXzebzX19fZGRkTdu3CgoKNBqtRqNprKyMigoKCQkBJ0DrFarSSSSn58f8OeePQv4c0+J0ATAn1YK5ZBkwJ8OkdVWowfPnyqVam1tbXp62koveJDJZDIZmUymUqmYPJRIJFZWVtq5xeJWxW5sbOTm5k5PT2/FHO4F8Ofh6g9PBwUeUwD48zFBdvmoVCoLCwvt/HI+xP1v0SHZ+Pj46Ojo9PT0pqYmDodTV1fn5uaWl5c3MDCQnZ0dGBgYFxdXXFzM4XBs8GhMJnNyclIkElEolLq6OhRBq6urMVz8qVarlUoliUTKzMzE4XD37t1rbW1VKBTo4GRGRkZubm5TU1N0dDQ6Uk0gEC5cuKDRaHJzcz0eBRcXl+TkZD8/v/j4eDqdnpWV1dHRMT4+HhERge6V4OnpWVZWdvr06W+++SY5Odnf3z8pKam/v7+goODBgweZmZkFBQVsNptIJKIFSElJWVpa2mo5+13/qVarFxYW0HndW0ac5ILP54+PjwuFQkeURygU9vT0OMKy/TaXlpbGx8ftt4NaoMD8W6ykPHg7wJ8Hr/kuTzx4/lSr1eg2AzZ4REdnUalU8kcBkwdhy59isXhwcJDBYOxSmwd5C/jzINWGZ4ECeyoA/LmnRFsJEARRKpV2bid+iPyJrj5FB1GZTKZIJFIqlUKhcGpqamVlRSwWo7sHUSgUPp+vVCpt8Ghb+9+illdXV9FzLCIiIhobG20wuGMWjUaDDjtzudyenp7h4WGNRmM2m8ViMY1Gq6mp6e3tjY6Obm9vt1gsk5OTFy9eRPkzPDy8rKwsNjZ2YWGhpqYmMzNTJpPdu3evq6uLSCR6eXmVlJR0dna+9dZbpaWlJSUlgYGB8/PzdXV1RUVFRCKxqalpYWEB1Q1BEBqNhm7vJxaLt+9CtF/+RBBEr9dvPxNhq8kd+oXJZNLpdNvfDsMiob8kMTSIoSmDwYCu3MbEJgX4ExMdD8UI8OehyP60hx4Kf+7oh45fJLb8aTKZ0JlgT6vKA44H/jxgweFxoMDuCgB/7q7P9rsymSwuLs7mTURQU4fIn6i7VKlUSqVy+4CkQqFAaRM9McU28kSNb/Hn1rOkUuna2lpbWxsOhxscHMTEZW/tf4uSm16v3/qjAPrjRCgU5ubmDg8PWywWEokUEBCg0+kqKyuLior4fH5HR0dWVlZRUdH8/LxGo8Hj8aOjowqFYnJysrCw8CFqfvbZZ6WlpVKptKurCx3tnJ+f12q1Op1uOyWaTCatVvskm+2XP7e3Mbg+lgpQgD+Pbr0CfzpV3QF/YuJEdzSCLX86VbOB8z+drTqgPKAA8Kf1bYDH43388cfoPrfW53os5aHz545+B6vIx/hzy6xSqUR3NtqKsediiz8f03bro8lkEgqF6F8KNBoNm81GEEQikaAnKKrVaiaTyefzzY+CWCxGJ/TicLiZmZnNzc2bN2+Wl5ejq3zRfXG3Y+fWU552Afz5NGWe2XgK8OfRrXvgT6eqO+BPe3zn7nmx5U8Wi1VYWPhwHz8naT8w/ukkFQHFAAVQBYA/rW8JIpHIxcVFKpVan+XJlM8mf+7u9fZ792n8iSDIvkBxe+1oNJrW1tYzZ868/fbb2dnZ9tQy8Od2YeHaYrFQgD+PbjsA/nSqugP+3K+/tD49tvzJZrMfPHgA53/C+Z9O9QUChXEeBYA/ra8LdFQN3ebU+lyPpQT+tN4b7pJSv1OQSqX27BmDjpQyGAy5XP5Yre3rI/DnvuR6FhJTgD+PbjUDfzpV3QF/7uIX7byFLX+aTCaVSmUwGJyk/UgYHZtT4cqN6qPyT8poMmgdsvWfk9QIFOMZV2C17wbmnVG2XslZLJPQ8Nhalq0WsaaiDFrRYVWZXq+fmZmx8+sU+NNOF4lm1+wUWCxWfn7+YTWPrecCf25JAReoApRjyZ89PT35+fk4HK6+vl4mk8nl8s7Ozry8PBwOV1xcjCAIi8XKexQKCgoaGxuLi4txOFxTU5NMJuvt7cU9Cg8ePKiuri4oKMjLyyMQCBqNZnBwEL3V19enUqmmp6cLCgrQB7W0tNi5/sGGFrkv/hwZGamvry8sLMzLyysvL0fVWFhYQBCkoaEBfa/6+nqj0bi4uNjZ2VlfX4/D4Wpqasxm88bGBpqgsrJyY2ODy+Xi8XhUzOrqavSUqtbWVhwOl5+fPzMzYzKZ+vv7cThcQ0OD9acsPv/889tnicjl8rfffvvgVbWhItAswJ9qhwVs+VOhUBCJRD6fb3NdY5tRLSLzyHn8pSIM//EWCwfqfItTzlBGkjE0i5qSsQdNBiW2IoA1UMB5FOBTSjHvNZTR9Ny7FyfaY7C2XChcrT7E/igQCM6cOSORSOypPuBPhznP/72qMzc3157awSQv8CcmMh4nI5RjyZ+ffvqpr69vSEjIq6++isfj6+vrT5486evrm5SU9Nxzz9Hp9L6+vldffTUyMvKtt976zW9+ExQUdPPmzXfeeWdlZeWbb775/PPP/f39f/e737399ts3btx44YUX/Pz8uru7v/jii+vXr7u6un744YeVlZUhISE/+tGPrly54ufnd/78+aGhITv/BLjfhrUv/vz222/ff//9yMjIn/70p7/+9a+jo6O//PLL9PR0o9Ho6uoaGxsbFRX129/+lkajZWdn//73v/fz83Nzc3vzzTcNBsPIyMj58+fDw8MvXrzY2Ng4ODh48uTJqKgoFxeXF198MSUlJT8//+TJk97e3mfPno2Li9NoNFeuXHnhhRcSEhJ4PJ6V7wX86TgPdNQtY8ufDAYjPT2dQCBY2TIdnQxBjGajFtt/Br0qOzP1xV/9r/7eTmwtm41axGywWBBHywL2QYHDUsBs0mHba3QaRfGDvA8/eDcPlyOV8LE1jph0h9gfVSpVRUXF0xYfWlmDwJ+O89HAn1Y2Qkh2wAocQ/5ks9m/+93v5ufnxWJxY2PjzMxMTExMQEAAh8PR6XQ/+MEPvvnmm97e3q+++orL5V6+fPnf//3fp6am+vr6XnvtNSqVeuPGjbi4OCKR+Mknn1y/fh099ejWrVvh4eEvvvhiXV0dmUy+evVqUFCQp6fnP/zDPxQXF8/Ozl67dq22ttbOI5j3W/f74k8XF5fo6GihUPj888//+te/5nK5KSkpqampRqPRzc3t9OnTDzfX/vnPfz44OJiWlvbaa68NDg5OTU29++67BoNhaGjonXfe+eSTT9555x10BPXixYt8Pp9AIJw+fTogIODChQv/+q//+v777//2t7+9cOHCysrKtWvXIiMjuVzu1g7ge74d8KfjPNBRt4wtfyqVysXFRetH5vdsuk6YYHFxMTw8PCcnp7S01EHHZDvhW0ORQAHnVEClUvn5+V25ciUoKGh1ddU5C2lbqRAEMRgM1jv6HZ8C/Ok4Hw38uWOTg8hDV+AY8ieXy33llVeWl5cRBNFoNAaDISYmJjc3F53b+U//9E9ffvllb2/v119/LZfLr1279rOf/YxEIk1MTGzx5927d6lU6t/+9rfAwMDR0dGPPvro5s2bPj4+//N//s/m5mY6nX779u3AwEBPT89//Md/xOPxZDL5+vXr1dXVTs6fVVVVer3+Zz/72a9//WuJRJKZmZmamlpXV/fCCy+0tra2t7f//Oc/HxkZyczMPHfuHI1Go1Kp77//PolE+t3vfvfll182NTW5ubkVFxeXlJRcu3ZNoVDMzc2dOXPGz8/v1KlTL730UlFR0fDwMIlEkslkN27cqK+v35dPAv50nAc66pax5U+LxWI2m/fVOA/9m3pfBUAQpL293dPTUyKRuLu7O89Ov/t6C0gMChwbBe7du/fgwQM6nd7T0zMwMGDnaZlOJYtEIvHz87NzcxrgT8f5aOBPp+ovUJgtBY4hfz5cfPjGG2+8+OKLk5OTL7300p07d0JDQ//lX/6lu7vbxcXle9/7Hp/Pt5I/g4KCUP50d3cfHx8/e/ZsQEDAvXv33njjjdjYWG9v76PFn9XV1U/yZ2Zm5k9+8hMikXjlypXnn3++vb09MzPz0qVLdDod5c+JiYkf/vCHZ8+ezcnJef3118vLy7u7u1944YU333zz1KlTzz33XHx8/P3797/66qvMzExXV9fk5GStVnvjxo3GxsatdmbNBfCn4zzQUbeMLX/KZLKZmRkOh2NNszyKaWg02jfffCORSBAEYbPZOBzOzl+HR1EEKDMo4DwKeHt7Z2VllZWVZWdnJyYmstls5ymbnSXh8XgnTpywc6cG4E/H+WjgTztbOGR3kALHkD8tFovJZPrlL3/5wx/+8KOPPpJKpQ8HOkJDQ3/yk598//vfVyqVZrO5v7//ypUrcrnc1dX1hRdeIJPJk5OTf/7zn5eXl2/fvp2SkrK8vHz+/PmwsLDx8fFPP/3Uz8/PbDYTicSPP/745ZdfrqqqUqvV4eHhP/zhD6uqqh7O5XN1da2rq3Pm8c+bN2/W1dUZDIYXXnjhlVdekUqlOTk5GRkZRqPx1VdfRV/kBz/4walTp3Jycq5du8ZgMJaXlz/66CO9Xt/Y2PjjH//4IZR+/fXXb7/99uzsbFtb23vvvZeamurq6pqTkyOTye7fv//CCy9cu3aNy+Uajcbbt283Nzfvq9UCf9rggVQqlRy7oFAoVCqVDcVwdBZs+XN9fT0pKWlsbGxf7fMIJV5YWDh37pzqUZBKpZ9++imTyTxC5YeiggLHSYHk5OSysjI6ne7v7z82Ntbb29vc3HxshkDNZrNcLneS81ewc4ZYWqLT6QQCwdFe8mn2gT+P05fJcXoXyrHcf+g41dAu77Kv9Z+72NnvreHh4T/96U/R0dE5OTl/+tOfysrK9mthx/TAn0/zH0+LVygUw8PDd+7cCcIi+Pv7x8XF0en0pz3uEOOx5U8Wi1VQUHBcZ6XK5fI//elPFotFrVarVCoEQbhcbnR09I6dDiJBAVDAoQpIpdLIyMjq6mqBQFBUVESlUhsaGrKzs/e1OYJDS2i/cfvXMtg//imXyzs6OrDwhNjbCAkJqampOSwHCvxpfwsHC45QgAL86QhZD8bmYfHn4uLilStX/vKXv3z44Ye5ubkqlQqT9wX+3K9/UigUExMTeDx+vxl3TM9ms4uKip4F/rRYLMijgEm7dTYjXV1dLi4uFovF8ChYLBapVHrz5k0qlepsRYXygALHWwEEQTIzM1NSUtDXRJedm83murq6rq4uvV5/DF5fp9M5w/mfOzo1iFSr4fyVY9DJjucrUIA/j27FHhZ/Okgx4M/9OkvgT9uaokKhWFhYsP5kINuecli5fvWrXz35aB6Pd+7cuSfjIQYUAAUcpwCLxcrNze3s7LRYLEqlcmJiAv3a6ezsLC8vd54jiO1RgM/nf/rpp4e+/nO/3vPZSQ/jn/Y0b8jrOAWAPx2nrcMtA386XOL9PMBsNmu12oP0asCf+6mf/5uWTqenp6dPTEz836hjdJWdnY2+jf5RQK/lcrkzHEF+jGSGVwEF9laARqMtLCygayOZTGZwcPDk5CS6RcXy8vLxOAJKpVJVV1cf+vmfB+l5j9azgD/37qiQ4jAUAP48DNUxeibwJ0ZCYmMG+NNxXhnb9Z9KpZJCoRz7UzHR9Z/YNG6wAgqAAvYpoFKp5ubmjt/XDoIg6Dpze+Sxf/2n47zPUbcM/GlPy4S8jlMA+NNx2jrcMvCnwyXezwOAPx3np7HlT5PJpFarDQbDfqr36KU1PQpHr9xQYlDgOCpgMpmUSuXx+9qRSCS+vr52nvAE/Ok47wn8eRy/To7DOwF/HuFaBP50qsoD/nScB8WWP5lMZl5e3uzsrFO1H8wLc4z3WMJcKzAICjhagc3NzYSEhOO37bZQKLx06ZJUKrVHQOBPx3lP4E97WibkdZwCwJ+O09bhloE/HS7xfh4A/Ok4D4otf9Lp9NTU1PHx8f1U79FLC/Nvj16dQYmPrwIsFisyMnJ6evqYvSKCIAaDwc4jWIA/Hec9gT+PWY87Nq8D/HmEqxL406kq7xjwZ3FxMYPBwMoRqh4FTKxhy58CgaCjo2N1ddWp2g/mhdE8CpibBYOgAChggwIajWZxcVEikdiQ15mzGI1GFotlMpnsKSTwJyaOckcjwJ/2tEzI6zgFKHD+iuPEdbRl4E9HK7wv+0edPwUCQV9fH5fL3dGH7TdSoVDQ6XQmk7nfjDumx5Y/0T/Yo5tS7quKj1Zi86NwtMoMpQUFjqsCCILo9Xo7Oc0JxZFIJP7+/rD+c0fP5QyRwJ9O2GugSBaLhXLU+RNBELlcLnLKIJPJHPobF/jTqfrwUedPbD2lSCTq6OgYGBjAxCy2/CmTySYnJzc3N52q/WBeGOBPzCUFg6CAzQrI5fL+/v7j97UjEAi++uorO8d1YfwTE0e5oxHgT5v7LGR0qAKUo86fOp2uoqIiwSlDfn6+TCZzXP0BfzpOWxssA39ud37OzJ8bGxu5ubnHbyHWY41Wp9NptdrHIuEjKAAKHIoCbDY7JiZmZmbG/qebzWa5XM7hcNRqNWpNr9dvbm6KxWIEQcxms9FoNBgMZrPZZDJt7biLIAgaj67VND4KaDKz2Wx4FLaGZ41Go06nQ1MqFAo2m731ZWIymbhcrlAoNBqNFotFrVY3NjZu3bXt7YA/t3tPbK+BP21rk5DL0Qocef40GAz9/f1VThk6OjpUKpXjqpBAILS1tS0fl/Af//EfqD9DFZPL5W+//bZYLHacgNhaBv7c7jWdmT9VKtXy8rJIJMK2ATibNY1Gs/Xz1NnKBuUBBZ41BdRq9dTU1NzcHJfLNRqNKpWKwWCsrKxoH4X19XU+n28ymQQCwerqKpvNNpvNOp1uZWVFIBBYLJbNzc3V1VWDwcBkMhcXF5uamuLi4mZmZnQ6HYPBGBsbi4iIqKys1Ol0TCaTQqGQyeSlR4FIJKKWuVwuhUJZXFzc3Nw0Go2Li4sLCwtra2tSqZROp1MolLm5uY2NDZPJxGKxUAtMJtNkMg0NDYWEhPT09FCpVJ1Op1QqExIScnNzSSQSg8FQKpWbm5tb4GpbtdrPnyqVSiAQMLALTCZTJpNtd2pH9Np5+DMuLi42Nva4/GKF97BXgfb29lOnTimVStu+NEZHR93c3Hb8IfffbLCo0+lwOFwsy4ZfAAAgAElEQVRycrINeZ/BLCQSKTo6+vZxCe+99952Hwb8uae3UygUExMTeDx+z5QHn8CZ+VOv1/P5fIf+bcgZvo7g/E9nqAUoAyiwpQCTyUxKSiouLpZIJEtLS/Hx8Xfu3GEwGBsbG2FhYZWVlWq1uq6uzsvLKycnR6fTsVgsd3f32tpas9mcl5fn6elJo9GuXLkSGBjY1tZGIBCYTObo6OitW7cCAwMHBwcpFIpQKCwsLMzKyioqKrpy5UpiYmJ6evq9e/cEAkF2dnZRUVFzc3NRURGVSk1MTIyKihoeHu7v78/Kympvbw8LCysvL5dIJO7u7lVVVWNjY4mJiRQKZWNjY3h4OCYm5syZM83NzXq9nkAg9Pb2ZmRkuLq6NjQ0eHp6Hvr6T7lcPjIyUoJRKC4uxuFwNBrt4F0n5k90Ev7U6XS5ublffvnlcfnFCu9hrwJXr169ffu2RqPZ+obc1wXw577kwjixVqtlsVj2/gnCafKvra1t38Md+HNPPwT8aVuPYrFYBQUFx+8gvsfUQGffPRYJH0EBUOCwFNDpdBsbGzaPfy4vL09PT3/22WeVlZVDQ0NisVgmk2VkZHh6ehYWFi4sLCAIwuPx7t27V1VV1dvbe+vWLQKBgMPhfHx8BgcHXV1d4+Li6uvrPT0909LSbt26lZWVxeVyfXx86uvrRSJRZmbmgwcPJiYmXn/99dzc3La2tpCQkMDAQLVavba2VllZGRERcf78eYvFotPp5ufn8Xi8u7t7VFTUG2+8seMohPU62z/+KZPJRkdHsRr+XFtby8nJWVxc3NMLO38CJ+FPBEFEIpHT/N6EgjiFAiwWy+ZdcoA/rf+ChZT7UwD4c0/HBvy5vyb1f1Jzudy6ujoKhfJ/Io7n/+H8z+NZr/BWz7ACBoOBzWbHxcV5enrW1taur6/L5XICgeDq6url5TU7OysQCPB4fF9f38TEhL+/P4PBKC4u9vb2fjie+d5777311lunT59++eWX/fz8XF1dCwsLH27feOvWrd7eXqPRWFpaisfjm5ubf/nLX3700Udnzpx5/fXXL1y4MD8/Hxsbe+HChf7+folEotVqGxoa4uPjPT09R0ZGHu6oFBoaqlAo7KkWTPiTQCDs6TStTKBQKPLz84E/7alTyAsKOFQB4E+HyvtMGwf+3NNTAn8+0z1kr5fXPQp7pYL7oAAocPQU0Gg0HR0d3d3dW0VfXFzMysoSCoVVVVX9/f0EAiEgIIDBYJSUlPj5+VGpVB8fn5CQkKqqqvDwcHTosqioSKvV5ufnR0RElJeXX716NSMjg8vl/vnPf05MTGxtbY2Njc3Jyamuru7v799aHSORSIKCgqRS6dajbR7B2LIA/Lmnu7c5gZOMf27VNVyAApgoAPyJiYxgZAcFgD/39DfAnzu0GyuizGazPQfxGQwGlUq1fa64Vqvd2mTSiufvI4lWq92+KReKlNsfvQ9bkBQUAAWOuwJKpXJ+fp5Go21sbLS2tkokkunp6ZaWFrFYXFFRERgYGB0dXV1dLZFIWltbp6amLBYLn89PTk4OCgr6y1/+kpaWplQqc3JyvLy8kpOTH17suU5erVbX19cf+v63MpkMxj93/M0A/HncO/0z+n7An89oxR/Aax9F/tTpdJonwo4uAZNI4E/b2qFYLB4cHGQwGHq9XiKRoJvEarVaqVQql8uNRqNWq0WnmVksFoVCIZFINBoNgiBKpZLL5c7OzpaWlqpUKrPZLJVK2Wx2e3s7lUpVKBRarXZzc5PL5cpkMvRCo9Gge1pubm5yOBy5XG42m9G7QqEQNYjeUqlURqNRLBZvPgoKhQJBkN7e3unpaT6fj56FMDU1NTAwsL6+LhAItoYjtFqtWCxGy2OxWMRiMTo0oVKpbN5ZzjZhIRcoAAocOQWEQmF3dzeZTL57925xcfGewPnYCwoEgq+//vrQz/8E/nzajwrgz8daLHw8HgoAfx6PenTGtzhy/IkgiMlkQg9V2/qvwWBAj8F4mm+wJl4ikSwvLz+ZEvjTtoa7trYWHx8/MjLCZrObmpqIRCKCIDQaraWlpa+vTyqVrq2tNTY20mg0i8UyNDTU2Ng4MzNDo9Ha29tTU1OrqqpqampUKtXi4mJtbW1KSgoOh0Oz9PT0xMXFJSUlFRQUxMTEBAcHj42Nsdns2NjYmJiYqKgoPB4vEokqKyuDg4Pz8vJaWloSEhLi4uKCg4N7e3s3NjZwOFxUVFRoaGhjY6NGoxkaGkpJScnOzh4dHd3c3JydnW1qasrOzs7PzycSieigK41Gq6urm56eRocgqqurOzs7EQShUqmLi4u2SQS5QAFQ4BlRQCKR9Pb2jo2NdXR0kMnk/U7l0Gg0PT09Op3OHrlg/u2T/h2rGOBPe1om5HVaBYA/nbZqjnzBjhx/7qg4JoeC0un09PT0sbGxx7aDB/7cUfM9IxkMRlZW1uTkpEQimZubY7FYCILw+fz5+fmlpSW1Wi0QCGZnZ/l8vsViWV5enp2dnZmZyczM9PX1TUpKIpPJ6OHs0dHRYWFhubm5DAYDQZCIiAhPT8+Wlpb8/PzTp0/X1NRcv349Pz+/urr6j3/8o5+fn4uLy+XLlwcGBiIiIoKDgwsLC4OCgkpKSlpaWlxcXJKSkhoaGs6ePevq6nrmzBlXV1cKhWI0GgcHB6Ojoz09PWtqahQKBTqPLjExMTQ0VCgUotPnpqen6XQ6+sNxcnKSRCKhO2Fyudw91YAEoAAo8IwrYDAYZDKZVqu1YW6/wWBYXl7evkzABjGBP7GizSftAH/a0CAhi/MrAPzp/HV0VEtoD38iCCIWiw9l8qH5UdgSHRP+FAqFTU1N8fHx+fn5nZ2dm5ubqI+xkj85HM7k5OTIyEh/f//Q0BCTyRQKhdPT0/2PwtLSkkwmW15eHhoaQmPIZLJMJiORSAMDA/39/SMjI3K5nM1mDw4OogkEAsGTTu6xGGc+/5PL5VZVVe1rbFCtVqPn4+Xn57e1tfX19alUqrq6Oj8/P/ToPA6HExERUVBQYLFYSCTSyZMnlUplfHx8Zmamj4/PiRMnAgMDvby83NzcqqqqEhIS6urqRkZGPDw8eDyexWK5e/duREREdHT0Z5995uHhcfv27W+//XZiYoJIJDY3N8fExISGhk5PT1Op1N7e3vLy8qioqHv37slksq2WBhegACgAChy8Ag8n/3t5edn5XYQJfw4NDc1gFKamppKTk9va2jCxNzs7u7a29piLPLCPwJ8H3yngiQegAPDnAYj8jD7CZv5cXl5GN5Fns9kWi0WpVE5NTXV0dDCZTBKJxOPxxsfHR0dHBQLB5OQkkUhET781mUwdHR3Dw8Po33Gnp6fb2tpGRkbMZvPq6iq6VQNKLGq1uqenp6+vD0EQo9G4tLTU1NS0srKCZhSJRF1dXe3t7Q93pbdYLJjwp1qtFovFZDK5trY2KiqqqamptrZWLBZbyZ/j4+O3b9/29vZOT0/39PTMz8+fmZkpKChITk729vaOiYmhUqkZGRm+vr4JCQk+Pj7Z2dkMBiMhISEqKio9Pf3y5csjIyOdnZ137txJSUkJDAxcWVnZ03c6M39ubGxkZ2eje29Y37s0Gg2TyVxbW8PhcPHx8QqFQqVSoW0jNDR0YWEhMjJyZGTkMf7Mzc3F4XCRkZFkMnlwcLCiomJxcRHlTyKRGBQUNDg4qFarw8LCYmNjS0pKYmNjh4aG2tvbW1paJBJJTU1NVlYWgUBgs9l6vX5oaCg6OnpwcJBGo4nFYvu3nbT+9SElKAAKgAJPKiAUCq9fv759O9wn0+wZgwl/dnd312IUampqCgsL8Xg8JvbweHx3d/eeTtNBCYA/92x+kOAoKgD8eRRr7WiUeb/8iaJgUVFRYmJieHg4Ok7Y3t5eVFSUm5ubmZlJJpMTExMjIyPT09Ojo6PLysqKi4vDw8NJJJLZbC4uLk5ISLh79253d7fBYPD09PTz8ysrK5ufn/f3909ISAgLC3sIbOhef3cfhcbGRoPBMDIyEh0dnZOTU1RUhO5qU1RUlJSUdP/+fTweT6fTtVotVn5FLBZvbGx0dHTExsb29/eXlpaOjIzg8fjd7ff393/66aeRkZGbm5vh4eHnzp1raGgoLS3NyMh4OMnz9OnT/f39np6eRUVFy8vLpaWlqampXV1dly9fDg0NzcrKeuutt3x9fSsrKy9dupSWlubl5UWhUHZ/olqtdmb+XFtbS0hIGB0dtaEnIAgik8m2s59WqxUKhTqdLjIyErW5ffyzrKyMxWJlZGQUFxdnZWXV1tay2WyUPxUKBVqVDyfWenh4ZGZm0un04uLi3NxctAoMBoNCoZDJZFtz2zQajUgksnOplQ1vDVlAAVAAFNhRAa1W293dbeeXEib8OT4+LnDKsLy8PD4+vqfTdFAC4M8d2y1EHnUFgD+Peg06b/nlcvkf/vCHgICAe/fumUym2dnZpKSkubk5jUYzMjKSkJCAx+ONRuPQ0FBGRsbi4iKPx4uIiPjNb35z//59g8FgNptXVlZOnDjx17/+dXp6Wq/Xoyv0zp8/TyKRHm7u4uPj8/Dwbnd395aWltraWi8vLxaLRSAQQkNDSSTSxYsXe3t7tVrtqVOncDicTCZLT08PDg7u7u6OjIxcWVkhk8leXl4zMzPodqZlZWW/+c1vzp07JxKJTCaTWCz28/N75ZVX2trayGRySkpKS0uLXC6vrq6OiopqbW3l8/nT09OpqalDQ0NyubykpCQrK2tzc1MqlY6MjOBwOCKRqFQqm5qaqqurlUrl5ubmwMDA+Pg4h8NRKBQUCiU+Pv6VV17p7u62kj8TEhJUKlVMTMwHH3yQnp4eHh4eFxfn6up66tSpvr4+Dw+Pjo4OmUzW0dGRkZGBw+FOnjwZHByclZWVnp5eUVExPz+fnZ3t7+//zjvvREdHo9vG7uIvnZw/4+LihoeHsW39/f39TCYTXZBZVlaGDleimxvx+fycnJzKykqj0ahUKoeHh5eWljY3N9va2tDmFx4enp2djSAIi8UqKytra2s7lNnj2AoC1kABUOBZUMD+iRiY8CeG56/s4tpsuMVkMqempmzIiEkW4M9noQ8+g+8I/PkMVvoBvbJcLn/11Vejo6NLSkpMJhOJRMrNzSWTyVqtdnJyMjs7u6mpyWg0EgiEgoKC5eVlqVTa3d1dUlJy//796OjoqakpoVBYV1eXkJAQGhqKx+OFQmFERERpaalCoRgYGAgKCnrIch4eHi0tLV9++WVpaenk5OTQ0FBRUdH4+PjXX389MDBgNBr/+Z//2Ww2GwyG4uJiX1/fmJiY5OTk8fHxsbGx8vLyjo4OEomUmZmZlpaWlZXV0NCgUCiGh4eDg4OTkpIqKirW1tYoFMr9+/e7urrkcnlzc3NqampPT49AIJifn8fhcOPj43K5HJ3tg57bQSAQysrKlpaWlEplZ2dnc3OzSqXicrmjo6NTU1N0Op1MJvv5+eHx+MLCwsHBQWv48+TJkx4eHv39/egR5CUlJWFhYXg8/uHw7+eff97V1eXt7e3p6YnD4Xx8fOLj48fHx93c3BITE8lkcn5+PolEmp2dLS4u7ujouHDhwrvvvsvn83d3jc7Mn2w2u7i4eGFh4YCa8lMew+Px8vPzPT09AwIC7t69Oz8//5SEEA0KgAKggJMqoFAo7t+/j55iZXMRgT9396f23AX+tLlZQkZnVgD405lr52iXbb/zb9G3Rem04lFYXV21WCwsFquxsbG4uJhCoURERKDHWjzGn+np6V988UVHR0dFRUVISAiVSr148SLKny+++OLc3Nza2lpaWlpgYGBFRcW1a9caGhpqa2tdXFxmZmZWV1cbGhrQTXosFguFQsnIyCgvLyeTyeheRFjNv+Xz+SsrK/n5+ZWVlRUVFSwWy8r1n+j82/PnzwcFBaGcMz8/Hx0dHRwcHBQUdO3atd7e3qamJi8vr9DQ0ODg4MTERCaTOTEx4ePjExYWlpaWtrq6ury8nJqaGhoaeuvWrfLycrlcvrtHdGb+VCqVi4uLAoHg0HsIm82urKxEYdiGnScPvfxQAFAAFHjGFRAKhZcuXXKG9Z8w/rmjUwb+fMZ76HF9feDP41qzh/9etvEnWm4EQRgMxnbAEAqFUqk0Nzd3YGBAp9NNTU1lZmYKBIKkpKShoSE2m33mzBkfH5/bt29HRESIxeKQkJCpqSmz2Zyamuru7u7v73/q1KmIiAg6ne7l5eXp6Xnnzh0XFxd0tq3JZNrSi8fjUSiUrY+Y7D8kkUimpqYaGhru37/f3NxMJpMVCoVarbaeP0+dOhUQEDA4OIjudisSiebm5sbGxmZmZsbGxphMZllZmYuLS25ubkZGRm5uLofDUalUU1NTPT096+vrSqUS3Wunt7d3eHhYJBLt6Oe2Rzozf3K53Orq6n3tf7tVoXABCoACoAAosKWATqebnJzU6/VbMTZcwPjndu+J7TXwpw0NErI4vwLAn85fR0e1hPbw59PeeWNjA905RiaTMRgMvV6/vr4ukUgQBJmfnx95FGg0Grp2VCaTmc3m+Pj4yMjItLS08+fPJyUlGQwGCoWCprQGYDDhz42NjdjY2IaGhtnZ2e3sZyV/zszMhISE4PF4lUr1NMfW19cXFBQUHx+fkpLS09Oz5/LOp9nZindm/uRwOBUVFSQS6WntBOJBAVAAFAAFrFFAr9fPz8+jhw9bk37HNMCfW64T8wvgzx2bHEQedQWAP496DTpv+R3Bn/t9WwRBhoaGEhMT8Xh8dHR0X1/ffi1gwp8SiWR2dnbr2M8t/2QlfwqFQiqVymKxtjI+eSEWi6lUKolEolKpfD5/F1J9Mu+OMc7Mn3q9XiAQqFSq/dYmpAcFQAFQABTYroBIJLp165YznP8J82939MXAn9ubK1wfGwWAP49NVTrdizgDf1osFr1ev7GxwePxWCzW7sSCIIjJZDL+fTAYDBqNZkevYH+klfxp/4NssODM/IluQmvnhDGn6zBQIFAAFAAFDlwBhUKRm5u7u3Pcs1Aw/mmDk7UyC/Dnns0PEhxFBYA/j2KtHY0yOwl/Wi8WOtSpeSJY6SRsSAb8aX3tbE8pEAja2tpWVla2R8I1KAAKgAKgwH4VMJvNCoXCzu3TgD9t+AFgZRbgz/02aUh/JBQA/jwS1XQkC3lE+dNKl4BJMuBP21r22tpaQkLC6OiobdkhFygACoACoACqAIIgarUa+HMXnw7nf0JnAQUwVwD4E3NJweD/rwDw5y7+DL0F/Glbb1Gr1aurq2Kx2LbskAsUAAVAAVAAVUAqlYaEhCgUCnsEObDxT+WjsH2DA5VKhW7wvovDRXOp1WqVSoVuPr/lgrd/fJoF4E972gbkBQV2VAD4c0dZIBIDBYA/n+bMtuKBP21rZ0ajUaFQwPpP29SDXKAAKAAKbCkgFAovXrwokUi2Ymy4OAD+VCqVDAajrq4Oh8MtLi4qFAqRSLSxsUEkEktLS8fHx+VyuUgkEgqFSqVSJpNxOBypVCoSiZhMZm1tbVVV1eLiYnd3d1xc3PLyslgsXlxczM3NzcrKIpFISqVyyy8/eQH8aUOTgCygwO4KAH/urg/ctV0B4M8n3dhjMcCftjUvFotVWFg4NzdnW3bIBQqAAqAAKIAqYDQaV1dXjUajPYIcAH9ubm7m5ubevHnT09MzNDR0amqqvr7+0qVLoaGhHh4e4eHhS0tLra2teDyex+MtLCzExsYSCIT6+npfX9/g4OCrV6+eO3cuMTHx1KlT3t7e3d3dFy9evHHjhoeHR3BwsFAofMw7b/8I/GlP24C8oMCOCgB/7igLRGKgAPDndge24zXwp23tjMvlon/Mti075AIFQAFQABRAFdDpdKOjoxQKxWKxyGSyxcVFgUCg0+nW19eJRCKdTkcQhMfjzc3NCYVClUpFoVCoVKpSqUQQZGNjY2pqSiwW83i8rq6u+fl5dOBxdHS0v79fIBCw2ezu7m4SiYQ6u9bW1t7eXoVCwWazW1tbFxcXlUplf39/U1OTUCjc5fwVlUpFpVKjo6NDQkLi4uJOnDhx9+7dvLy8N954o6CgoKenJyEhgUAglJaWZmZmstns8fHxW7du9fX1FRQUREZGTk1NBQQEfPzxx6OjowEBARcuXOjp6Tl79qyLi0tOTk5+fv7uJ2YDf0JnAQUwVwD4E3NJbTGoVCpnZ2f7MAqDg4MMBsNsNttSFOzyAH/uyJzbI4E/bWtuRqNRLpfrdDrbskMuUAAUAAVAAVQBlUpVUFDQ3d2NIAiHw+no6KDRaCqVamJiorm5eXJyEkGQ5eXl+vr6tbU1sVjc09PT29srFAoRBJmensbj8RsbG3Q6PS8vr6urSywWr66ulpaW4nA4FotFpVIzMzN7enpkMhkej09ISMjJyZHJZFQqNSEhob+/X6FQ4HC4qKgoHo+3C38qlUoSiRQaGurr65uamhoZGVlTU5Ofn//ee+81NDSQSKTU1NSJiYmSkpKMjAwWi9XR0XHt2jWUP5OTk1ksVmRk5JUrV1ZXV+Pi4i5evLiyslJeXh4eHp6QkHD69OknT+fe7qmBP6GzgAKYKwD8ibmkthik0WiJiYnFxcWdWISenh4qlWowGGwpCnZ5gD+3O7Adr1H+LC8vlzpf4HA4ra2tAwMDO5Z8v5FEIrGyslKtVmPSviQSycjICJPJxMQaGAEFQAFQ4JlVwGw2S6VSpVJpsVi2jlY2m81qtVqhUGg0GovFotPp5HK5Xq83mUyqR8FkMlksFo1GI5PJDAYDipRcLlelUslkMi6Xy+FwFAqFTCbb3NxEB07RU7g3NzfRNCwWSyQSqdVqDofDZDKlUuku/KlSqdbX12NjY2/evBkdHZ2bm0skEvPz899///3Gxsbt/Onq6nr37l0PD48vvvjiMf68fv06jUZD+XN8fDwmJiYwMDAgIODNN99ksVi7ODXgz2e2d8CLO04BJ+LPmZkZX1/f6xiFb775JiEhYXNz03HaYWiZSCSGhYVNTk4+cfakjRHOMDoE/LmLP0NvqVQqJpO5uLgod74gkUhWV1cZDMaeb2FNAmz5c319PTk5eWxsDMM+CKZAAVAAFHgGFZDL5ZmZmSqVyp53P4D1n2KxeHh4OCsrKzExsa2tjcViEYnE+vr6lZUVLpc7MzPDYrEWFxezs7MzMjJqamqamprodDqRSJyenpZIJBMTEz09Pegs387OThqN1tLSkpKSEh0d/eDBA5h/a0/tQ15QwAYFnIg/6+rq7ty5U19f34NFKCkpcXd3X1xctEGUg8+ysLAQFhY2Pz+PyaPR47wOfXYi8Kc1YIbuHW9NygNOY82m9tYXCVv+XFtbi4uLGx4exqS/gBFQABQABZ5ZBfh8/meffWbncVYHwJ9qtRodTaXT6WKxGPVQMpkMPXxFoVCgMWw2m8ViSSQS9JZSqURvKRQKuVyOnr8il8uVSqVUKt3Y2FhbW0OHYXdxZzD++cz2DnhxxyngRPxZXV0dHx+PLipA7A7Ly8uhoaFkMtlx2mFoGfgTQzFtNmU2m7Va7S5OCG7ZrAC2/KnX69HtCm2ua8gICoACoAAogM653djYQOfT2izIwfCnzQ7IzozAnzY3DMgICjxNAafjT5FI9LSy7it+ZWUF+HNfimGeGMY/7fR5xyk7tvxpMpnUavWhr3DGvMuAQVAAFAAFDlgBs9ksl8sRBLHnucCfjvPXTCYzNzfXntqBvKCAEyoA/OkUlQLjn85QDTD+6TgPii1/0un09PR0AoHgDM0GygAKgAKgwNFVQCAQnDt3TiKR2PMKwJ+O857An/a0TMjrtAoAfzpF1QB/OkM1AH86zoNiy59cLrempuaorO52hrYNZQAFQAFQYEcFHp7tefLkySOx/tNxHmp3yzD/dseWA5GggD0KAH/aox5meYE/MZPSDkPAn7v7YHvuYsufCIIYDIZDP+HWjrYGWUEBUAAUcAoF0BM47TwcC8Y/7fGPu+eF8U+n6CdQCKwVAP7EWlGb7AF/2iQbxpmAP3f3gvbcxZY/RSJRX18fnU7HuAWAOVAAFAAFnjEFEAQxGo12vjTwpz3+cfe8wJ92Nk7I7pwKAH86Rb0sLCxcuXLFw8MjEaMQHx+fkJCAibHAwMCioiKpVLpfpWD/od2dyjN1F1v+XFtbi4+PHxkZ2W+bhPSgACgACoAC2xWQyWRxcXFKpXJ75H6vgT8d59CBP/fbGiH9kVAA+NMpqmlhYcHX17elpYXmfOH+/ftRUVEcDme/SgF/Os4hHTnL2PKnXC6fm5vjcrn7bZOQHhQABUABUGC7Ajwe78SJE3YePQD86TinDPy5vbnC9bFR4Njyp8lkUqlU9s8qQWs6JSWlurpar9c7qOKxnX+LbSGbmpri4uKAPx3nXZ4Fy9jyJ4IgJpPJzgMDsO0mYA0UAAVAgaOogNlslslkdi6nB/50nB8H/jyK3QrKvKcCx5Y/93zzfSWIiooqKSkB/tyXaDD+6TiHdOQsY8ufZrNZo9Fg9delfbVqSAwKgAKgwHFSAEEQpVJp55/zgD8d55SBP49Td4N32VIA+HNLit0ugD9h/NNB3kUoFK6srKxiEVZWVuh0ulwud1BR7TGLLX/C+s/dvq3gHigACoACVivA4/E+/vhjZzh/ZXR0FAtPiL2N6enp4eFhezygPXmBP61uy5DwKCkA/GlVbQF/An/a4z+ellehUIyMjAQGBmZiEVJSUpKSkuh0+tMed4jx2PInj8erq6tbWlqyqvdCIlAAFAAFQIGnKCCRSEJDQxUKxVPuWxVt//inXC4fGRnBwhNibyM7O7urq+uwHCjwp1VNEBIdNQWAP62qMeBP4E9H+B6FQjExMYHH4zExzmazi4qKngX+RM//NJlMVvVeSAQKgAKgACjwFAXMZrMzzL/FxAkeSyPAn09puRB9tBUA/rSq/oA/gT8d4diAP63qfk8kEhC7ws4AACAASURBVIlEvb296+vrT9yBCFAAFAAFQIF9KOAk6z8d4WGPh03gz320Zkh6dBQA/rSqroA/gT8d4cmAP63qfk8kYjAY6enpBALhiTsQAQqAAqAAKLAPBZzk/E9HeNjjYRP4cx+tGZIeHQWAP62qK+BP4E9HeDLgT6u63xOJtFotm822c8HSE1YhAhQABUCBZ04BoVB45coVqVRqz5vbv/7TER72eNgE/rSnZUJep1UA+NOqqgH+BP50hCcD/rSq+z2RyGw2a7VaOH/lCWEgAhQABUCB/SlgMpkEAsGhn//pCA97PGwCf+6vQUPqI6IA8KdVFXXU+VOpVNJoNIVCodVqORyOXC63/rCvpqamuLg44E9HeDLgT6u63xOJxGJxf38/nU5/4g5EgAKgACgACuxDAYPBQKPR7PxzHox/OuIXAmoT+HMfrRmSHh0Fjg9/KhSK1tbW2dnZp4mv1+uXlpbm5uZsmLbn/PyJIMjs7Ozc3NyTry+TyeLj4997772ampq2trZvv/22paVFp9M9mXLHGOBPx/kV4M8dm9yekWtrawkJCaOjo3umhASgACgACoACuyjA5/M//fTTQz//03F+9qhbBv7cpfXCraOrwNHjT71eL38UFAqFTqdDEEStVsvl8vHx8e985zunT5/W6/WKRwFNhv5Xo9FIpdK8vLz4+HgajaZWq5VKpVwuVygUBoNhz/pzQv40Go0KhQJ9O5PJJJPJXn311TNnzmi12i2JlEql0WgcGBj40Y9+dObMmby8vBs3bly+fHl4eBj488lKR2d1HqSvwpY/Nzc3y8rKGAwGJq+gUqnQfoSJNWzP/xQIBO3t7aurq09WIsSAAqAAKAAKWK+AXC7PzMxUqVTWZ3kyJYx/YuIodzQC/Plke4OYY6DA0eNPIpGYlpaWmZmZlJTU29srEAiKiooyMjKCgoK+853vfP755+Pj43FxcRkZGWlpafHx8ZmZmcnJyXg8nsFgNDc3l5WVDQ8P5+fnZ2dn5+Tk3L17d35+fs+VD87Gn2azeWFhITk5OTs7Oz09ncfjlZaWfve7333ttdcGBgamp6czMjKyHgU6nR4QEPBv//Zvfn5+CQkJ77//flBQEI/Hs77twvjnji4Bk0hs+VMkEk1OTgoEAkzKJpPJ/j/23vQpqizP/4+YmT9hImaeTEzHRMz0zIOJjqmOqOquvcvu2iz3KpdSS1u0rCpEwQ03SgUKARFQEEEEQfZVRBRE9i0hAYFkFUhIEkhyz7xLsuXir9rkx5fWNEXOzcybyfs+qLh57z3nnvM6n1sfX9zl9Pf3Dw0NcVIbt/5pMplYll3OX46WH+c4EgRAAARWIQGLxTI9Pb38V3JsIoJ/cpIobVYC/7QZctjo7gTczz+FQuHOnTsPHTr07rvvnjx5Mjk5+Xe/+93Pz5d/+Id/WL9+fWRk5L/8y78cOHDg+PHjH3300aVLl/bu3fvWW2+lpKQcPHhw7dq1ly5deuutt9atWxcbG7tmzZqrV6++9i9/fPNPhmEuX7787rvvHjt27LvvvhsaGsrIyPjHf/zH999/v7q6uqCgwMvL69ChQ++9915XV9fZs2f/7d/+7cyZM5cvX/78888DAgLgnzavW3e//2kzda14o1qtLisrq6mpWXENSwty65+4/2kzgLERBEAABN6UwPT09KNHj5b/SJTN+uGfS/Mdt+vwT5shh43uTsD9/FMgEHz55Ze+vr7vvfeen5/fwYMHf/Ob33R3d4tEokX//M1vfpORkdHQ0ODt7T0xMZGSkvLP//zP58+fX/TP//mf//Hx8WFZ9tChQ4GBgWq12v5A8s0/Z2ZmMjMzv/nmm0OHDv3lL3+5f//+zMzMP/3TP+3evVutVkdEROzcudPX1/f9998fGxsTCoW/+93vqqqq+vr6Tp8+XVxcbL+zL+zF/U9uc8nS2ri9/7m0ZvJ1Pvvn+Ph4UlKSnZe9X4hh/AQBEAABELBJQKVSHThwAPOvkCdNB9UA/7QZt9jo7gTczz/ff//9t956Kycn5+OPPz527FhAQMB//dd/VVRUlJaWLvrnf/zHf2RlZTU1Nfn4+MhkMs/zT6PR2NXVlZqaGhkZ+dvf/varr77SaDT/9E//tHHjxsLCwv/+7/8+dOhQbGzsxx9/DP9c/iWK+59L0yef/XNmZmZycnIFHxJbfjDgSBAAARBYDQQ0Gs2JEycoiiLpLPn9T2sNvdwtAwMDWq12aVJz03X4J0lkoixvCbiff65du/bf//3f09LSPv/888DAQKFQuGfPnp9++unIkSP/+q//+u2338bFxf3f//1fQUGBUCj09/eXy+VZWVn/+Z//GRoaevTo0e3bt0dHR//xj3/09/c3GAwnT568fPmyVqu1P0J8u/85PT199+5dX1/f8PDwdevW/fLLLwzDvPXWW7/97W9PnDjx+9///sCBA+fOnfvoo48aGxvb29s//PDDurq6p0+fBgYGlpaW2u/sC3tx/9NxSQv3P18ItmX+NBgMIyMjr71sl1kbDgMBEACBVUvAZDJNTU2ZTCYSAuT+SVFUdXV1KkdLSkrK1atXnz596rj07bSa4Z8kkYmyvCXgfv6p0Wi+++67mJgYoVBYXl4+PT3d0tJy5syZtLS0sLCwjIyMpqamqKgokUgklUofPHhA03RHR0doaGhVVVVxcXF6enpdXV1MTMyDBw/m5+dLSkqsb7jZHyG++afFYtFqtRkZGQcPHrxx44Z18uiqqqq9e/fevn27pKTEz8+vtLT01q1bd+/eHR8fv379ulgsViqV5eXlAwMD9jv7wl74p+PSDPzzhWBb5s+RkZHIyEiBQLDM43EYCIAACICATQIzMzP19fVzc3M29y5zI7l/6vX65uZmDUeLUqlMTEzs7e11XPp2Ws3wz2UGIQ5zLwLu558u4cs3/3QmBPin49IM/HNlkQz/XBk3lAIBEACBFwjI5fINGza4fP5PvV7f0tLCVbalaTopKQn++cJY4ycI8IcA/HNZYwH/lMlkyyK15CCKotasWUOY1ZbU5/BVvP+5NPfz+f1PnU7X0tIyMTHh8JjACUAABEDAowkwDJORkTE9PU3SS07uf8I/l6bgxXXc/ySJTJTlLQH457KGBv4J/1xMBhyu4P7nsi6/lw4yGo0URRFOGPBSrdgAAiAAAquOgMlksr7CQ9Jz+CeH/zB4oSr4J0lkoixvCcA/lzU08E/45wspgZOf8M9lXX4vHSSXy4uKivr7+1/agw0gAAIgAAJvQECv14eFhTEM8wZlXjoU/snJPwlsVgL/fCncsMETCMA/lzWK8E/4p83EQLhxxf6pVqv7+vokEglN04RteFVxPj9/Ozk5mZ6eLhKJlnX14iAQAAEQAIFXEFAoFNu2bSN8Uwb++apMSr4d/vmKyMVm9yYA/1zW+ME/4Z/kWeTlGlbsn319fZGRkXfv3lUqlS9Xy8kWPvvn7Ozs1NQU4R/sl3Xl4yAQAAEQ8GgCNE3Hx8ezLEvSS/gnJ2nXZiXwT5LIRFneEoB/Lmto4J/wT5uJgXCjTf+USCS5ubl3795tb29/8uTJ3bt3c3Nz6+vrdTqdWq2ur6/Pzc2NiYnZv39/cnKyQCBoaGiYmprSaDT19fVTU1MjIyP379/Pfb6Mjo6yLFtSUmL92drayrJsbW1tRUVFQUFBQ0ODtfK8vLyysrLx8fGl3eGzf9I03dXVJZfLl3X14iAQAAEQAIFXEDCbzRqNxmw2v2L/sjZz4p/V1dVVHC0VFRWhoaG5ubmc1FdTU9PT07M0PzpzHf65rBDEQe5GAP65rBGDf8I/HZFvbPpnbW3tF198cebMmfLy8ps3bwYFBQUGBh45cqS8vLyysvLHH38MCAj45Zdf9u7dm5ycHB8ff/78eZFINDY2FhAQ0NHR8eDBA39//5iYmAMHDty5c0cul+/evTsmJiYgIMDX17ezs9Pf33/btm1xcXFFRUVfffXVkSNHYmNjk5OTh4aGlvaRz/45OjoaHR2N+T+X9T8vHAQCIAACryZgMBgKCgr48P3bysrKYu6W/Pz8oqIiTurLy8t79OjR0vzozHX456uDF3vcmAD8c1mDB/+Efzoi39j0z8rKyj179rS1tYnF4pCQkCNHjhw9enTNmjUhISHXr18/cOBAS0tLe3v78ePHk5OTr127dvLkyY6ODolEcvz48crKysuXL0dGRk5MTFj/ltza2vrVV18FBQX5+Pi89957GRkZPj4+GzdulMvlUql03bp1e/fuDQkJSUtLk0qlS/vIZ//UarUNDQ1jY2PLunpxEAiAAAiAwCsI8Gr+T4aXy9jYmFAoXJofnbkO/3xF5GKzexOAfy5r/OCf8E9H5JtX+ae/vz9N02KxODw8PDAwMD09PTU1taGh4fr16z4+Pk+ePBEKhceOHbP659GjR9vb27u7u633SIOCgsLCwqRS6dOnT6VSqVAoXLdu3c2bNzMyMlJTU7u6unx8fI4cOaLRaLRabWFhYVJS0vHjx7/99tvGxsalfeSzf1osFpPJRPjA2LKufBwEAiAAAh5NYHp6ury8nHA6K06ev+Vw/s+luYx8XSqVtra2ktezshrgnx59/a3ezvHLP0NCQiYnJ2f5t1y4cCEtLW1ubs5BkdLV1XXhwoXOzk4H1U9SbXFxcWhoKPxzZZnDfimb/lldXX3u3DmDwSCVSqOjo8+fP5+TkxMZGVleXp6WlrZjx47k5OTY2Nh9+/alpKQkJSXt3LkzNzc3Pj5+z549QqHw3r17R48etRZJSUmRSCR//etfIyIiSkpK4uLient7/fz8Tp06pdFolEplaGho7PNl+/bttbW1S1vLZ/80Go16vX5mZoYksFEWBEAABEDAZDLJ5XLCP+fBP5dmT27X4Z+4SD2SAI/8s7Ky8vr16z09PVL+LZGRkQ8ePJifn3dQEMA/HQT2jao1m80zMzPcZg77tdn0z46OjpSUFIPBoNfrBQLB5cuXf/7555iYmJ6eHrFYHB8fHxYWlpqaeu3atUePHvX29kZHR1+6dOn+/fuxsbFDQ0PWuUkCAwPDwsLq6uooiqqurvb397d+jGFycjIhISE5OVn/fLl7966/v39QUFBaWtrk5OTS1vLZPycnJ7Oysrq7u99ofHEwCIAACIDACwS0Wu3Zs2cpinph+xv9hH8uzZ7crsM/3ygUcbC7EOCRf2q1WqlUSlEUy79FIpGo1WqLxeKgcbU+FRkbG/uQf8v58+cDAgJw/5PbjGKtzaZ/qtXqsbEx6wE6nW5oaKirq0sikTAMYzAYxsfHe3t7pVKpRCKxzkEikUhEIpFCoRgbG9PpdAaDQSaTdXV1PX361PqTpunu54tcLjcYDKOjo7++LMqyrMFg0Gg0IpGoq6tLJpO90EE++6dMJsvNze3t7XXQ9YhqQQAEQGCVENDpdBcuXKBpmqS/8M8XEiiHP+GfJJGJsrwlwCP/5C0jJzRs8UnLEP4tZ86cSUtL0+l0b8qBoqg1a9YQzmr9piclOZ4n9z85zFskVfHZP+fn5zUaDeEHG0lCBWVBAARAwDMIGI3GiYkJk8lE0h34J0m2tV8W/kkSmSjLWwLwT14Mzfz8vFKpHOfrotVqV5Cc4J/2k4rBYLB5//O1pZxzAJ/9U6fTCQSC8fFxXly9aAQIgAAIrG4C8E/H5WX45+q+tjy29/BPjx1al3cM/vnahAT/XFmUjo6ORkVFYf7PldFDKRAAARBYJEDTdGJiosFgWNyyghX452vT/YoPgH+uICBRhP8E4J/8HyN3bSH887X5Bv65suBmGKavr0+lUq2sOEqBAAiAAAhYCSgUik2bNhG+KQP/fG26X/EB8E9cqh5JAP7pkcPKi07BP1+bb+CfK4tUi8ViNpsd9z2wlbUKpUAABEDA7QjMzc2JRCLCz/vzzT8pilIoFBRFtba2FhYWTk1N0TRt/erea/Pyywdg/k+3i2o0mP8E4J/8HyN3bSH88+U09sIW+OfKglutVldXV4+Ojq6sOEqBAAiAAAhYCZhMJqVS6V7zf9I0PTU1Zf2iu8FgsM6ZYJ3UmmEYlmWjoqJOnz7d39/f0NCQmpo6MTFx8+ZNoVBoPXIxES/TSOGfuFhAgHMC8E/OkaLCBQLwz8Uk96oV+OfKrha8/7kybigFAiAAAi8QUKvVP/300wo+cb+0Hmfe/1SpVHV1deHh4TExMUNDQyqVqre3VygUZmVlxcbGikSiwcHB77//fvPmzaWlpf39/U+ePOnv7z969GhSUpJMJmtvbx8aGqIoavT5Yp3Y7FU52rod/rl0rLEOApwQgH9yghGV2CAA/7Sf0vD9WxtBs7xNU1NTBQUFfX19yzscR4EACIAACNgmoNPpfvnlFzea/7O1tfXEiROXLl06/3ypqqoKDAzct29fcHDwoUOHbt68WVRUtGXLlk8//TQuLq6kpOTOnTtFRUW7du3y9fXt7u4+ePBgYGBgX19feHh4Tk4OTdOvzdTwT9uhg60gQECAY/80Go2NjY2VlZUETUJRDyEwMzNz7do1wq/qOZMF5v9cmob5PP+KyWRiWXZubs6Z4YFzgQAIgIDnEWAY5saNG4mJif39/UajsbOz8/bt2wMDAyqVKjs7u6SkxGw20zRdWVmZlpYmFoulUmlmZmZNTY3RaKyrq4uNjc3MzBwcHKyvr79x40Z9fb1er8/Pz4+Jieno6KAoqqOjIy4uTigU0jSdkpJy9epVvV6vVCofPHgQFRVlPebWrVsxMTEtLS1Lc5DNdZZla2trfXx8IiIijh8/vnbt2vj4+KNHj+7bt6+hoeHWrVtRUVEDAwNHjhzZvn27QCB4/PhxXFzc4OBgQEBAcXGxTqeLjY09cODAvXv3du3aVVRUBP/0vJBGj9yCAMf++ezZs7m5udnZWbfoPBrpUAIWi4VhGDf6SAz8c2m+57N/ajSampoaiUTi0ABG5SAAAiDg8QTUarWXl1d8fPzAwIDRaOzq6kpNTX369KlKpcrJyXn48KHZbGYYpqqqKiMjY2RkZHx8PDs7u66uzmg01tfXx8XFZWVlDQ0N1dfXJyQkNDQ06PX6wsLCuLi4zs5OiqI6Ozvj4+Pb2tpomr5z505sbKzVPx8+fHj16lXrMcnJydevX1++fx47diwxMTE1NTU5Ofnx48fHjh07ePBgV1dXZmZmVFSURCI5fvz4rl27Ojs7q6qq4uLixsfHg4KCampqWJYVi8U7d+48efKkv7//0NDQcl4Bxf1Pj78K0EHnE+DeP53fB5wRBDgh4BL/FAgEqampk/xbhoeHi4qKampqlkrpitdFIlFOTg5XN8NHRkYiIiKampo4GXdUAgIgAAKrloBSqfz2228nJyeNRuOzZ8+MRuP09LTRaLQmROvtBIvFMjc3Nz09bXq+TE9PWx8/mZubMxgM09PTFEWNjY3J5XK9Xm8wGLRarVqtpijKYDBQFLW4rtFo1Gq19YtBOp1OpVJZj9FoNFNTU8vxT4PB0NDQsH///kOHDvn5+V2/fr2hocGmf65ZsyYiIiI3N3fRP3/88ce2tjaFQnHx4sW//OUvwcHBGo1mOUkN/rlqrw503HEE4J+OY4ua3YyA8/2TZVmlUimRSHT8WzQazcTExOIHBpeTpO0cw61/zszMSKVSiqLcLMLQXBAAARDgGQG5XL5+/Xo3mv9ToVA0NzdnZWVlZ2f39PRMTU319fV1d3drNBqpVCoWi/V6fW9vb2pqamVl5cjzRa/X9/T0JCcnDw0N0TRdW1u7f//+2tra5Tx8azAY4J88i1k0xxMIwD89YRTRB04ION8/7Qibh+3i1j85GW5UAgIgAAIgYDKZVCqVe82/wrKsTqez3mu1mSutB1AUtfh4LcuyWq2WYZjx8fGtW7f6+Pgs/6+r8E9cJiDAOQH4J+dIUaG7EoB/2kzknGzk1j9HR0ejo6MFAoG7hhraDQIgAAL8IGA2m3U6nXv5J0lWOnz48KFDh8Ri8aKavrY2+Cc/QhWt8CgC8E+PGk50hoQA/PO1aXjFB3Dun1FRUfBPkmhHWRAAARB49uyZQqH45ptv3Oj52xWnIWtB7fNl+fKJ529xmYCAIwjAPx1BFXW6JQH4J2Fet1OcW//UarWNjY1SqdQt4wyNBgEQAAHeENDpdCEhIW40/6edROOgXbj/yZtoRUM8hwD803PGEj0hJAD/dFDyNhgM3Prns2fP3GheH8KwRHEQAAEQcCgBwodvnz17xrLs5OSknRcyX5tc9Hr9Mr9/+9qqOD8A/unQ8EPlq5MA/HN1jjt6bYMA/JPztL1YIbf+qVarKyoqxGKxjVHEJhAAARAAgWUToGk6MTGRcHIs+OdisuN8RSqVJiQkLHs8cSAIuAcB+Kd7jBNa6QQC8E/OE+dihdz6p1gsDg8Pb2xsdEJU4BQgAAIg4MEE3G7+lcW04rQV3P/04PhH11xFAP7pKvI4L+8IwD8dl8659c/Z2Vm5XM6yLO9iCA0CARAAAbcioNfrIyMjGYYhaTXufzoue+L+J0lkoixvCcA/eTs0aJizCcA/HZdBufVP60gZjUZnhwjOBwIgAAKeRcBisczMzBC+UQ//dFz2hH961gWH3iwQgH8iFEBggQD803EZlFv/FIvFoaGh9fX1iF0QAAEQAAESAiaTSalUEn6CCP7puOwJ/yQJb5TlLQH4J2+HBg1zNgH4p+MyKLf+OTk5mZ6eLhKJnB0iOB8IgAAIeBYBuVy+ceNGnsz/SfNykUgkQqHQcfnRfs3wT8+64NCbBQLwT4QCCCwQgH/az4Ike7n1T4QsCIAACIAAJwT0ev2VK1f48P5nXV2dgJdLRUVFVVUVSQYkKQv/5CTOUQnfCMA/+TYiaI/LCMA/SXKk/bLc+qfZbJ6dncX7ny67VHBiEAABTyFgNptZlnX5+580TXd0dOTycsnPz29ubraf4xy3F/7pKZca+vF3BOCff4cDP1YzAfin4zIot/6pUqkePXo0PDy8msMVfQcBEAABcgIURd24cYPwc+Lk7386Lvu4e83wT/IgRw08JAD/5OGgoEmuIQD/dFye5tY/x8bG4uLiWltbXRMoOCsIgAAIeAoBlUrl5eWl0+lIOgT/dFz2hH+SRCbK8pYA/JO3Q4OGOZsA/NNxGZRb/5ydnZXJZIQvLDk7vHA+EAABEOAfgfn5+cHBQcLXGeCfjsue8E/+XTRoEQcE4J8cQEQVnkEA/um4DMq5f05NTcE/PeO6Qy9AAARcSMBisRDK57Nnz+Cfjsue8E8XXh04teMIwD8dxxY1uxkB+KfjMii3/ikWi8PDwxsaGtwswtBcEAABEOAZgdnZ2cbGxrm5OZJ2wT8dlz3hnySRibK8JQD/5O3QoGHOJuB8/7Tm7MHBQYaLRaPR9Pf3a7VaxyXCFdfMrX/K5fKioqKBgQFnhwjOBwIgAAKeRUChUGzevNnl83+uOLl4fEH4p2ddcOjNAgH4J0IBBBYION8/aZpubm7OysqiuFgkEsnt27dHR0d5mI+59U+z2Tw3N2cymRC7IAACIAACJARomk5MTDQYDCSV4P6n49Iu/JMkMlGWtwTgn7wdGjTM2QRc5Z/Z2dmcpK6JiYmUlJTV4J86na6lpWViYsLZIYLzgQAIgIBnETCbzWq12mw2k3QL/slJErdZCfyTJDJRlrcE4J+8HRo0zNkE4J82kx8nG7m9/zk6OhodHd3c3OzsEMH5QAAEQMCzCFAUFRUVRfg5N/gnJ4nSZiXwT8+64NCbBQLwT4QCCCwQgH/aTH6cbOTWP613ejs7OxG7IAACIAACJAQ0Gs3Ro0f1ej1JJfBPThKlzUrgnySRibK8JQD/5O3QoGHOJgD/tJn8ONnIrX/Ozs5i/hVnXx44HwiAgCcSMBqNQ0NDhFOwwD85SZQ2K4F/euJlhz49g38iCEBggQD802by42Qjt/7JsuzTp0/VajViFwRAAARAgITA7OxsS0uLy+dfYRhmZGREwN3S2tqqVCo5yV+urQT+SRLeKMtbAvBP3g4NGuZsAvBPx2VZbv1zZGTkypUrTU1Nzg4RnA8EQAAEPIuAUqnctWuXVqsl6Rb5/U+9Xl9RUZHO0ZKWlnb58uW+vj7HJTWn1Qz/JIlMlOUtAfgnb4cGDXM2AVf5Z1ZWFhfTfzJSqfT27dtisZiT2qyVsCzLSZbl1j/VanVVVdXo6KizQwTnAwEQAAHPIiCXyzdu3Ojy+T/1en1LSwsn6cZgMNA0nZSU1Nvby1WFLqwH/ulZFxx6s0AA/olQAIEFAi7xz8bGxvDw8GIulry8vMuXL2dnZ3NR2d/qePDgwcDAACd5l1v/NJvN09PThC8sIe5BAARAAAQMBkNBQcH09DQJCk7uf8I/bWZb+CdJZKIsbwnAP3k7NGiYswm4yj+joqKq+LeUlZUlJyfX1NTYzIhvupFb/1QqlQ8ePBgcHHR2iOB8IAACIOBZBEwm09TUlMvn/8T9z1dlVfinZ11w6M0CAfgnQgEEFgi4xD+bm5uzs7NflXhcuF2tVpeVlfHTPyUSSUxMTEtLC2IXBEAABECAhIBOpwsKCqJpmqQS3P90XLKGf5JEJsrylgD8k7dDg4Y5mwD8c2kG5bN/arXahoaGsbExZ4cIzgcCIAACnkVAq9UGBARQFEXSLfjn0uzJ7Tr8kyQyUZa3BOCfvB0aNMzZBOCfS7Mmn/3TZDKxLDs/P+/sEMH5QAAEQMCzCBiNRolEYjKZSLoF/1yaPbldh3+SRCbK8pYA/JO3Q4OGOZsA/HNp1uSzf1IU1d7eLpPJnB0iOB8IgAAIeBYBg8FQUlIyMzND0i3459Lsye06/JMkMlGWtwTgn7wdGjTM2QTgn0uzJp/9c3R0NCoqSiAQODtEcD4QAAEQ8CwCCoVi+/btPJn/s4CjJS8v7+LFi0lJSZzUV1hYKBQKl+ZHZ67DPz3rgkNvFgjAPxEKILBAAP65NKfy2T8pinry0Rl5PgAAIABJREFU5MnU1BRiFwRAAARAgIQARVFXrlxhGIakEk7uf1ZXV1dwtzx+/Jiryu7fv19eXr40PzpzHf5JEpkoy1sC8E/eDg0a5mwC8M+lOZXP/mk2m2dnZzH/p7OvEJwPBEDA4wiYTCa5XO5h868szWXk61KptLW1lbyeldUA//S4aw4d+hsB+CfiAAQWCMA/l2ZHPvunTCbLycnp6elB7IIACIAACJAQMJlMMpnMw74/tDSXka/DP0kCDGVBwCYB+KdNLNi4Ggm4u3/q9XqRSNTf36/X68kzLp/9c2Ji4s6dO11dXasxTNFnEAABEOCOgEajOXHihIfNv0KeAZfWAP/kLtxQEwgsEIB/IhRAYIGAu/unVCo9fvx4SEjI+Pj40ty5snU+++fc3JxSqWRZFrELAiAAAiBAQkCn0wUHB9M0TVIJJ+9/trS0rCxbOboU/JMkNlAWBGwSgH/axIKNq5EAn/1zcHCwtra2pqYmPz+/s7OzsrIyMzOztrZWqVQaDIaGhoasrKz4+Pgvvvji8OHD1dXV+fn5/f39DMMUFxd3d3dLJJKKigqZTNbc3JyVlSWTyV6bsPnsn9aRwvufq/EqRZ9BAAQ4JWAymaampvD+p52cCP/kNOJQGQj8jQD8E3EAAgsE+OyfZWVl33///ZkzZ65cuRIREXHkyJGAgIDz58+XlpaKRKLjx4+HhoYu+ueNGzc2b958//59iqL27NmTm5vb1tbm7e2dkJBw+vTpsLAwd/dPlUr1+PFjsViM2AUBEAABECAhwDBMRkbG9PQ0SSW4/2lHXwl34ftDJJGJsrwlAP/k7dCgYc4mwGf/LC4u/uyzz0JDQzs6On7++edTp07V1NTExcUlJSXduHHj008/LSkp6e3t3bp16+HDh6Ojoz/55JP8/HyKojZu3JiWljY2NhYdHb1u3bpDhw41NzczDPPajMjn+58jIyNXrlxpampydojgfCAAAiDgWQQUCsXWrVs1Gg1Jt+Cfr02pKz4A/kkSmSjLWwLwT94ODRrmbAI8989NmzZlZGQoFIrz58//8MMPCQkJ165dKyoqCgkJ+cMf/lBRUTEyMvLrNOI2/VOr1ZaUlLz77rtff/31Mr8jPzU1denSpfXr19+/f1+n01VXV2/YsCEuLk4ul4eHh3t7e7e1tfX39wcFBX311VeFhYUKheL06dO+vr59fX2FhYXbtm3buXNnW1ubVqvdv3//hg0bEhIS7ty5s2XLlpaWFuuzXuvXrz9+/LjJZMrKytqyZUt7ezvDMIGBgevWrQsKCmJZNiUlxcvLq6Ojo7+/f+fOnX/961+rqqp0Ol1aWtqdO3cI/8Hk7PDC+UAABECAfwRmZ2eFQuH8/DxJ0+CfK9bL1xaEf5JEJsrylgD8k7dDg4Y5mwDP/fObb77Jy8tTKpUBAQG7du3KycmJiYnJyMjIycnZtGlTaWnpwMDA9u3bjxw5Ehsb++mnn+bk5ExNTa1fvz4tLU0kEu3bt+/AgQNeXl4lJSXLuf+pVCpzcnJu374tlUoZhpmcnGxsbBwcHKQoqq+vr729XaFQqNXq3t7ehoaGsbExmqa7uro6OjrUarVEIhEIBC0tLQqFgmGY1tbWgoKC9PT0kZGRJ0+e6PV669BaDdZischksvb2doqiTCbT0NBQW1vb0NCQyWSamJgQiUQURTEM09nZKRKJ1Gr1/Py8TCZTqVSELyw5O7xwPhAAARDgJQHy/5e6kX+yLKvX62mafq34LR6A9z95GbZolHsTgH+69/ih9RwS4LN/lpeX//jjj1Z17OzsPHv27L59+06dOlVZWTk5ORkSErJv3z5vb28vL6/g4OCurq4rV658//33AQEBX3/9dX5+fn19/blz5zo7O69evbpv376hoaHFzPqqFT4/fyuVShMTE9vb2zkcfVQFAiAAAquQwMzMTH19/dzcHEnf+e+fGo1mdHRUr9fL5XIfH587d+7odLpXpb8XtsM/SWIDZUHAJgH4p00s2LgaCfDZP9Vq9djYmEqlMhgMNE2Pj48PDw+PjY1ptVpr4h8eHhaLxaOjo5OTkxRFyeVy60+xWKxUKjUazcTEBE3TU1NTYrF4OROE8tk/JyYm0tLSMP/narxK0WcQAAFOCSiVyt27d2u1WpJaOfdPmqZHR0d7e3spimJZlnq+WFf0ej3LsgzDjI6OdnV1KRQKg8HAsuzExMTTp0+tU3MxDKPX61Uq1dOnT6emphiGKS0t3bdvX0dHx9TU1NGjRzMyMnQ6HcMwfc8X6zNB1lujSqWyr69vampq0ULhnySxgbIgYJMA/NMmFmxcjQT47J+LidBpK3z2T5PJxLIs4R/sV2OIo88gAAIg8PcE9Hp9WFgYwzB/v/nNfnHrnzqdrr6+PjAw8NSpU2VlZSqVqqurq6io6MmTJw0NDQKBQCqVNjU1RUREHDp0KCkpaWhoqKenJykp6eeff75169bAwMDY2FhJSUlaWlpQUNCNGzc6OjpiYmI++eSTyMjIsbGx1NTUurq64eHhhw8fnj9/3tfXt7CwkGVZmUyWnZ2dmZnp7+9/48aNxQ/Fwz/fLBpwNAgsgwD8cxmQcMjqIAD/XCq3fPZPnU7X0tIyMTGxOgITvQQBEAABRxEwm80Mw1gsFpITcOufExMToaGhgYGBiYmJe/bsKSgoaGlpOXr0qLe394kTJwoLC+vq6ry9vQMCAtLS0pKTk2tqaqKiogICApKSknx8fPLz84VC4U8//RQeHp6amvrjjz/eunUrLCzs448/DgoKevr06a5du+Lj4/Pz8319fTMyMhISEj777LOioqLu7u5vvvkmMTExKipq9+7d7e3t1pwI/ySJDZQFAZsE4J82sWDjaiQA/3QX/8T8K6vx+kSfQQAEHECApunw8PCzZ882NzcPDw9funTp/PnzFRUVBQUF/v7+iYmJJpPp15ftz58/HxwcXFlZ+etkoSdPnszLy5ubmysoKPD19b106dKjR49CQkIOHTpUXFzc0dHxyy+/HD16tK6urrOzMzg42MfHp6KiIikpyff5otVqu7q6fJ4vVVVVkZGR3t7ex44da2lpsT5JOzQ0dPr0aR8fn+PHj3/44YcnTpxQKBQ3btz48ssvz58/39fX9+jRox07dmRkZGi1Wo1G09XVdejQoe3bt585c+bbb79NS0trbGz09vaur6+XSqVXr15NTk6+cePGZ599JhQKJyYmtmzZcu3ateTk5JiYGJlMptFoPvnkk82bN3d1dX3//fcjIyNNTU0+Pj5CoRD+6YCIQ5Ug8DcC8E/EAQgsEIB/uot/isXi0NDQ+vp6xC4IgAAIgAAJgdnZ2bq6uvLy8vHxcY1GU1tbW1FRMTw83NPTU1ZWJhQKLRbL5ORkRUVFdXW1WCzu7OwsKyvr7u42mUw9PT0lJSW1tbW9vb3379/Py8v79VvrUqm0vLz83r17Q0ND1vVfZ+Tq7+8XCARFzxeapqVSaeHzZWBgoLq6uqCg4O7du4v+OTIyEhQUlJCQ8Pjx47KystbWVoVCERsb+/HHHx8+fLirq6usrOyrr76Kj4/X6XQPHz5MT08/ePCgt7d3QUFBeXn54OBgU1OTdbLrkZGRX375JTExMT4+/vPPP+/s7JycnLT6Z1JS0tmzZwcHB1mWXbNmjY+Pj0gk+lWKNRrNkydP/Pz84J8kcYWyIGCfAPzTPh/sXUUE4J/u4p+zs7NyuZzwhaVVFNnoKgiAAAi8moDZbDaZTJbny+K6dcU6NYvFYjE9XywWy9Lti+vWr+JpNBr2+cIwDE3TL6xbN1onPmFZln6+WL8kRNO0Vqu1+qfBYJiYmDh37ty6deu2bt3q5+fX2dlZXFy8bdu2Cxcu+Pj4+Pv7CwSCkJCQzz77bNu2bdu3b8/JyUlNTd2xY8fmzZu3bt1aXFwsEAh27ty5cePGLVu2bN68OSMjo6ioaPPzpaOjw+qf5eXlf/3rX7ds2bJ9+/a33357ZGREJBIdPnxYq9XCP18dLNgDAtwQgH9ywxG1eAAB+Ke7+KcHBBu6AAIgAAJ8IKBUKrdv386r79+yLKtQKDo7O2tqamQyGU3Ter1eqVRqtVr188Xqq52dndZbshRF6fX6gYGBurq6/v5+nU4nEAi8vb0fPHjwq4gODQ1ptVqKotra2ioqKtRqtbUqiqKUSmVjY2NTU5P1U0MMw6jVaoPBYF1ZnCMU73/yIVDRBg8jAP/0sAFFd1ZOAP7pLv4pFovDw8MbGxtXPtgoCQIgAAIg8OyZUqn87rvveOWf1kxkvX26NCu9sP7CAUt/CoXCY8eOtba2siy7WGrpAfY3Lu61rsA/caGAAOcE4J+cI0WF7koA/rk06fL5+7cTExOpqamdnZ3uGmpoNwiAAAjwhoD1IVuS5nD7/dulmWhl65OTkw0NDYsTqKysksVS8E+S2EBZELBJAP5pEws2rkYC8M/FdGswGPjsn8+ePbO+qrQawxR9BgEQAAHuCMzMzNTV1RFOp8w3/1yay8jX4Z/chRtqAoEFAvBPhAIILBCAfy7N03z2T+vrPePj44hdEAABEAABEgJyuXzdunUajYakEvjn0uzJ7bpUKk1ISCAZHZQFAR4SgH/ycFDQJNcQcJV/ZmZm6vi3yGSyBw8e1NTUcJJKRSJRTk6OwWDgZGjFYvHly5fx/icnMFEJCIDAaiagVqu9vb31ej0JBPgnJ4nSZiXwT5LIRFneEoB/8nZo0DBnE3C+fzIM09TUFBgYGM+/JS4uLjo6ur6+3mZGfNON3Prnr9OF19XVjY2NOTtEcD4QAAEQ8CwC8/Pz/f39RqORpFvwzzfNics/Hv5JEpkoy1sC8E/eDg0a5mwCzvdP62uWQ3xdRkZGVCrV8tOknSO59U+z2Tw7O0v4DyZnhxfOBwIgAAL8I2A2m/V6PeEniOCfdtIf4S74J/8uGrSIAwLwTw4gogrPIOAS/yTMTO5SnFv/NBqNNE3Pzs56RuChFyAAAiDgKgJKpXLHjh08nH+FP9kN3x9yVXDivB5MAP7pwYOLrr0ZAfin4/I9t/4pFotDQ0MbGhrebIBxNAiAAAiAwN8TwPufr0188M+/Dxn8AgEOCMA/OYCIKjyDAPzztWl4xQdw658ymSw3N7e3t9czAg+9AAEQAAFXEbBYLPPz8xaLhaQBeP52xcnxtQXx/C1JZKIsbwnAP3k7NGiYswnAP1+bCFd8ALf+aTab5+bmTCaTs0ME5wMBEAABzyIwPT1dWlpK+DoDJ/7Z3Nys4eUyPDzc3Ny84vRHWBD+6VkXHHqzQAD+iVAAgQUC8E/CNGmnOLf+qdVq8f1bXLcgAAIgQE5AqVTu3LmTD+9/1tbWlvFyKSoqevz4sZ0E59Bd8E/yIEcNPCQA/+ThoKBJriEA/3RcEuXWP8fGxuLi4oRCoWsCBWcFARAAAU8hMD09XV5e7vL7nwzDPH36tJKXS3V1dXd3t+Pyo/2a4Z+ecqmhH39HAP75dzjwYzUTgH/az4Ike7n1T4PBIBaLCf9gv5pDHX0HARAAAQ4JkD9/S5JfPLss/JPDQEVV/CEA/+TPWKAlLiYA/3RcFufWP00m0/T0NOb/dPEFg9ODAAi4P4H5+fmhoSHC/53CPx2XPeGf7n+RoQc2CMA/bUDBptVJAP7puAzKrX9qtdqmpiapVLo6AxW9BgEQAAGuCCiVyj179hA+TgL/dFz2hH9yFeqoh1cE4J+8Gg40xpUE4J+Oy6Dc+qdYLA4LC8P8n668WnBuEAABjyCg0+kCAwNpmibpDfzTcdkT/kkSmSjLWwLwT94ODRrmbAIu8U+WZWma5iR1WatiWZaT2rithFv/VCqVDx8+HBwcdHaI4HwgAAIg4FkELBbL3Nycy+f/5DbjeFJt8E/PuuDQmwUC8E+EAggsEHC+f7IsK5FIOjs7OUmWGo2mra1NpVJxUhu3lXDrn9b3P+fn5xG7IAACIAACJARYls3JyZmeniasZHJyUq/Xc5s4UJvBYIB/kkQmyvKWAPyTt0ODhjmbgPP9k6bp5ubm7OxsTrLsxMRESkrK6OgoJ7VxWwm3/qlSqR4/fiwWi50dIjgfCIAACHgWAZVK5eXlpdPpSLqF52+5zZhLa4N/kkQmyvKWAPyTt0ODhjmbAPxzac7jdp1b/xwfH09KSnry5ImzQwTnAwEQAAHPIjAzM1NXVzc3N0fSLfgntxlzaW3wT5LIRFneEoB/8nZo0DBnE4B/Ls153K5z65/T09MSiUSv1zs7RHA+EAABEPAsAkajcXR01GQykXQL/sltxlxaG/yTJDJRlrcE4J+8HRo0zNkE4J9Lcx6369z6p8FgGBoa0mg0zg4RnA8EQAAEPIuATqcLCgrC92+5TXkc1gb/9KwLDr1ZIAD/RCiAwAIB+CeHKfOFqrj1T4lEcv36daFQiNgFARAAARAgIaBQKDZt2kT45zzc/3wh5XH4E/5JEt4oy1sC8E/eDg0a5mwC8E8OU+YLVXHrn5j/09nXBs4HAiDgoQRomr5586bBYCDpH7l/MgzT19f3kLulsrJyamrqhUzkjj/hnySRibK8JQD/5O3QoGHOJgD/dFxu5tY/dTpdU1OTVCp1dojgfCAAAiDgcQSMRiNhn8j9U6/XV1RU3OVoKSgoCAsL6+3tdVxSc1rN8E/C4ERxfhKAf/JzXNAqFxBwiX8KBIK0tDQFF8vg4GBiYmJvby8Xlf2tDpVKRVEUJ1mWW/80mUwGgwHzf7rgIsEpQQAEPIsATdM3btxgWZakW5z4Z0tLCyfpxmAw0DSdlJQE/yQZU5QFAYcSgH86FC8qdycCLvHPxsbGS5cuFXCxZGVlRUVFZWRkcFFZQd7zRSQScfIPAm79Uy6X37t3b2BgwJ3CC20FARAAAf4RUKvVBw8edPn8n3q9Hv5pM9vi/if/Lhq0iAMC8E8OIKIKzyDgEv9samqKi4t7wr9FIBBkZGTU1NTYzIhvupFb/5yYmLhz505XV5dnBB56AQIgAAKuIjA3N/fkyRPCx0lw//NNc+Lyj4d/uurSwHkdSgD+6VC8qNydCLjEP5ubm7Ozs5efipx2pFqtLisr46d/zs7OymQywgkD3Ck00VYQAAEQcAyB2dlZoVA4NzdHUj3803GpGf5JEpkoy1sC8E/eDg0a5mwC8M+lGZTP/knTtEgkksvlzg4RnA8EQAAEPIuAWq3+4Ycf8Pzt0vTHq3X4p2ddcOjNAgH4J0IBBBYIwD+XJl0++6dEIomNjW1paUHsggAIgAAIkBDQaDS+vr56vZ6kEtz/XJo9uV2Hf5JEJsrylgD8k7dDg4Y5mwD8c2nW5LN/ajSampoaiUTi7BDB+UAABEDAswjg/c+liY+H6/BPz7rg0JsFAvBPhAIILBCAfy5NvXz2T7PZPDs7azKZELsgAAIgAAKEBCwWC2ENnNz/LC0tTeBoiY+PP3369JUrVzipLzExsaqqaml+dOY6/JMwOFGcnwTgn/wcF7TKBQTgn0tzKs/9c2ZmhnzOdBcEGU4JAiAAAnwioNPpLl68SPg5N078s7a2tpWXS3V1NfyTTzGLtngCAfinJ4wi+sAJAfinu/jn5ORkenq6SCTiZNxRCQiAAAisWgIe+f2hpbmMfF0qlba2tpLXs7IacP9z1V6bnt1x+Kdnjy969wYE4J9LsyOf739OTk5mZGTAP98guHEoCIAACNgiYDQaxWIx4eMknNz/bGlpWZqD+LMO/7QVONgGAkQE4J9E+FDYkwh4jH8OP19omibJ33z2z/n5eY1GMz097Unhh76AAAiAgPMJzMzM1NfXe9j8nyS57+Wy8E/nhyXO6PEE4J8eP8To4HIJeIZ/Dg0NhYWF5eXlaTSal/Po8rfw2T/1en1ra+vk5ORyhxbHgQAIgAAI2CKgUqn27t2r1Wpt7VzuNtz/XH5ufdMj8fztcqMQx7kVAfinWw0XGutIAvz0z5GRkczMzGvXrl25cqWmpqa3tzclJSUiIiInJ2d8fFwgEMTGxj558oSm6by8vMLCwpiYmC+//NLLy0soFFZWVl69ejUqKqq0tJSiKIFAEBkZGRERERkZqdVq7WdBPvvn6OhodHR0c3OzI8MBdYMACICA5xMwGAwFBQWEj5PAP+3nU5K98E/PvwhXZQ/hn6ty2NFpWwT46Z/t7e379+/fsWPH2bNnCwsLExMTr169mpSU9OOPP968eTM2Nvbzzz+/e/euTqfz8/O7dOlSXFzcp59+eubMmba2tuPHj2dlZeXn5x87dmx4ePjmzZu//PJLaWnp119/XVZWZj8j8tk/GYbp7e1VKpW2hhHbQAAEQAAElkvAYrHMzs4STsEC/7SfT0n2wj+XG8o4zq0IwD/darjQWEcS4Kd/tra27tq168iRIyKR6NatW5s2bcrPz5fJZGlpadHR0WFhYR9//HF+fr5Op/P29g4LC8vKylq7dm18fHxCQsJnn30mEAg6OzvXr1+fkJAQHx+/YcOGPXv23L59e3R01H5G5LN/WiwWs9lM+A8mR4YS6gYBEAAB9yBgNpt1Op3ZbCZpLvzTfj4l2Qv/JIlMlOUtAfgnb4cGDXM2AT7758mTJ6empuLj4z/++OOioiKKoh4+fBgXF7fon1qt1tvbOzw8PDs7e+3atQkJCUFBQR988EF8fHxmZuaVK1eKi4tHR0dv3ry5du3aL774Yv/+/fYzokwmO3/+/Pvvv5+Tk6PVaktLS99+++3Q0FCZTHbmzJmtW7c2NjZ2d3cfPXr097//fXp6+tTU1MGDB3ft2iUSidLS0j766KM///nPTU1NGo1m/fr17733Xtzz5Y9//GNNTY313zq///3v9+zZYzKZEhMT33333aamJoqijhw58tZbb/n5+dE0ffXq1bVr1woEApFI9Mknn3zxxRf379/XaDTR0dFBQUFSqdTZIYLzgQAIgIBnEVCpVAcOHNDpdCTdgn/az6cke+GfJJGJsrwlAP/k7dCgYc4mwH//HBgYOHv2bEpKSmVl5aFDh8LCwuLj49euXXvr1q3u7u79+/eHh4fn5uauX78+IiKirq5u586djx49qq2t/e67765fv+7v73/9+vXGxsb169d//fXX9jOiSqUqKioqKChQKpUsy6rV6sHBwcnJSYZhxsfHR0ZGtFqtXq+XSqVPnz5VKBQMw0gkktHRUb1er1Aohp4vWq2WZVmxWFxZWZmZmTk1NSWVShdfNJJKpXK5/NmzZ9Z6ZmZmzGazUqkcGxtTKpXWv8pPTk7OzMzMzc2Nj49PTk6yLGsymbq6uoKDg5uampwdIjgfCIAACHgWAZVK9f3338M/7SREfP/Ws0IeveEFAfgnL4YBjeADAX76Z29vb2BgYFxcnEqlYhimpKTk3Llzfn5+4eHhPT09SqUyJSXFz88vKCjo+PHj6enpDQ0NgYGBR44cqa2tvXr16okTJ44dO3bx4sWJiYlfb5z6+fmdOHHihx9+GBoaspNuDQYDn5+/xfyffLhe0AYQAAEPIIDnb+2nQoPBAP/0gDhHF/hGAP7JtxFBe1xGgJ/+SdO0SqXSaDQsyxoMBr1er1QqFQqFWq1mGMZgMGi1WoVCoXy+aLVaiqLUarVCodDr9RqNRvF8UalULMta70xat1hrs5N3+eyfZrN5dnaWcMJ0l8UZTgwCIAACvCEwMzNTXV09OztL0iJHP3+r0+mmpqZ6enpaWlomJiZ6enpaW1spijIYDHK5vKGhoba2dmJiwvqojlar7erqamxstD6YY02gbW1tHR0der3eYDDQNN3X19fQ0DA1NcWyrFKpnJiYkEgkTU1NNnMi/JMkNlAWBGwSgH/axIKNq5EAP/3TZjp0wkY++6dOp2tqahofH1+NYYo+gwAIgAB3BBQKxddff63RaEiqdKh/sizb1NQUERERGhpqffbn4sWL33//fWVlpUqlunv3rr+//5EjR6yveFRUVMTExERFRVk/Ed/f319cXBwTExMcHHzy5MmEhISJiYmSkpLg4GB/f/+wsLDe3t6cnJygoKCAgABvb2+buRX+SRIbKAsCNgnAP21iwcbVSAD+uTT18tk/xWLx5cuXGxsbV2OYos8gAAIgwB2B6enp0tJSPt//ZBgmLy/Pz88vNzf315dHdu7cmZWVdf78eetE1kKhsLy8/MqVK5cuXRoeHr5x48bp06fr6+uzs7OPHz9eWVkZEhJy5syZysrK6OjoL7/8sqOj44cffoiIiKisrDx8+PDDhw/9/f3ffffd3Nzc0tLSpUlwcR3+yV24oSYQWCAA/0QogMACAfjnYrrl+fufBoNhZGSE8IMZiHsQAAEQAIFnz56p1eqAgICrV68ajca2trYLFy5cunTp6dOnYrH4woUL6enp8/PzDx48OHfuXFFRkVarbW5u9vHxKSgoMJlMN27c8Pf3b29vHx4eTktL279/f1lZ2a8fijt37tyxY8dGR0crKioOHDiwY8eOpqYmhmE2bdr03Xff6fX6e/fu/eUvf4mOjpbJZHK5/NNPP925c+fSHLS4zjBMYWHh1atXe3p6fH19vby8uru7MzMzIyIilEplYmLiTz/95OXldeHChaGhoevXr2dkZNA0PTIyEhgYWFZWFhQUdPPmTblc3tvbu3HjRqFQuG7dui1bthw4cODLL78sLi4+ceLE22+/TdO09ZWWxfMursA/cZmAAOcE4J+cI0WF7koA/rmYbnnun+4aYWg3CIAACPCPgMlkkslkSqXSYrEYDIapqSm5XD77fJmamtJqtRaLhaIomUym1+tNJpPBYBgfH9fpdBaL5dfpWyYnJ9Vq9fj4+NjYmPVz6NY/EQ4PD1s/WPD06dP+/n61Wm0wGHp7ewcGBliWlcvl3d3dUqnUKn4dHR0lJSVLc9DiutU/Y2Ji+vv7rf7Z29ublZUVERGRlJS0efPmzMzM+/fvx8TEWP0zKChoZGRkaGgoMDDw8ePHwcHBiYmJCoXizp1z0JZpAAAgAElEQVQ7f/rTn4RC4ebNm0NCQnp6egYHB1Uq1cmTJ99+++3F0728Av/kX8yiRW5PAP7p9kOIDnBFAP65NO/y/PnbsLCwhoYGroYe9YAACIDAqiVgsVgI+84wzOTkpPXrPkvzyPLX9Xp9S0uLzeOX+qefn9/+/ft7e3uzs7OvXLly9+7dDRs2vP18OXz4cE9PT2xs7AcffPCHP/zhnXfe2b17d2VlZXBw8Mcff/zOO++8/fbbp0+flkgkcXFxH3744TvvvPOHP/zhwYMHJ0+efOedd2ye2roR/kkYHigOAi8TgH++zARbVikB+OfSBMxz/8T7n6v0KkW3QQAEOCUgl8vXrVvH5+8PLU1ML6yzLKtQKEZHRzUajXXX9evXc3NzJycnrZNRj4yMWO9/9vX1Wb92az1MqVQODw8vlnqh2hd+wj85jThUBgJ/IwD/RByAwAIB+OfSpMtn/1SpVI8ePRoeHkbsggAIgAAIkBDQarVnzpyhKIqkEod+/3ZpYnrtekZGxtLPCEml0ri4uNzcXJVK9dqyrzoA/kkSGygLAjYJwD9tYsHG1UgA/rk0+/LZPy0Wi8lkMpvNqzFM0WcQAAEQ4I6AxWKZn58nrI8//imRSCYmJhZzmV6vHx4eHhsbo2l6ceObrsA/CcMDxUHgZQLwz5eZYMsqJQD/XJqV+eyfWq22oaFhbGxslUYqug0CIAACHBFgGCYzM3N6epqkPv7459IsxtU6/JMkNlAWBGwSgH/axIKNq5EA/HNptuazf46OjkZFRQkEgtUYpugzCIAACHBHQKFQbNq0yU3f/1yasxy3Dv/kLtxQEwgsEIB/IhRAYIGAS/xTIBCkpaXJ+beMjo4WFxfX1NRwktRFIlFOTo7BYOAk2qanpzH/JyckUQkIgMAqJ6DT6YKDg2maJuGA+5+cJEqblUil0oSEBJLRQVkQ4CEB+CcPBwVNcg0B5/snwzAtLS1BQUHR/FsiIyOjo6ObmppsZsQ33citfxqNRr1ePzs765pAwVlBAARAwFMImM1mtVpN+Do9/PNNc+Lyj4d/esqlhn78HQH459/hwI/VTMD5/mkwGGiaVvN10Wg0JN9sWJpfufVPPH+7mq9T9B0EQIBDAkajcXx83GQykdQJ/1ya77hdh3+SRCbK8pYA/JO3Q4OGOZuAS/yT20TF29q49c+JiYm0tLSuri5nhwjOBwIgAAKeRUAul69fvx7vf9rJnnj/07NCHr3hBQH4Jy+GAY3gAwH4p50ETLiLW//kQ7SgDSAAAiDgAQT0en1oaCjDMCR9wf1PwhRppzjuf5JEJsrylgD8k7dDg4Y5mwD8004KJNzFrX9aR8poNDo7RHA+EAABEPAsAmazmWEYi8VC0i34J2GKtFMc/kkSmSjLWwLwT94ODRrmbALwTzspkHAXt/6pVqurqqpGR0edHSI4HwiAAAh4FgGGYZKTkwk/Ts6JfwoEAhkvl76+Pq4+xbeCTAr/9KwLDr1ZIAD/RCiAwAIB+OcKUuMyi3Drn9Z83NbWhtgFARAAARAgIaBWqw8ePKjT6UgqIfdPiqLq6uoKebnk5OQ8fvx4mcmO88PgnySRibK8JQD/5O3QoGHOJgD/5DxxLlbIrX9OT0+Pjo4S/oPJ2eGF84EACIAA/wjMzc11dnbOz8+TNI3cP1mWlUqlHbxcOjs7R0ZGFtOZk1fgnySRibK8JQD/5O3QoGHOJgD/dFxa5dY/Z2ZmpFIpRVHODhGcDwRAAAQ8jgDhy5/Pnj0j90/HZR93rxn+6XEXHDr0NwLwT8QBCCwQgH86Lk9z658SieTatWstLS2IXRAAARAAARICs7Ozzc3Nc3NzJJXAPx2XPeGfJJGJsrwlAP/k7dCgYc4mAP90XAbl1j8VCsW9e/cGBgacHSI4HwiAAAh4FgGezP/puOzj7jXDPz3rgkNvFgjAPxEKILBAAP7puDzNrX9aLBaTyWQ2mxG7IAACIAACJARomk5MTHT5928dl33cvWb4J0l4oyxvCcA/eTs0aJizCbjEPymK0mq1nCRIhmE0Gg3DMJzUxm0l3PonRVFPnjyZmppydojgfCAAAiDgWQTMZrNOpyP8cx4nz99SFMVh3tFoNDRNc1ihq6qCf3rWBYfeLBCAfyIUQGCBgPP9k2GYwcFBgUDASWJTqVS1tbVyuZyT2rithFv/lEgksbGxQqEQsQsCIAACIEBCgKKoa9eusSxLUgm5f9I0PTg4yFXeYRimpqZmbGyMqwpdWA/8kyQyUZa3BOCfvB0aNMzZBJzvnzRNNzc3Z2dnc5LbJiYmUlJSRkdHOamN20q49U9rTzs6OpwdIjgfCIAACHgWAY1G4+fnp9frSbpF7p96vb6lpYWrvEPTdFJSUm9vL1cVurAe+CdJZKIsbwnAP3k7NGiYswnAPx2XYrn1z5mZmfHxccy/4uwrBOcDARDwOALz8/O9vb1Go5GkZ/BPx2VP+CdJZKIsbwnAP3k7NGiYswnAPx2XQbn1T4Zh+vv7VSqVs0ME5wMBEAABzyIwOzvb1tY2Pz9P0i34p+OyJ/yTJDJRlrcE4J+8HRo0zNkE4J+Oy6Dc+qdEIomJicH8n86+QnA+EAABjyOgVqu9vb3x/K3j0h9hzfBPj7vm0KG/EYB/Ig5AYIEA/JMwTdopzq1/ajSa2tpaiUSC2AUBEAABECAhwJP5P/H+56sSKPyTJLxRlrcE4J+8HRo0zNkE4J+vyn/k27n1T+v8nxaLxdkhgvOBAAiAgGcRMBgMRUVFMzMzJN3C87fkWfJVNcA/SSITZXlLAP7J26FBw5xNAP75qvxHvp1b/1QoFPfv33/69KmzQwTnAwEQAAHPImA2m7Varcvn/8T9z1flWfinZ11w6M0CAfgnQgEEFgi4xD8FAkFSUpKYi6WjoyMuLq61tZWLymzUIZPJXpUgX7udW/8cHR2Njo4WCASIXRAAARAAARICOp0uKCiIpmmSSji5/9nY2Ggj8axo0+DgYGxsbF1d3YpKv1hoZGRkamrqtWnOQQfAP0kiE2V5SwD+yduhQcOcTcAl/tnY2Hjp0qV8Lpbs7OwbN25kZWVxUdmLdaSmpt6/f3/F+ZVb/1Sr1VVVVSMjI84OEZwPBEAABDyLgFarPXXqFOF0Vpz45+PHj19MPCv9nZeXFxcXl56evtIK/q5cTk5OdXX1itMfYUH4p2ddcOjNAgH4J0IBBBYIuMQ/BQLBrVu3Bnm/PHz4MDU1dcV5lFv/NBqNNE3Pzs4idkEABEAABEgIGI1GsVjMh/k/Gxoa+JkJ29ra6urqVpz+CAvCP0nCG2V5SwD+yduhQcOcTcAl/tnc3JydnU2Yn5xQvLm5+c6dOys+Ebf+SVHUkydPZDKZs0ME5wMBEAABzyIwPT398OFDD/v+0IpTlc2CUqm0tbXV5i4nbIR/etYFh94sEIB/IhRAYIEA/NNOKuWVf0okkmvXrjU3NyN2QQAEQAAESAgolcpdu3ZptVqSSjh5/ralpcVODnLhLvgnSWygLAjYJAD/tIkFG1cjAfinnQTPK/+kKKqjo2Nqamo1hin6DAIgAALcEdDr9SEhIXz4/hD802YKxv1P7oIdNfGIAPyTR4OBpriWAPzTZvKzbuSVfz579gyTf7r2YsHZQQAEPIOA0WiUyWQmk4mkO7j/aSd7Eu6Cf5JEJsrylgD8k7dDg4Y5mwD8006a5JV/Tk5OZmRkiEQiZ4cIzgcCIAACnkXAbDZTFEX4Fz34p53sSbgL/ulZFxx6s0AA/olQAIEFAvBPO2mSV/4plUpv3brV3t6O2AUBEAABECAhoNFo/Pz89Ho9SSXwTzvZk3AX/JMkMlGWtwTgn7wdGjTM2QTgn3bSJK/8c25uTq1WT09POztEcD4QAAEQ8CwCWq323LlzfJj/E+9/2kzB8E/PuuDQmwUC8E+EAggsEIB/2kx+1o288k+LxWI0Gs1mM2IXBEAABECAhIDJZFIoFIT/O8X9TzvZk3AX/JMkvFGWtwTgn7wdGjTM2QTc3T9VKlVtba1cLu/s7Gxvb9fpdMXFxUNDQwzDEOY/g8HAK//UaDR1dXUSicTZIYLzgQAIgIBnEWBZNj8/n/BxEj77p0gkqq6unpycZFm2trZWrVa/aULE/CueFfLoDS8IwD95MQxoBB8IuLV/UhSVkJBw4sSJwcHBgYGBvr4+vV5/+PDh2tpamqbfNN2+fDyv/HNkZCQyMrKpqYkPYYM2gAAIgID7ElAoFNu2bdNoNCRd4LN/Dg4Otra2yuXyzMzMU6dOjY+Pv5zg7G+Bf5LEBsqCgE0C8E+bWLBxNRJwI/8cGRm5fv16amrq5ORkYWFhSEhIUVHRzp07//SnP0VHRxcUFJSWlqpUqu+//76qqmpycvLMmTO+z5fHjx+zLGs/19rcyyv/ZFl2cHBQrVavxjBFn0EABECAOwKzs7PNzc1zc3MkVXLon1qt9t69e5cvX46KihKJRA0NDb6+vidPnrx//75UKk1OTg4ICDh+/Livr29+fr7BYBgfH4+Pj/f19Y2LixsaGmJZNisry9fX18/PLyYmZmxsrKamJi0tLS4ubuPGjWvWrDl79uzw8HBmZuaxY8d8fX0FAgHLssHBwdYU6evr6+/vX1lZqVQqIyMjQ0JCGIaBf5LEBsqCgE0C8E+bWLBxNRJwI//s7u729vYOCAgYGRmJioraunXr48eP9+7du3Xr1sbGxjt37qSkpMjlcqt/9vT0eHl5CYXCiIiII0eODAwM2DRM+xt55Z/W+T8JJwxYjSGOPoMACIDASwQIX/589uwZh/6pVCqjoqK++OKL69evNzY2+vj4ZGVlxcbG7tmzJz09/dixY3v37i0vL4+Li/vhhx+ampri4uIOHz6cnp4eERFx+/btvLy8rVu3JiUl1dTUnD9/vqenJz8/Pzg4uLq6ev/+/Tt27GhsbKytrT19+nR9ff3PP/+8YcOG7u7uLVu2vPvuu6dOndq3b98PP/xg/duur6/vo0ePWJaFf74UMtgAAqQE4J+kBFHeYwi4l3/+9NNPZ8+etT6J+s0339TX13t5ee3evXtgYCAzM/P27duL/jk6Orpu3bovvvji6NGjAoFAp9PZV02bewUCwa1bt1QqlV6vZ1lWq9VqNBqGYSiKUqlUOp2OZVmGYTQajVarZVlWr9erVCrro796vV4oFGZkZBgMhrm5OZZlrf/csd6Jtf7dfXZ21mAwmM1mi8XCsuzMzIxVMmdnZ6enp81ms8lkYll2bm7OYrGIxeKrV68KhUKPiT10BARAAARcQmB+fr6vr89oNJKcnVv/vHnzZkpKikwmq66u3rdvn0AguHnz5rfffhsVFeXr6+vl5dXf35+Xl/fuu+9evXo1Ojq6sLBQp9Pdu3fvxIkTqampvr6+f/7zn7/++uuioiKVSpWXlxcYGCgSiQ4dOrRv377e3t5du3YdPnxYoVDIZLJDhw61tbVt2rTpww8/VCqV4+PjqampUVFRRUVFXl5ew8PDBoMB/kkSGygLAjYJwD9tYsHG1UjAU/1zfHy8pqbm4sWLX3755Z///Ofa2lqbhml/Y1FR0f/+7/9+8MEHSUlJv37T6NixY97e3j09PRkZGWvWrImKipLJZAMDA15eXsePHx8eHr5+/fonn3xSU1NDUVRSUtIHH3zg7e2t1+uvXLny0UcfDQ8PP3v27MMPP/zkk09iYmLm5uZCQ0M///zzkZERmUz2/vvv+/v7m0wmtVodGBi4e/fu4eFhoVD4/vvvX7lyZfHxqra2ttUYpugzCIAACHBHQKlUbt++XavVklTJrX8mJSUVFRVRFFVVVbV79+4HDx7k5+cnJSUVFxcv9c/333//2rVrkZGR+fn5Go3m3r17J0+eLCoqEgqFYWFhW7du3b17d3l5eXp6+gv+uWfPHl9fX6VSOTY29uOPPy76p8FgoCgqLy/v008//fjjj/fv3y+VSuGfJIGBsiDwKgLwz1eRwfZVR8CN/FMsFgcHBx89erS4uNjf33/Lli319fW+vr5bt26tqKhISUlZev/z/v37Xl5eJSUlAQEBmzdvXtkca9a/QMvlcp1OxzCMWq1WqVQMw+j1eoVCYb3nyTCMSqVSq9UMw2i1WoVCQVGUwWDQ6XTNzc3W+58zMzM0TVvvf1IURdO09Vbn4naz2WwtZb3/OT09bb1fajQaKYqamZmxWCxzc3PT09Mmk2nVxSg6DAIgAAKcEuDb/J9KpdLqnwaDoaen58iRI7dv3w4LC9u7d29aWpqvr++2bdvy8vIuX7588OBB64M5R48eTU5OjoiISE1Nzc7O3rFjR3R0dG5u7o8//lhQUHDnzh2rf/r4+HzzzTclz5eTJ0+WlZWdOXNm586dfX191vufBoPB+rRtQEDAJ598Ul1dbf16PO5/chpxqAwE/kYA/ok4AIEFAm7knyzLikSimJiY8PDwkJCQ6Ojo/v7+R48ehYaGZmZmlpWV1dTUaDSapKSk7u5umUx25cqV4ODgixcvVlZWruxzuHx7/xNRCwIgAAIgQE7A+hc9wtfpObz/qdVqq6urW1tbDQaDRqN5/PhxYGDgpUuXSktL+/v7f/1i0GeffXbq1KnAwMDi4mKGYSQSSWpqamBgYEpKytDQkF6vLygoCAwMDA4OjouLGx0dFQgEhYWFEokkPT39woULERERQ0NDmZmZISEhFy9ebG5uZhjm6tWrwcHB1oeANBpNeHj4hg0bnjx5Yt0C/yQPM9QAAi8QgH++AAQ/Vy8BN/JP659p6SWL9fVLmqaZ/38xGAw0TVvfsVw8cGUfv+Xb/J+rN0bRcxAAARDglADDMBkZGbya/5NhmMVUxbKsNX8xDDM4OGh9/ranp8ea7Kx+yDDMyz+tpdjni/U2pvUwa1pcum7NldbtQ0ND8fHxBw4cuHz58uTkJPyT01hDZSDw/wjAP/8fC6ytcgLu5Z/WvOi0/+L+5yq/OtB9EAABjyQgl8vXr1/vFvN/qlSqhoaGmpoapVLpiNxnffj2wYMHxcXFYrF48RS4/+mRkY9OuZYA/NO1/HF2HhGAfy6m25dX4J88ilQ0BQRAAAQ4IjA3NycSiebn50nq4/D525ezj8u3wD9JYgNlQcAmAfinTSzYuBoJwD/tpHn452q8JNBnEAABTyfAt/c/7aQhV+2Cf3r6RYD+uYAA/NMF0HFKfhKAf9rJ7vBPfgYtWgUCIAACJATkcvmGDRvc4vlbOxnKobvgnyQBhrIgYJMA/NMmFmxcjQTgn3ZSOPxzNV4S6DMIgICnE3Cj9z/tZCiH7oJ/evpFgP65gAD80wXQcUp+EoB/2knh8E9+Bi1aBQIgAAIkBHQ63cWLF2maJqkE73/ayZ6Eu6RSaUJCAsnooCwI8JAA/JOHg4ImuYYA/NNOmoR/uiYocVYQAAEQcCQBi8UyMzPDn/k/7aQhV+3C/c8VBKDFYpmfn7fOFWedBYf8v4RfyVpBL1DEcQTgn45ji5rdjAD80052h3+6WTSjuSAAAiCwDAIMw6SmphoMhmUc+8pDcP/TTvYk3OWm9z+np6dramqio6PDOVqCg4NrampeGYLY4W4E4J/uNmJor8MIwD/tpEn4p8PiDhWDAAiAgMsIKJXK7777TqvVkrQA/mknexLuclP/1Gg0t27dCgsLS+No8fLyunTpEkmUoiyvCMA/eTUcaIwrCcA/7aRJ+KcrQxPnBgEQAAHHEMD8n3YSn3UXnr9dQehpNJrc3NzW1tYVlLVZ5ObNm/BPm2TcdCP8000HDs3mnoBL/FMgECQnJ4t5v5SVlVmf0XptqrZ5gEgkysnJIXzEi/shR40gAAIgsLoJGI3GsbExk8lEgoGT+5+NjY38zIRPnjxpaGiwmdqcsNF973/CP0muKY8vC//0+CFGB5dLwPn+yTBMe3v7pUuXIni/hIWF3b17d8W5Fv653CjEcSAAAiDgRAIKhWLbtm0un/+Toqiqqip+ZsIrV67cv39/xemPsCD803o14P6nE/+v4IxTwT+dQRnncAsCzvdPwrTkRsXhn25xCaCRIAACq42ARqPx9fXV6/UkHSe//+lG6czJTYV/WiMT/klyhfKwLPyTh4OCJrmGAPzTcWkV/umamMZZQQAEQMAuAZ48f+u47OPuNcM/rfEL/7R7HbvfTvin+40ZWuwgAvBPx+Vp+KeDghbVggAIgAAJAbPZrNfrzWYzSSW4/+m47An/tEYm/JPkCuVhWfgnDwcFTXINAfin4zIo/NM1MY2zggAIgIBdAjRNx8fHsyxr96jX7IR/Oi57uq9/Zmdn19bWUhwt165du3DhAkeVOaoawuvoNZeZZ+2Gf3rWeKI3BATgn47LoPBPgsBEURAAARBwFAG1Wu3t7Y33Px2X/ghrdl//vHPnTnp6egtHy+XLl8+fP89RZY6qRiQSOepC9bh64Z8eN6To0EoJwD8J06Sd4vDPlUYlyoEACICAAwnMzc319PQYjUaSc+D+p530R7jLff0zMzOzrKxsgqOlv7+/p6eHo8ocVY1CoSC5jlZVWfjnqhpudNYeAfgnYZq0Uxz+aS/ysA8EQAAEXERgbm7uyZMn8/PzJOeHf9pJf4S73Nc/uZ3/kyQ+UZaHBOCfPBwUNMk1BOCfhGnSTnH4p2tiGmcFARAAAbsElErlzp07tVqt3aNesxP+aSf9Ee6Cf74m+LDbPQnAP91z3NBqBxCAfxKmSTvF4Z8OCFhUCQIgAAKkBCiKun79OuF3U+CfdtIf4S74J2mIozwvCcA/eTksaJQrCMA/CdOkneLwT1dENM4JAiAAAq8nYDKZXn+Q3SPgn3bSH+Eu+Kfd0MNOdyUA/3TXkUO7OScA/yRMk3aKwz85D1dUCAIgAALkBGZnZ1tbW/H+p5385dpd8E/yIEcNPCQA/+ThoKBJriEA/3RcloV/uiamcVYQAAEQsEtAo9EcPXrU5fOvsCyr1Wq5ykEsy05NTen1eq4qdGE98E+78Yud7koA/umuI4d2c04A/um4FAv/5DxcUSEIgAAIkBPQaDQnTpygKIqkKvLnbymK6uvr4yoHMQzz8OHDkZERrip0YT3wT5LIRFneEoB/8nZo0DBnE4B/Oi7Fwj+dHc04HwiAAAgsg8D8/PzTp09dPv+nXq9vaWnhKgfRNJ2UlNTb28tVhS6sB/65jCjGIe5HAP7pfmOGFjuIAPzTcSkW/umgoEW1IAACIEBCYGZmpqKiYnZ2lqQS8vuf8M9X5d/V459arTY/Pz+FoyU3N3doaIgkqlHWoQTgnw7Fi8rdiQD881X5j3w7/NOdrgS0FQRAYNUQUCqVu3btcvn8n/DPV+XZ1eOfvb29X3/99c8//xxGvAQGBu7fvz8rK2vVXMfu11H4p/uNGVrsIALwz1flP/Lt8E8HBS2qBQEQ+P/aO/enps78Af8N+090f9pfdmZ3prOXcadTZ7qdKRZdtmPZVrG6VFDrZUWoqCBqvRYqVAFhC7oqYBGUm+AKiwgCaTBSBZFrDHINCeSEJBLCt2NmmHwtuZBzTpqT85wfOof3vO+b9/Oc99NPn55cICCGgCAIZWVl8/PzIicZHR0V830/+Ke3Oqse/9TpdNu2bRseHraJPiYmJs6ePVtYWChmVzNWVgL4p6x4mVxJBPBPb/VPfDv+qaRMYK0QgIBqCLhcrlevXrlcLjER8/5b8VXS2wyq8s/4+PixsTExW9E91mw2Z2Vl4Z/iSco3A/4pH1tmVhgB/NNb/RPfjn8qLBlYLgQgoA4CJpPpxIkTc3NzYsLFP8VXSW8z4J9B7Ez8MwhoIR6Cf4YYOC8XvgTwT2/1T3w7/hm++56VQQACKiYwPj4eFRVlNBrFMMA/xVdJbzPgn0HsTPwzCGghHoJ/hhg4Lxe+BPBPb/VPfDv+Gb77npVBAAIqJmAymTIyMsLh+Wdzc3OXRIdGozl37lxtba0k8z169OgX/ClR/DOI7MQ/g4AW4iH4Z4iB83LhSwD/FO+Z3mbAP8N337MyCEBAxQScTqfBYHA6nWIYSPL88+7duxUSHTdv3iwuLi4rK5NkvrKysrt373qrbnK3459B7Ez8MwhoIR6Cf4YYOC8XvgTwT/nqKP4ZvvuelUEAAiomYLVaKyoqbDabGAaS+Gdra+toWB4//vjjgwcP5KuPvmfGP4PYmfhnENBCPAT/DDFwXi58CeCfvqugmKv4Z/jue1YGAQiomMDk5OTGjRsj7Pc/xVSrn4/V6/WdnZ0/bw9NC/4ZRHbin0FAC/EQ/DPEwHm58CWAf8pXTfHP8N33rAwCEFAxAZvN1tjYaLfbxTCQ5Plne3u7fDVIzMz4ZxB7w2g0lpaWdnZ2Bj5Wp9NJ9fsrr1696u3tHRgYCPzVfffs7OwsKSlZWFjw3Y2rgRPAPwNnRc8IJ4B/iqnQvsfinxGePIQHAQgoloDIH/9cWlrCP31XQDFXef4ZDolVXl7+5ZdfOhyOcFhMZKwB/4yM+0gUEhDAP8XUSN9j8U8JNihTQAACEJCagNFo3L17t9lsFjMx/um7Aoq5in+K2ZlSjS0vL09JScE/peK5tLSEf0oIk6mUTQD/FFMjfY/FP5WdG6weAhCIUALT09MJCQn4p48Sxvtvg9j7v+z7b4NYsO8h+KdvPkFcxT+DgMaQyCSAf/oowCIv4Z+RmTNEBQEIKJzAwsLC8PBwOPz+Cp//XLHO8vwzHDIM/5T8LuCfkiNlQqUSwD9XLH6SNOKfSs0K1g0BCEQ6AT7/6bvM8fwziAzg+WcQ0FQ1BP9U1e0mWF8E8E/fNVjMVfzT187jGgQgAIFfiIAgCFevXp2fnxfz+nz+U0x99D2W559idqZUY3n+KRXJ5Xnwz2UUnKidAP7puwqKuYp/qj27iB8CEAhLAhMTExs2bDAajWJWF87+OTAwUFRU1NbWNjs7G1wV8/b802KxdHZ2ajSa4KYNcBT+KWZnSjUW/5SK5PI8+OcyCoYymsAAABTXSURBVE7UTgD/DLAcBtEN/1R7dhE/BCAQlgQcDsejR49evXolZnXh7J9TU1Pd3d0vXrwQBCGI4mW1Wlf0z46Ojri4uFOnTo2OjgY3bYCj8E8xO1OqsfinVCSX58E/l1FwonYC+GeA5TCIbvin2rOL+CEAgXAlEP6f/zQajd99911UVFR0dHRaWtrg4GBPT8+RI0eioqK2bdvW3Nys0WgKCwu/+eabzz77LCYmpry83GQyPXny5NSpU//+978PHDhQVVVlNpvT09Ojo6OjoqLS09Onp6evXbv20UcfRUVFHT161Edde8M/e3t7d+7c+dlnn/X29hoMBh8DJbmEf4ZD3uCfkt8F/FNypEyoVAL4pyTFcsVJ8E+lZgXrhgAEIprAxMTE3//+93B+/63FYqmtrY2Njc3Pz29qasrMzHzy5ElpaWlGRsazZ8+OHz/+1Vdfff/997GxsSkpKTqdLi0tbc2aNfX19VevXj18+PCtW7cSExNLS0vv37//wQcfPHr0qL29/fPPPy8uLk5MTLxx44bBYHj33Xd9mKRer+/o6Jidne3t7U1OTv7b3/6m0Wimp6dXLHaSN77hn06n02q1Ln9e1+Vy2e32ly9fdnV1TU1N2e12h8MxPz/vdDodDofNZltcXFxaWnL/5437z8XFRcfrw263Ly4uvnr1ShCExcXF+fl51+vDZrPNz8+7BxYWFlosFpvN5k4Cl8tls9kEQfD7hckh+/6hV6+PN3LUHdfCwsIb7UH/iX8Gjc7bQPzTGxnaVUcA/5S8cC5PiH+qLp0IGAIQUAKB6enp7du3T09Pj46O9vT0jI2NLSwsGAyGgYEBm802Nzf39OnTvr4+k8nkcDj0ev3IyIjdbp+Zmenp6XFbq91uf/r0qVvJRkZGurq6JiYmLBZLf3+/Vqvt7++fm5sbGBjQarUzMzOCIHR1del0upcvXwqC0N/f39XVZTabjUZjZWXlcsl442RoaOjcuXNr165dv379lStX2tra9u/fv3v37urq6qSkpO3bt+fl5W3duvX8+fPj4+NDQ0OJiYmXL1/etm3boUOH7ty54/bPxMTE3/3ud319fYIgmM3mkpKSNWvWnDlzpr6+fsOGDcePH3/jRZf/HBkZqa2t/frrr9euXXv9+vWXL1/qdLq+vj6r1eo+//HHHycnJ8fHxx8/fjw8PGy1Wt1xDQ4Oms1mdx+DwSAIQk9Pz+PHj00mkyAIer2+q6trbGxMEATd60MQhPHxce3rY2JiYm5u7tGjR01NTRcvXjSZTH19fb29vVVVVR9++OH27dudTufMzExHR0daWlpUVFRxcXFJScmuXbtOnz4dGxt7/fr1M2fO7Nixo6mpyWg0tre3b9++/Ysvvmhpaenp6Tlx4sTRo0fPnj2r0Wjy8vLee++9qqqqd955R6/Xa7XaPXv27Ny5s7m52eFw3L179/e//318fPzTp08nJibMZvPevXvfe++9+vr63t7eiYmJ6enpvr6+2dnZ+fn5/v5+vV7v1t1nz57l5OS0tbUFngQ6nS4+Pn5sbCzwITab7ebNmz/9jwbPIS6Xa3h4+Pz58zU1NZ7tYs7xTzH0VhyLf66IhUY1EsA/l8ut5Cf4pxozipghAAElEHA6nWaz+euvv16/fn1eXp7RaDx37tyuXbuGhoY6OjrWrVsXFxd39+7d0dHRjIyM1NTUkZGR6urqDRs23L59e2lpaWRkZN++fampqQMDA4WFhdHR0S0tLdPT0ydPnvzwww9Pnjw5Pj6emZkZFRXV09NjNpujo6NjY2Orq6stFou7z+DgoMFg+PTTT1csPYIgDA4O1tTU5OTkxMfHb9q0KS8vLzU1NTk5ubOzs7y8vLS0tLy8/Isvvrh8+fLU1JQgCIcOHdqxY0dCQoJOp9NqtW7/zMjI+MMf/tDX1zc5OdnR0VFcXPzXv/41Pz+/q6vr0qVLra2tK7661WodGhrKzs6OiYl5++23T548ee/evU2bNh09etRisdy+ffsf//jH559/3tbW1tjY6F6bxWI5ffr0+vXrs7OzR0ZGbt++/fHHH9+4cWN2dnbv3r2ffvrp8+fPTSZTcXFxdHR0Q0PD3NzcxteH2WxubGxct27dBx980NzcPDk5GRMTs27duuzs7Dt37vzpT3/69a9/nZqaOj4+7nQ6BUE4derUW2+9VVhY6HA4FhcXq6ur33///crKyqysrD/+8Y/l5eW3bt06ePDg6dOn4+LiqqqqRkdHY2Jirly58sknnyQnJ4+NjSUlJV24cMFkMm3ZsuU3v/lNbW3tRx99dPPmzRcvXvz5z38eHBx0uVwOh+N///vfW2+9tXPnzunpaafTaTKZzp0796tf/Wrv3r3ff//95s2bm5ub+/r6EhISjh075n5GevHixaioqIaGhsAzIAj/dDqdIyMjz549Gxoa0mq1jY2N9fX13d3dg4ODmZmZ169f12g0dXV1d+7caW9v12q19fX1Op1OEITAV+XuiX+ulpjf/vinX0R0UAsB/NNb9RXfjn+qJYuIEwIQUCYB93svl9e+/KFQH+3LnS0Wi8FgMJvNVqt1+Wt+hNfHcvnw3W42m9vb25c7e54IgtDc3Lx169bk5OSsrKzdu3fX1tZWVVUlJycXFBQkJCSkp6eXlpbu3r37ypUrU1NTVqu1rq4uJibmX//61/Pnz7Va7Y4dO0pLS3t7e2NjY3Nzc7/55putW7dWV1enpKRkZGRcvXr13XffffLkieeLep673387OTlZUlKSlJSUk5NTWVnpfpbrjnc5tOVRq4r9jUk8x7ofk+bm5trt9tu3b+/cuTM7O/vatWvd3d1Go7GoqCg9Pb2wsLC8vHx0dLSqqiopKUkQhJaWlgsXLvT19bW1taWnpyclJR04cKC5ufmHH37Yt29fRUXFoUOH7t27Z7fb9+3bV1lZubCwYLVa//KXv5SWlm7cuPHBgwc//PBDXFzc6Oio0+m8fPnypUuXsrKyMjMzBwcHe3t7//Of/+Tl5cXHxxcWFi4tLS1vFc/z0Lz/1mq1Xrp06fDhw2fPnt28efOuXbuio6M3bdrk9s8zZ87ExcVt2LAhOjr6/fffT0lJiY+PT0hIePjw4fLWDfAE/wwQVODd8M/AWdEzwgngn8u1U/IT/DPCk4fwIAABFROQ+/tvzWZza2tr7uujoqJibGxMr9dXVlbm5uZevny5p6fH/YBUq9W6HdhisdTV1Wk0GpPJpNfrq6qqHj9+PDc3V1NTk5+fn5ubW1NTYzabHz58WFBQkJubW1RU5KPqeX7/0MuXL8vKytzvXy0tLZ2bm7NYLD7Gir/k+flPq9Xa0NCQnZ1979499/8XmJqaqqio+Oqrr7777ruCgoIDBw64/bOwsHBwcNDtn8nJyQcOHGhsbGxvb09NTa2qqkpLS3vw4MFPnxTdv3//zZs3bTbb1NTUmjVrysrKNm7c2NTU1N7enpiYODY2duzYsaysrMLCwsnJyaWlJYfD0djYmJmZWV5e7nu/h8w/8/PzDx8+/O233xYVFc3NzTU1NX388cdarTYzM/PMmTNpaWkPHz5saWn58ssvNRrN7OzsoUOHbt265XvxP7+Kf/6cicgW/FMkQIZHDgH8U3yl9DYD/hk5eUIkEIAABP4/Abn901tlCU27p3+6X3F4eLisrCw7O/vgwYM1NTWyLsPTP93U3d8V5HkHfnpX8+PHj69du3bw4EGr1dra2lpUVDQ0NNTe3n7ixAn3h1e3bt0aFxe3f//+xsbGY8eOtbW1uWVy3759W7Zs2bNnz29/+9vu7u7MzMwtW7bExcXt2LFjenr6xo0bni/kcrksFovfLx9aWloKsX/m5+fX1dXZbLbGxsZPPvlEp9N5+qdGo8nNzTUYDPin5938Zc/xz1+WP68eRgTwT/mKKP4ZRhudpUAAAhCQlIDa/NNdKw0GQ1tb28DAgHyl0/3ro7m5uYHcrpmZmaGhocXFxdnZ2fHxcffXR+n1+vn5+RcvXrS2tt6/f39kZMRisej1+p9MzOVytbS0lJeX19fX19XVrV27dmpqamJiYrlnIJ7pbWEh88+CgoK0tLQTJ05s2rSpu7u7oKBg8+bNg4ODWVlZZ8+ePXr0aHt7u/trltz+eeTIEffnlr2tfMV2nn+uiEVMI/4phh5jI4oA/ilfEcU/IypVCAYCEICABwF1+qd8FdNz5p8///QAL/b01KlTb7/99p49e955553Ozk4xwvnGUkLjn3a7vaGhobi4+OLFizk5OefPn6+srJyamhofH79161ZFRUVJScmzZ8/6+/t/+hpk90/mXLt2raOj443V+v0T//SLaLUd8M/VEqN/xBLAPz1rnrTn+GfEpg2BQQACqieAf0pbMT1nk9U/XS7X4uKi+5/S7uLQ+Kf7G4+MRuPy+2+XvwzJ/flYzz/dAS63rCpe/HNVuALpjH8GQok+qiCAf3rWPGnP8U9VpBBBQgACqiSAf0pbMT1nk9U/5dutIfPPpaWlubm5ysrKhw8fOhwOmSLCPyUHi39KjpQJlUoA//SsedKe459KzQrWDQEIQMAfAfxT2orpORv+6W/3heI6/ik5ZfxTcqRMqFQC+KdnzZP2HP9UalawbghAAAL+COCf0lZMz9nwT3+7LxTX8U/JKeOfkiNlQqUSwD89a5605/inUrOCdUMAAhDwRwD/lLZies6Gf/rbfaG4jn9KThn/lBwpEyqVAP7pWfOkPcc/lZoVrBsCEICAPwL4p7QV03M2/NPf7gvFdfxTcsr4p+RImVCpBPBPz5on7Tn+qdSsYN0QgAAE/BHAP6WtmJ6z4Z/+dl8oruOfklPGPyVHyoRKJYB/etY8ac/xT6VmBeuGAAQg4I8A/iltxfScDf/0t/tCcR3/lJwy/ik5UiZUKgH807PmSXuOfyo1K1g3BCAAAX8EJPHP+/fv68LyuH//flNTk7Q1MfDZ8E9/uy8U1/FPySnjn5IjZUKlEsA/A6+Iq+2Jfyo1K1g3BCAAAX8ExPvn7OxsS0tLdlge3377bUNDw2qrnlT98U9/uy8U1/FPySnjn5IjZUKlEsA/paqXP58H/1RqVrBuCEAAAv4IiPfPn1cNWtwEVOWf//znPw0Gw0L4HTdu3EhJSXE4HP5SgeuBEsA/AyVFv4gngH/KV+/xz4hPHwKEAARUSwD/lK96qsc/nz59umvXLp1OZwi/48qVK8ePH8c/JfxXHP4pIUymUjYB/FO+Cop/Kjs3WD0EIAAB7wTwT/mqp3r802g0/ve//x0aGnoZfodWq+3o6FhcXPSeBFxZHQH8c3W86B3BBPBP+Soo/hnBiUNoEICAygngn/JVT/X4p8qTSG3h459qu+PE65UA/ilfBcU/vW47LkAAAhBQOAH8U77qiX8qPDlY/soE8M+VudCqQgL4p3wVFP9UYUIRMgQgoBIC+Kd81RP/VEkSqS1M/FNtd5x4vRLAP+WroPin123HBQhAAAIKJ4B/ylc98U+FJwfLX5kA/rkyF1pVSAD/lK+C4p8qTChChgAEVEIA/5SveuKfKkkitYWJf6rtjhOvVwL4p3wVFP/0uu24AAEIQEDhBPBP+aon/qnw5GD5KxPAP1fmQqsKCeCf8lVQ/FOFCUXIEICASgjgn/JVT/xTJUmktjDxT7XdceL1SgD/lK+C4p9etx0XIAABCCicAP4pX/XEPxWeHCx/ZQL458pcaFUhAfxTvgqKf6owoQgZAhBQCQH8U77qiX+qJInUFib+qbY7TrxeCeCf8lVQ/NPrtuMCBCAAAYUTwD/lq574p8KTg+WvTAD/XJkLrSokgH/KV0HxTxUmFCFDAAIqIYB/ylc98U+VJJHawsQ/1XbHidcrAfxTvgqKf3rddlyAAAQgoHAC+Kd81VO5/nnhwoU9e/akq+m4cOGCy+VSeDaHaPn4Z4hA8zLhTwD/lK+C4p/hv/9ZIQQgAIHgCOCf8lVPhfqn3W7XaDTFxcV5ajrKysrwzwD/HYJ/BgiKbpFPAP+Ur4Lin5GfP0QIAQiolQD+KV/1VKh/qjUViDtQAvhnoKToF/EE8E/5Kij+GfHpQ4AQgIBqCeCf8lVP/FO1aRXZgeOfkX1/iW4VBPBP+Soo/rmKjUhXCEAAAooigH/KVz3xT0WlAosNlAD+GSgp+kU8AfxTvgqKf0Z8+hAgBCCgWgL4p3zVE/9UbVpFduD4Z2TfX6JbBQH8U74Kin+uYiPSFQIQgICiCOCf8lVP/FNRqcBiAyWAfwZKin4RTwD/lK+C4p8Rnz4ECAEIqJYA/ilf9cQ/VZtWkR04/hnZ95foVkEA/5SvguKfq9iIdIUABCCgKAL4p3zVE/9UVCqw2EAJ4J+BkqJfxBPAP+WroPhnxKcPAUIAAqolgH/KVz3xT9WmVWQHjn9G9v0lulUQwD/lq6D45yo2Il0hAAEIKIrA0NBQTk5Oenr6UQ6pCRw5ciQrK0tR24HFQsA/AfzTPyN6qIQA/ol/qmSrEyYEIAABCQk4HI6pqakxDnkIzMzMSHizmAoC4UAA/wyHu8AawoIA/ol/hsVGZBEQgAAEIAABCEAgcgngn5F7b4lslQTwT/xzlVuG7hCAAAQgAAEIQAACqyOAf66OF70jmAD+iX9G8PYmNAhAAAIQgAAEIBAOBPDPcLgLrCEsCOCf+GdYbEQWAQEIQAACEIAABCKXAP4ZufeWyFZJAP/EP1e5ZegOAQhAAAIQgAAEILA6Avjn6njRO4IJ2Gy2kZGR5xwyEOju7n7y5MnCwkIE7x9CgwAEIAABCEAAAhDwSwD/9IuIDmoh4HK5nE7nAoc8BJxOp1p2EnFCAAIQgAAEIAABCHghgH96AUMzBCAAAQhAAAIQgAAEIAABCEhKAP+UFCeTQQACEIAABCAAAQhAAAIQgIAXAvinFzA0QwACEIAABCAAAQhAAAIQgICkBPBPSXEyGQQgAAEIQAACEIAABCAAAQh4IYB/egFDMwQgAAEIQAACEIAABCAAAQhISgD/lBQnk0EAAhCAAAQgAAEIQAACEICAFwL4pxcwNEMAAhCAAAQgAAEIQAACEICApATwT0lxMhkEIAABCEAAAhCAAAQgAAEIeCGAf3oBQzMEIAABCEAAAhCAAAQgAAEISErAh3/+H8JsG3vxxPECAAAAAElFTkSuQmCC;" vertex="1" parent="1">
          <mxGeometry x="1082" y="164.5" width="1237" height="785" as="geometry" />
        </mxCell>
        <mxCell id="EuXT_0k7Hs9fIDMIP2ZN-9" value="src" style="shape=folder;fontStyle=1;spacingTop=10;tabWidth=40;tabHeight=14;tabPosition=left;html=1;whiteSpace=wrap;labelBackgroundColor=none;" vertex="1" parent="1">
          <mxGeometry x="274.00000000000006" y="681" width="70" height="50" as="geometry" />
        </mxCell>
        <mxCell id="EuXT_0k7Hs9fIDMIP2ZN-10" value="server" style="shape=folder;fontStyle=1;spacingTop=10;tabWidth=40;tabHeight=14;tabPosition=left;html=1;whiteSpace=wrap;fillColor=#D0FCFF;labelBackgroundColor=none;" vertex="1" parent="1">
          <mxGeometry x="274.00000000000006" y="577" width="70" height="50" as="geometry" />
        </mxCell>
        <mxCell id="EuXT_0k7Hs9fIDMIP2ZN-11" value="client" style="shape=folder;fontStyle=1;spacingTop=10;tabWidth=40;tabHeight=14;tabPosition=left;html=1;whiteSpace=wrap;fillColor=#D0FCFF;" vertex="1" parent="1">
          <mxGeometry x="-531" y="527" width="70" height="50" as="geometry" />
        </mxCell>
        <mxCell id="EuXT_0k7Hs9fIDMIP2ZN-12" value="source" style="shape=folder;fontStyle=1;spacingTop=10;tabWidth=40;tabHeight=14;tabPosition=left;html=1;whiteSpace=wrap;fillColor=#CBFFCC;" vertex="1" parent="1">
          <mxGeometry x="213" y="422" width="70" height="50" as="geometry" />
        </mxCell>
        <mxCell id="EuXT_0k7Hs9fIDMIP2ZN-13" value="document" style="shape=folder;fontStyle=1;spacingTop=10;tabWidth=40;tabHeight=14;tabPosition=left;html=1;whiteSpace=wrap;fillColor=#CBFFCC;" vertex="1" parent="1">
          <mxGeometry x="16" y="412" width="70" height="50" as="geometry" />
        </mxCell>
        <mxCell id="EuXT_0k7Hs9fIDMIP2ZN-14" value="Civil-Electrical-Equipment-Management-System-SEP490-G87" style="shape=folder;fontStyle=1;spacingTop=10;tabWidth=40;tabHeight=14;tabPosition=left;html=1;whiteSpace=wrap;fillColor=#A4D8FF;" vertex="1" parent="1">
          <mxGeometry x="66" y="282" width="270" height="60" as="geometry" />
        </mxCell>
        <mxCell id="EuXT_0k7Hs9fIDMIP2ZN-17" value="&amp;lt;&amp;lt;use&amp;gt;&amp;gt;" style="endArrow=open;endSize=12;dashed=1;html=1;rounded=0;exitX=0.388;exitY=-0.036;exitDx=0;exitDy=0;exitPerimeter=0;entryX=0.5;entryY=1;entryDx=0;entryDy=0;entryPerimeter=0;" edge="1" parent="1" source="EuXT_0k7Hs9fIDMIP2ZN-12" target="EuXT_0k7Hs9fIDMIP2ZN-14">
          <mxGeometry width="160" relative="1" as="geometry">
            <mxPoint x="406" y="552" as="sourcePoint" />
            <mxPoint x="276" y="352" as="targetPoint" />
          </mxGeometry>
        </mxCell>
        <mxCell id="EuXT_0k7Hs9fIDMIP2ZN-18" value="&amp;lt;&amp;lt;use&amp;gt;&amp;gt;" style="endArrow=open;endSize=12;dashed=1;html=1;rounded=0;exitX=0;exitY=0;exitDx=70;exitDy=23;exitPerimeter=0;" edge="1" parent="1" source="EuXT_0k7Hs9fIDMIP2ZN-13" target="EuXT_0k7Hs9fIDMIP2ZN-14">
          <mxGeometry width="160" relative="1" as="geometry">
            <mxPoint x="416" y="562" as="sourcePoint" />
            <mxPoint x="576" y="562" as="targetPoint" />
          </mxGeometry>
        </mxCell>
        <mxCell id="EuXT_0k7Hs9fIDMIP2ZN-24" value="&amp;lt;&amp;lt;merge&amp;gt;&amp;gt;" style="endArrow=open;endSize=12;dashed=1;html=1;rounded=0;edgeStyle=orthogonalEdgeStyle;labelBackgroundColor=none;exitX=0;exitY=0;exitDx=55;exitDy=14;exitPerimeter=0;" edge="1" parent="1" source="EuXT_0k7Hs9fIDMIP2ZN-10">
          <mxGeometry x="0.1605" y="-19" width="160" relative="1" as="geometry">
            <mxPoint x="304" y="577" as="sourcePoint" />
            <mxPoint x="246" y="472" as="targetPoint" />
            <Array as="points">
              <mxPoint x="320" y="591" />
              <mxPoint x="320" y="527" />
              <mxPoint x="246" y="527" />
            </Array>
            <mxPoint as="offset" />
          </mxGeometry>
        </mxCell>
        <mxCell id="EuXT_0k7Hs9fIDMIP2ZN-25" value="&amp;lt;&amp;lt;merge&amp;gt;&amp;gt;" style="endArrow=open;endSize=12;dashed=1;html=1;rounded=0;exitX=0;exitY=0;exitDx=40;exitDy=0;exitPerimeter=0;edgeStyle=orthogonalEdgeStyle;entryX=0.25;entryY=1;entryDx=0;entryDy=0;entryPerimeter=0;" edge="1" parent="1" source="EuXT_0k7Hs9fIDMIP2ZN-11">
          <mxGeometry width="160" relative="1" as="geometry">
            <mxPoint x="-581" y="467" as="sourcePoint" />
            <mxPoint x="-413.5" y="427" as="targetPoint" />
          </mxGeometry>
        </mxCell>
        <mxCell id="EuXT_0k7Hs9fIDMIP2ZN-30" value="source" style="shape=folder;fontStyle=1;spacingTop=10;tabWidth=40;tabHeight=14;tabPosition=left;html=1;whiteSpace=wrap;" vertex="1" parent="1">
          <mxGeometry x="980" y="-100" width="70" height="50" as="geometry" />
        </mxCell>
        <mxCell id="EuXT_0k7Hs9fIDMIP2ZN-31" value="document" style="shape=folder;fontStyle=1;spacingTop=10;tabWidth=40;tabHeight=14;tabPosition=left;html=1;whiteSpace=wrap;" vertex="1" parent="1">
          <mxGeometry x="720" y="-110" width="70" height="50" as="geometry" />
        </mxCell>
        <mxCell id="EuXT_0k7Hs9fIDMIP2ZN-32" value="Civil-Electrical-Equipment-Management-System-SEP490-G87" style="shape=folder;fontStyle=1;spacingTop=10;tabWidth=40;tabHeight=14;tabPosition=left;html=1;whiteSpace=wrap;fillColor=#A4D8FF;" vertex="1" parent="1">
          <mxGeometry x="770" y="-240" width="270" height="60" as="geometry" />
        </mxCell>
        <mxCell id="EuXT_0k7Hs9fIDMIP2ZN-33" value="&amp;lt;&amp;lt;use&amp;gt;&amp;gt;" style="endArrow=open;endSize=12;dashed=1;html=1;rounded=0;exitX=0.388;exitY=-0.036;exitDx=0;exitDy=0;exitPerimeter=0;entryX=0.75;entryY=1;entryDx=0;entryDy=0;entryPerimeter=0;" edge="1" parent="1" source="EuXT_0k7Hs9fIDMIP2ZN-30" target="EuXT_0k7Hs9fIDMIP2ZN-32">
          <mxGeometry width="160" relative="1" as="geometry">
            <mxPoint x="1110" y="30" as="sourcePoint" />
            <mxPoint x="980" y="-170" as="targetPoint" />
          </mxGeometry>
        </mxCell>
        <mxCell id="EuXT_0k7Hs9fIDMIP2ZN-34" value="&amp;lt;&amp;lt;use&amp;gt;&amp;gt;" style="endArrow=open;endSize=12;dashed=1;html=1;rounded=0;exitX=0;exitY=0;exitDx=70;exitDy=23;exitPerimeter=0;" edge="1" parent="1" source="EuXT_0k7Hs9fIDMIP2ZN-31" target="EuXT_0k7Hs9fIDMIP2ZN-32">
          <mxGeometry width="160" relative="1" as="geometry">
            <mxPoint x="1120" y="40" as="sourcePoint" />
            <mxPoint x="1280" y="40" as="targetPoint" />
          </mxGeometry>
        </mxCell>
        <mxCell id="EuXT_0k7Hs9fIDMIP2ZN-35" value="&amp;lt;&amp;lt;merge&amp;gt;&amp;gt;" style="endArrow=open;endSize=12;dashed=1;html=1;rounded=0;edgeStyle=orthogonalEdgeStyle;" edge="1" parent="1" target="EuXT_0k7Hs9fIDMIP2ZN-30">
          <mxGeometry width="160" relative="1" as="geometry">
            <mxPoint x="1115" y="50" as="sourcePoint" />
            <mxPoint x="1013.9992173609901" y="-50" as="targetPoint" />
            <Array as="points">
              <mxPoint x="1115" />
              <mxPoint x="1030" />
            </Array>
          </mxGeometry>
        </mxCell>
        <mxCell id="EuXT_0k7Hs9fIDMIP2ZN-36" value="&amp;lt;&amp;lt;merge&amp;gt;&amp;gt;" style="endArrow=open;endSize=12;dashed=1;html=1;rounded=0;exitX=0;exitY=0;exitDx=40;exitDy=0;exitPerimeter=0;edgeStyle=orthogonalEdgeStyle;entryX=0.25;entryY=1;entryDx=0;entryDy=0;entryPerimeter=0;" edge="1" parent="1" target="EuXT_0k7Hs9fIDMIP2ZN-30">
          <mxGeometry width="160" relative="1" as="geometry">
            <mxPoint x="920" y="50" as="sourcePoint" />
            <mxPoint x="773" y="110" as="targetPoint" />
          </mxGeometry>
        </mxCell>
        <mxCell id="EuXT_0k7Hs9fIDMIP2ZN-37" value="&amp;lt;&amp;lt;merge&amp;gt;&amp;gt;" style="endArrow=open;endSize=12;dashed=1;html=1;rounded=0;exitX=0;exitY=0;exitDx=40;exitDy=0;exitPerimeter=0;edgeStyle=orthogonalEdgeStyle;entryX=0.25;entryY=1;entryDx=0;entryDy=0;entryPerimeter=0;" edge="1" parent="1" source="EuXT_0k7Hs9fIDMIP2ZN-39">
          <mxGeometry width="160" relative="1" as="geometry">
            <mxPoint x="-571" y="677" as="sourcePoint" />
            <mxPoint x="-493" y="577" as="targetPoint" />
          </mxGeometry>
        </mxCell>
        <mxCell id="EuXT_0k7Hs9fIDMIP2ZN-38" value="&amp;lt;&amp;lt;merge&amp;gt;&amp;gt;" style="endArrow=open;endSize=12;dashed=1;html=1;rounded=0;edgeStyle=orthogonalEdgeStyle;labelBackgroundColor=none;" edge="1" parent="1" source="EuXT_0k7Hs9fIDMIP2ZN-9" target="EuXT_0k7Hs9fIDMIP2ZN-10">
          <mxGeometry x="0.1668" y="-38" width="160" relative="1" as="geometry">
            <mxPoint x="342.06" y="666" as="sourcePoint" />
            <mxPoint x="341.50000000000006" y="616" as="targetPoint" />
            <mxPoint x="-1" y="10" as="offset" />
          </mxGeometry>
        </mxCell>
        <mxCell id="EuXT_0k7Hs9fIDMIP2ZN-39" value="src" style="shape=folder;fontStyle=1;spacingTop=10;tabWidth=40;tabHeight=14;tabPosition=left;html=1;whiteSpace=wrap;fillColor=#FFFF99;" vertex="1" parent="1">
          <mxGeometry x="-531" y="637" width="70" height="50" as="geometry" />
        </mxCell>
        <mxCell id="EuXT_0k7Hs9fIDMIP2ZN-41" value="" style="shape=folder;fontStyle=1;spacingTop=10;tabWidth=40;tabHeight=14;tabPosition=left;html=1;whiteSpace=wrap;fillColor=#D8D8D8;" vertex="1" parent="1">
          <mxGeometry x="-751" y="467" width="110" height="580" as="geometry" />
        </mxCell>
        <mxCell id="EuXT_0k7Hs9fIDMIP2ZN-8" value="actions" style="shape=folder;fontStyle=1;spacingTop=10;tabWidth=40;tabHeight=14;tabPosition=left;html=1;whiteSpace=wrap;fillColor=#D8D8D8;" vertex="1" parent="1">
          <mxGeometry x="-731" y="497" width="70" height="50" as="geometry" />
        </mxCell>
        <mxCell id="EuXT_0k7Hs9fIDMIP2ZN-2" value="routes" style="shape=folder;fontStyle=1;spacingTop=10;tabWidth=40;tabHeight=14;tabPosition=left;html=1;whiteSpace=wrap;fillColor=#D8D8D8;" vertex="1" parent="1">
          <mxGeometry x="-731" y="917" width="70" height="50" as="geometry" />
        </mxCell>
        <mxCell id="EuXT_0k7Hs9fIDMIP2ZN-3" value="redux" style="shape=folder;fontStyle=1;spacingTop=10;tabWidth=40;tabHeight=14;tabPosition=left;html=1;whiteSpace=wrap;fillColor=#D8D8D8;" vertex="1" parent="1">
          <mxGeometry x="-731" y="847" width="70" height="50" as="geometry" />
        </mxCell>
        <mxCell id="EuXT_0k7Hs9fIDMIP2ZN-4" value="reducers" style="shape=folder;fontStyle=1;spacingTop=10;tabWidth=40;tabHeight=14;tabPosition=left;html=1;whiteSpace=wrap;fillColor=#D8D8D8;" vertex="1" parent="1">
          <mxGeometry x="-731" y="777" width="70" height="50" as="geometry" />
        </mxCell>
        <mxCell id="EuXT_0k7Hs9fIDMIP2ZN-5" value="pages" style="shape=folder;fontStyle=1;spacingTop=10;tabWidth=40;tabHeight=14;tabPosition=left;html=1;whiteSpace=wrap;fillColor=#D8D8D8;" vertex="1" parent="1">
          <mxGeometry x="-731" y="707" width="70" height="50" as="geometry" />
        </mxCell>
        <mxCell id="EuXT_0k7Hs9fIDMIP2ZN-6" value="icons" style="shape=folder;fontStyle=1;spacingTop=10;tabWidth=40;tabHeight=14;tabPosition=left;html=1;whiteSpace=wrap;fillColor=#D8D8D8;" vertex="1" parent="1">
          <mxGeometry x="-731" y="637" width="70" height="50" as="geometry" />
        </mxCell>
        <mxCell id="EuXT_0k7Hs9fIDMIP2ZN-7" value="components" style="shape=folder;fontStyle=1;spacingTop=10;tabWidth=40;tabHeight=14;tabPosition=left;html=1;whiteSpace=wrap;fillColor=#D8D8D8;" vertex="1" parent="1">
          <mxGeometry x="-731" y="567" width="70" height="50" as="geometry" />
        </mxCell>
        <mxCell id="EuXT_0k7Hs9fIDMIP2ZN-43" value="utils" style="shape=folder;fontStyle=1;spacingTop=10;tabWidth=40;tabHeight=14;tabPosition=left;html=1;whiteSpace=wrap;fillColor=#D8D8D8;" vertex="1" parent="1">
          <mxGeometry x="-731" y="987" width="70" height="50" as="geometry" />
        </mxCell>
        <mxCell id="EuXT_0k7Hs9fIDMIP2ZN-45" value="" style="endArrow=open;endSize=12;dashed=1;html=1;rounded=0;edgeStyle=orthogonalEdgeStyle;" edge="1" parent="1" source="EuXT_0k7Hs9fIDMIP2ZN-8">
          <mxGeometry width="160" relative="1" as="geometry">
            <mxPoint x="-621" y="526.5" as="sourcePoint" />
            <mxPoint x="-491" y="687" as="targetPoint" />
            <Array as="points">
              <mxPoint x="-601" y="522" />
              <mxPoint x="-601" y="737" />
              <mxPoint x="-491" y="737" />
            </Array>
          </mxGeometry>
        </mxCell>
        <mxCell id="EuXT_0k7Hs9fIDMIP2ZN-51" value="" style="endArrow=open;endSize=12;dashed=1;html=1;rounded=0;edgeStyle=orthogonalEdgeStyle;exitX=0;exitY=0;exitDx=70;exitDy=32;exitPerimeter=0;" edge="1" parent="1" source="EuXT_0k7Hs9fIDMIP2ZN-7">
          <mxGeometry width="160" relative="1" as="geometry">
            <mxPoint x="-631" y="587" as="sourcePoint" />
            <mxPoint x="-491" y="687" as="targetPoint" />
            <Array as="points">
              <mxPoint x="-601" y="599" />
              <mxPoint x="-601" y="737" />
              <mxPoint x="-491" y="737" />
            </Array>
          </mxGeometry>
        </mxCell>
        <mxCell id="EuXT_0k7Hs9fIDMIP2ZN-58" value="" style="endArrow=none;dashed=1;html=1;rounded=0;exitX=0;exitY=0;exitDx=70;exitDy=32;exitPerimeter=0;" edge="1" parent="1" source="EuXT_0k7Hs9fIDMIP2ZN-6">
          <mxGeometry width="50" height="50" relative="1" as="geometry">
            <mxPoint x="-531" y="837" as="sourcePoint" />
            <mxPoint x="-601" y="669" as="targetPoint" />
          </mxGeometry>
        </mxCell>
        <mxCell id="EuXT_0k7Hs9fIDMIP2ZN-59" value="" style="endArrow=none;dashed=1;html=1;rounded=0;exitX=0;exitY=0;exitDx=70;exitDy=32;exitPerimeter=0;" edge="1" parent="1" source="EuXT_0k7Hs9fIDMIP2ZN-5">
          <mxGeometry width="50" height="50" relative="1" as="geometry">
            <mxPoint x="-521" y="847" as="sourcePoint" />
            <mxPoint x="-601" y="737" as="targetPoint" />
          </mxGeometry>
        </mxCell>
        <mxCell id="EuXT_0k7Hs9fIDMIP2ZN-60" value="" style="endArrow=none;dashed=1;html=1;rounded=0;exitX=0;exitY=0;exitDx=70;exitDy=32;exitPerimeter=0;" edge="1" parent="1" source="EuXT_0k7Hs9fIDMIP2ZN-4">
          <mxGeometry width="50" height="50" relative="1" as="geometry">
            <mxPoint x="-511" y="857" as="sourcePoint" />
            <mxPoint x="-601" y="737" as="targetPoint" />
            <Array as="points">
              <mxPoint x="-601" y="809" />
            </Array>
          </mxGeometry>
        </mxCell>
        <mxCell id="EuXT_0k7Hs9fIDMIP2ZN-61" value="" style="endArrow=none;dashed=1;html=1;rounded=0;exitX=0;exitY=0;exitDx=70;exitDy=32;exitPerimeter=0;" edge="1" parent="1" source="EuXT_0k7Hs9fIDMIP2ZN-3">
          <mxGeometry width="50" height="50" relative="1" as="geometry">
            <mxPoint x="-501" y="867" as="sourcePoint" />
            <mxPoint x="-601" y="807" as="targetPoint" />
            <Array as="points">
              <mxPoint x="-601" y="879" />
            </Array>
          </mxGeometry>
        </mxCell>
        <mxCell id="EuXT_0k7Hs9fIDMIP2ZN-62" value="" style="endArrow=none;dashed=1;html=1;rounded=0;exitX=0;exitY=0;exitDx=70;exitDy=32;exitPerimeter=0;" edge="1" parent="1" source="EuXT_0k7Hs9fIDMIP2ZN-2">
          <mxGeometry width="50" height="50" relative="1" as="geometry">
            <mxPoint x="-491" y="877" as="sourcePoint" />
            <mxPoint x="-601" y="877" as="targetPoint" />
            <Array as="points">
              <mxPoint x="-601" y="949" />
            </Array>
          </mxGeometry>
        </mxCell>
        <mxCell id="EuXT_0k7Hs9fIDMIP2ZN-63" value="" style="endArrow=none;dashed=1;html=1;rounded=0;exitX=0;exitY=0;exitDx=70;exitDy=32;exitPerimeter=0;" edge="1" parent="1" source="EuXT_0k7Hs9fIDMIP2ZN-43">
          <mxGeometry width="50" height="50" relative="1" as="geometry">
            <mxPoint x="-481" y="887" as="sourcePoint" />
            <mxPoint x="-601" y="947" as="targetPoint" />
            <Array as="points">
              <mxPoint x="-601" y="1019" />
            </Array>
          </mxGeometry>
        </mxCell>
        <mxCell id="EuXT_0k7Hs9fIDMIP2ZN-65" value="&amp;lt;&amp;lt;merge&amp;gt;&amp;gt;" style="text;html=1;align=center;verticalAlign=middle;resizable=0;points=[];autosize=1;strokeColor=none;fillColor=none;" vertex="1" parent="1">
          <mxGeometry x="-586" y="727" width="90" height="30" as="geometry" />
        </mxCell>
        <mxCell id="EuXT_0k7Hs9fIDMIP2ZN-67" value="" style="shape=folder;fontStyle=1;spacingTop=10;tabWidth=40;tabHeight=14;tabPosition=left;html=1;whiteSpace=wrap;" vertex="1" parent="1">
          <mxGeometry x="-1046" y="687" width="200" height="180" as="geometry" />
        </mxCell>
        <mxCell id="EuXT_0k7Hs9fIDMIP2ZN-85" value="warehouse manager" style="shape=folder;fontStyle=1;spacingTop=10;tabWidth=40;tabHeight=14;tabPosition=left;html=1;whiteSpace=wrap;" vertex="1" parent="1">
          <mxGeometry x="-1036" y="792" width="75" height="60" as="geometry" />
        </mxCell>
        <mxCell id="EuXT_0k7Hs9fIDMIP2ZN-88" value="manager" style="shape=folder;fontStyle=1;spacingTop=10;tabWidth=40;tabHeight=14;tabPosition=left;html=1;whiteSpace=wrap;" vertex="1" parent="1">
          <mxGeometry x="-936" y="717" width="75" height="60" as="geometry" />
        </mxCell>
        <mxCell id="EuXT_0k7Hs9fIDMIP2ZN-89" value="sale" style="shape=folder;fontStyle=1;spacingTop=10;tabWidth=40;tabHeight=14;tabPosition=left;html=1;whiteSpace=wrap;" vertex="1" parent="1">
          <mxGeometry x="-936" y="792" width="75" height="60" as="geometry" />
        </mxCell>
        <mxCell id="EuXT_0k7Hs9fIDMIP2ZN-90" value="common" style="shape=folder;fontStyle=1;spacingTop=10;tabWidth=40;tabHeight=14;tabPosition=left;html=1;whiteSpace=wrap;" vertex="1" parent="1">
          <mxGeometry x="-1036" y="717" width="75" height="60" as="geometry" />
        </mxCell>
        <mxCell id="EuXT_0k7Hs9fIDMIP2ZN-100" value="" style="shape=folder;fontStyle=1;spacingTop=10;tabWidth=40;tabHeight=14;tabPosition=left;html=1;whiteSpace=wrap;" vertex="1" parent="1">
          <mxGeometry x="-1046" y="467" width="200" height="180" as="geometry" />
        </mxCell>
        <mxCell id="EuXT_0k7Hs9fIDMIP2ZN-101" value="sale Component" style="shape=folder;fontStyle=1;spacingTop=10;tabWidth=40;tabHeight=14;tabPosition=left;html=1;whiteSpace=wrap;" vertex="1" parent="1">
          <mxGeometry x="-936" y="572" width="75" height="60" as="geometry" />
        </mxCell>
        <mxCell id="EuXT_0k7Hs9fIDMIP2ZN-102" value="warehouse manager Component" style="shape=folder;fontStyle=1;spacingTop=10;tabWidth=40;tabHeight=14;tabPosition=left;html=1;whiteSpace=wrap;" vertex="1" parent="1">
          <mxGeometry x="-1036" y="572" width="75" height="60" as="geometry" />
        </mxCell>
        <mxCell id="EuXT_0k7Hs9fIDMIP2ZN-103" value="manager&lt;br&gt;Component" style="shape=folder;fontStyle=1;spacingTop=10;tabWidth=40;tabHeight=14;tabPosition=left;html=1;whiteSpace=wrap;" vertex="1" parent="1">
          <mxGeometry x="-936" y="497" width="75" height="60" as="geometry" />
        </mxCell>
        <mxCell id="EuXT_0k7Hs9fIDMIP2ZN-104" value="component" style="shape=folder;fontStyle=1;spacingTop=10;tabWidth=40;tabHeight=14;tabPosition=left;html=1;whiteSpace=wrap;" vertex="1" parent="1">
          <mxGeometry x="-1036" y="497" width="75" height="60" as="geometry" />
        </mxCell>
        <mxCell id="EuXT_0k7Hs9fIDMIP2ZN-106" value="&amp;lt;&amp;lt;merge&amp;gt;&amp;gt;" style="endArrow=open;endSize=12;dashed=1;html=1;rounded=0;exitX=0;exitY=0;exitDx=200;exitDy=97;exitPerimeter=0;edgeStyle=orthogonalEdgeStyle;" edge="1" parent="1" source="EuXT_0k7Hs9fIDMIP2ZN-100" target="EuXT_0k7Hs9fIDMIP2ZN-7">
          <mxGeometry width="160" relative="1" as="geometry">
            <mxPoint x="-871" y="416.74" as="sourcePoint" />
            <mxPoint x="-793" y="316.74" as="targetPoint" />
          </mxGeometry>
        </mxCell>
        <mxCell id="EuXT_0k7Hs9fIDMIP2ZN-107" value="&amp;lt;&amp;lt;merge&amp;gt;&amp;gt;" style="endArrow=open;endSize=12;dashed=1;html=1;rounded=0;exitX=0.991;exitY=0.58;exitDx=0;exitDy=0;exitPerimeter=0;edgeStyle=orthogonalEdgeStyle;entryX=0;entryY=0;entryDx=0;entryDy=32;entryPerimeter=0;" edge="1" parent="1" source="EuXT_0k7Hs9fIDMIP2ZN-67" target="EuXT_0k7Hs9fIDMIP2ZN-5">
          <mxGeometry width="160" relative="1" as="geometry">
            <mxPoint x="-781" y="366.47" as="sourcePoint" />
            <mxPoint x="-703" y="266.47" as="targetPoint" />
          </mxGeometry>
        </mxCell>
        <mxCell id="EuXT_0k7Hs9fIDMIP2ZN-108" value="" style="shape=folder;fontStyle=1;spacingTop=10;tabWidth=40;tabHeight=14;tabPosition=left;html=1;whiteSpace=wrap;" vertex="1" parent="1">
          <mxGeometry x="701" y="937" width="111" height="105" as="geometry" />
        </mxCell>
        <mxCell id="EuXT_0k7Hs9fIDMIP2ZN-112" value="impl" style="shape=folder;fontStyle=1;spacingTop=10;tabWidth=40;tabHeight=14;tabPosition=left;html=1;whiteSpace=wrap;" vertex="1" parent="1">
          <mxGeometry x="719" y="966" width="75" height="60" as="geometry" />
        </mxCell>
        <mxCell id="EuXT_0k7Hs9fIDMIP2ZN-113" value="" style="shape=folder;fontStyle=1;spacingTop=10;tabWidth=40;tabHeight=14;tabPosition=left;html=1;whiteSpace=wrap;" vertex="1" parent="1">
          <mxGeometry x="630" y="645" width="187" height="112" as="geometry" />
        </mxCell>
        <mxCell id="EuXT_0k7Hs9fIDMIP2ZN-116" value="response" style="shape=folder;fontStyle=1;spacingTop=10;tabWidth=40;tabHeight=14;tabPosition=left;html=1;whiteSpace=wrap;" vertex="1" parent="1">
          <mxGeometry x="734" y="678" width="75" height="60" as="geometry" />
        </mxCell>
        <mxCell id="EuXT_0k7Hs9fIDMIP2ZN-117" value="request" style="shape=folder;fontStyle=1;spacingTop=10;tabWidth=40;tabHeight=14;tabPosition=left;html=1;whiteSpace=wrap;" vertex="1" parent="1">
          <mxGeometry x="645" y="678" width="75" height="60" as="geometry" />
        </mxCell>
        <mxCell id="EuXT_0k7Hs9fIDMIP2ZN-118" value="" style="shape=folder;fontStyle=1;spacingTop=10;tabWidth=40;tabHeight=14;tabPosition=left;html=1;whiteSpace=wrap;fillColor=#D8D8D8;" vertex="1" parent="1">
          <mxGeometry x="473" y="448" width="110" height="648" as="geometry" />
        </mxCell>
        <mxCell id="EuXT_0k7Hs9fIDMIP2ZN-119" value="config" style="shape=folder;fontStyle=1;spacingTop=10;tabWidth=40;tabHeight=14;tabPosition=left;html=1;whiteSpace=wrap;fillColor=#D8D8D8;" vertex="1" parent="1">
          <mxGeometry x="493" y="478" width="70" height="50" as="geometry" />
        </mxCell>
        <mxCell id="EuXT_0k7Hs9fIDMIP2ZN-120" value="repository" style="shape=folder;fontStyle=1;spacingTop=10;tabWidth=40;tabHeight=14;tabPosition=left;html=1;whiteSpace=wrap;fillColor=#D8D8D8;" vertex="1" parent="1">
          <mxGeometry x="493" y="898" width="70" height="50" as="geometry" />
        </mxCell>
        <mxCell id="EuXT_0k7Hs9fIDMIP2ZN-121" value="exception" style="shape=folder;fontStyle=1;spacingTop=10;tabWidth=40;tabHeight=14;tabPosition=left;html=1;whiteSpace=wrap;fillColor=#D8D8D8;" vertex="1" parent="1">
          <mxGeometry x="493" y="828" width="70" height="50" as="geometry" />
        </mxCell>
        <mxCell id="EuXT_0k7Hs9fIDMIP2ZN-122" value="entity" style="shape=folder;fontStyle=1;spacingTop=10;tabWidth=40;tabHeight=14;tabPosition=left;html=1;whiteSpace=wrap;fillColor=#D8D8D8;" vertex="1" parent="1">
          <mxGeometry x="493" y="758" width="70" height="50" as="geometry" />
        </mxCell>
        <mxCell id="EuXT_0k7Hs9fIDMIP2ZN-123" value="dto" style="shape=folder;fontStyle=1;spacingTop=10;tabWidth=40;tabHeight=14;tabPosition=left;html=1;whiteSpace=wrap;fillColor=#D8D8D8;" vertex="1" parent="1">
          <mxGeometry x="493" y="688" width="70" height="50" as="geometry" />
        </mxCell>
        <mxCell id="EuXT_0k7Hs9fIDMIP2ZN-124" value="controller" style="shape=folder;fontStyle=1;spacingTop=10;tabWidth=40;tabHeight=14;tabPosition=left;html=1;whiteSpace=wrap;fillColor=#D8D8D8;" vertex="1" parent="1">
          <mxGeometry x="493" y="618" width="70" height="50" as="geometry" />
        </mxCell>
        <mxCell id="EuXT_0k7Hs9fIDMIP2ZN-125" value="constant" style="shape=folder;fontStyle=1;spacingTop=10;tabWidth=40;tabHeight=14;tabPosition=left;html=1;whiteSpace=wrap;fillColor=#D8D8D8;" vertex="1" parent="1">
          <mxGeometry x="493" y="548" width="70" height="50" as="geometry" />
        </mxCell>
        <mxCell id="EuXT_0k7Hs9fIDMIP2ZN-126" value="services" style="shape=folder;fontStyle=1;spacingTop=10;tabWidth=40;tabHeight=14;tabPosition=left;html=1;whiteSpace=wrap;fillColor=#D8D8D8;" vertex="1" parent="1">
          <mxGeometry x="493" y="968" width="70" height="50" as="geometry" />
        </mxCell>
        <mxCell id="EuXT_0k7Hs9fIDMIP2ZN-133" value="utils" style="shape=folder;fontStyle=1;spacingTop=10;tabWidth=40;tabHeight=14;tabPosition=left;html=1;whiteSpace=wrap;fillColor=#D8D8D8;" vertex="1" parent="1">
          <mxGeometry x="493" y="1038" width="70" height="50" as="geometry" />
        </mxCell>
        <mxCell id="EuXT_0k7Hs9fIDMIP2ZN-136" value="&amp;lt;&amp;lt;merge&amp;gt;&amp;gt;" style="endArrow=open;endSize=12;dashed=1;html=1;rounded=0;edgeStyle=orthogonalEdgeStyle;labelBackgroundColor=none;entryX=0;entryY=0;entryDx=70;entryDy=32;entryPerimeter=0;exitX=0;exitY=0;exitDx=0;exitDy=82.25;exitPerimeter=0;" edge="1" parent="1" source="EuXT_0k7Hs9fIDMIP2ZN-108" target="EuXT_0k7Hs9fIDMIP2ZN-126">
          <mxGeometry x="0.1313" y="-8" width="160" relative="1" as="geometry">
            <mxPoint x="853" y="898.47" as="sourcePoint" />
            <mxPoint x="745" y="785.47" as="targetPoint" />
            <mxPoint x="3" y="1" as="offset" />
          </mxGeometry>
        </mxCell>
        <mxCell id="EuXT_0k7Hs9fIDMIP2ZN-137" value="" style="endArrow=open;endSize=12;dashed=1;html=1;rounded=0;edgeStyle=orthogonalEdgeStyle;labelBackgroundColor=none;entryX=0;entryY=0;entryDx=70;entryDy=32;entryPerimeter=0;" edge="1" parent="1" source="EuXT_0k7Hs9fIDMIP2ZN-119" target="EuXT_0k7Hs9fIDMIP2ZN-9">
          <mxGeometry x="1" y="176" width="160" relative="1" as="geometry">
            <mxPoint x="827.0119999999997" y="568.4620000000002" as="sourcePoint" />
            <mxPoint x="686" y="615.47" as="targetPoint" />
            <mxPoint x="-48" y="-7" as="offset" />
            <Array as="points">
              <mxPoint x="435" y="503" />
              <mxPoint x="435" y="713" />
            </Array>
          </mxGeometry>
        </mxCell>
        <mxCell id="EuXT_0k7Hs9fIDMIP2ZN-138" value="" style="endArrow=none;dashed=1;html=1;rounded=0;" edge="1" parent="1" target="EuXT_0k7Hs9fIDMIP2ZN-125">
          <mxGeometry width="50" height="50" relative="1" as="geometry">
            <mxPoint x="434" y="573" as="sourcePoint" />
            <mxPoint x="495" y="691" as="targetPoint" />
          </mxGeometry>
        </mxCell>
        <mxCell id="EuXT_0k7Hs9fIDMIP2ZN-139" value="" style="endArrow=none;dashed=1;html=1;rounded=0;" edge="1" parent="1">
          <mxGeometry width="50" height="50" relative="1" as="geometry">
            <mxPoint x="492" y="647" as="sourcePoint" />
            <mxPoint x="437" y="647" as="targetPoint" />
          </mxGeometry>
        </mxCell>
        <mxCell id="EuXT_0k7Hs9fIDMIP2ZN-140" value="" style="endArrow=none;dashed=1;html=1;rounded=0;entryX=0;entryY=0;entryDx=0;entryDy=32;entryPerimeter=0;" edge="1" parent="1" target="EuXT_0k7Hs9fIDMIP2ZN-123">
          <mxGeometry width="50" height="50" relative="1" as="geometry">
            <mxPoint x="436" y="708" as="sourcePoint" />
            <mxPoint x="513" y="593" as="targetPoint" />
            <Array as="points">
              <mxPoint x="436" y="720" />
            </Array>
          </mxGeometry>
        </mxCell>
        <mxCell id="EuXT_0k7Hs9fIDMIP2ZN-141" value="" style="endArrow=none;dashed=1;html=1;rounded=0;" edge="1" parent="1" source="EuXT_0k7Hs9fIDMIP2ZN-122">
          <mxGeometry width="50" height="50" relative="1" as="geometry">
            <mxPoint x="464" y="603" as="sourcePoint" />
            <mxPoint x="436" y="702" as="targetPoint" />
            <Array as="points">
              <mxPoint x="436" y="783" />
            </Array>
          </mxGeometry>
        </mxCell>
        <mxCell id="EuXT_0k7Hs9fIDMIP2ZN-142" value="" style="endArrow=none;dashed=1;html=1;rounded=0;" edge="1" parent="1" source="EuXT_0k7Hs9fIDMIP2ZN-121">
          <mxGeometry width="50" height="50" relative="1" as="geometry">
            <mxPoint x="474" y="613" as="sourcePoint" />
            <mxPoint x="436" y="784" as="targetPoint" />
            <Array as="points">
              <mxPoint x="436" y="853" />
            </Array>
          </mxGeometry>
        </mxCell>
        <mxCell id="EuXT_0k7Hs9fIDMIP2ZN-143" value="" style="endArrow=none;dashed=1;html=1;rounded=0;" edge="1" parent="1" source="EuXT_0k7Hs9fIDMIP2ZN-120">
          <mxGeometry width="50" height="50" relative="1" as="geometry">
            <mxPoint x="484" y="623" as="sourcePoint" />
            <mxPoint x="435" y="853" as="targetPoint" />
            <Array as="points">
              <mxPoint x="435" y="923" />
            </Array>
          </mxGeometry>
        </mxCell>
        <mxCell id="EuXT_0k7Hs9fIDMIP2ZN-144" value="" style="endArrow=none;dashed=1;html=1;rounded=0;" edge="1" parent="1">
          <mxGeometry width="50" height="50" relative="1" as="geometry">
            <mxPoint x="493" y="991" as="sourcePoint" />
            <mxPoint x="435" y="921" as="targetPoint" />
            <Array as="points">
              <mxPoint x="435" y="991" />
            </Array>
          </mxGeometry>
        </mxCell>
        <mxCell id="EuXT_0k7Hs9fIDMIP2ZN-145" value="" style="endArrow=none;dashed=1;html=1;rounded=0;" edge="1" parent="1">
          <mxGeometry width="50" height="50" relative="1" as="geometry">
            <mxPoint x="493" y="1063" as="sourcePoint" />
            <mxPoint x="435" y="993" as="targetPoint" />
            <Array as="points">
              <mxPoint x="435" y="1063" />
            </Array>
          </mxGeometry>
        </mxCell>
        <mxCell id="EuXT_0k7Hs9fIDMIP2ZN-146" value="&amp;lt;&amp;lt;merge&amp;gt;&amp;gt;" style="text;html=1;align=center;verticalAlign=middle;resizable=0;points=[];autosize=1;strokeColor=none;fillColor=none;" vertex="1" parent="1">
          <mxGeometry x="353" y="717" width="80" height="26" as="geometry" />
        </mxCell>
        <mxCell id="EuXT_0k7Hs9fIDMIP2ZN-147" value="&amp;lt;&amp;lt;merge&amp;gt;&amp;gt;" style="endArrow=open;endSize=12;dashed=1;html=1;rounded=0;edgeStyle=orthogonalEdgeStyle;labelBackgroundColor=none;entryX=0;entryY=0;entryDx=70;entryDy=32;entryPerimeter=0;" edge="1" parent="1" source="EuXT_0k7Hs9fIDMIP2ZN-113" target="EuXT_0k7Hs9fIDMIP2ZN-123">
          <mxGeometry x="0.2301" y="17" width="160" relative="1" as="geometry">
            <mxPoint x="800" y="687.06" as="sourcePoint" />
            <mxPoint x="651" y="897.06" as="targetPoint" />
            <mxPoint as="offset" />
            <Array as="points">
              <mxPoint x="603" y="683" />
              <mxPoint x="603" y="720" />
            </Array>
          </mxGeometry>
        </mxCell>
        <mxCell id="EuXT_0k7Hs9fIDMIP2ZN-150" value="" style="shape=folder;fontStyle=1;spacingTop=10;tabWidth=40;tabHeight=14;tabPosition=left;html=1;whiteSpace=wrap;" vertex="1" parent="1">
          <mxGeometry x="699.5" y="792" width="111" height="105" as="geometry" />
        </mxCell>
        <mxCell id="EuXT_0k7Hs9fIDMIP2ZN-151" value="custom" style="shape=folder;fontStyle=1;spacingTop=10;tabWidth=40;tabHeight=14;tabPosition=left;html=1;whiteSpace=wrap;" vertex="1" parent="1">
          <mxGeometry x="717.5" y="821" width="76.5" height="60" as="geometry" />
        </mxCell>
        <mxCell id="EuXT_0k7Hs9fIDMIP2ZN-153" value="&amp;lt;&amp;lt;merge&amp;gt;&amp;gt;" style="endArrow=open;endSize=12;dashed=1;html=1;rounded=0;edgeStyle=orthogonalEdgeStyle;labelBackgroundColor=none;exitX=0;exitY=0;exitDx=0;exitDy=59.5;exitPerimeter=0;" edge="1" parent="1" source="EuXT_0k7Hs9fIDMIP2ZN-150" target="EuXT_0k7Hs9fIDMIP2ZN-120">
          <mxGeometry x="-0.0841" y="-21" width="160" relative="1" as="geometry">
            <mxPoint x="741" y="909" as="sourcePoint" />
            <mxPoint x="603" y="890" as="targetPoint" />
            <mxPoint as="offset" />
            <Array as="points">
              <mxPoint x="650" y="852" />
              <mxPoint x="650" y="929" />
            </Array>
          </mxGeometry>
        </mxCell>
      </root>
    </mxGraphModel>
  </diagram>
</mxfile>
